<?xml version="1.0" encoding="UTF-8"?>
<svg version="1.1" xmlns="http://www.w3.org/2000/svg" width="512" height="512">
<path d="M0 0 C168.96 0 337.92 0 512 0 C512 168.96 512 337.92 512 512 C343.04 512 174.08 512 0 512 C0 343.04 0 174.08 0 0 Z " fill="#FEFEFE" transform="translate(0,0)"/>
<path d="M0 0 C5.24436673 1.01503872 9.90489669 2.7865024 14.875 4.75 C14.875 8.38 14.875 12.01 14.875 15.75 C16.525 16.41 18.175 17.07 19.875 17.75 C20.535 18.306875 21.195 18.86375 21.875 19.4375 C23.81125347 21.01011434 23.81125347 21.01011434 26.25 20.5 C27.11625 20.2525 27.9825 20.005 28.875 19.75 C30.87296404 19.40467288 32.87280892 19.06990932 34.875 18.75 C36.19816536 20.47101918 37.50814524 22.20218093 38.8125 23.9375 C39.54339844 24.90042969 40.27429688 25.86335938 41.02734375 26.85546875 C42.81487946 29.65581538 43.74332752 31.44101336 43.875 34.75 C42.6375 35.7090625 42.6375 35.7090625 41.375 36.6875 C38.30018326 40.4541505 38.45858017 42.0321877 38.5625 46.8125 C38.96467267 51.73082141 38.96467267 51.73082141 41.7421875 55.55078125 C43.78397665 56.54987737 45.65957485 57.2554404 47.875 57.75 C48.21683203 64.0169206 47.32318504 68.95300225 44.875 74.75 C44.545 75.08 44.215 75.41 43.875 75.75 C42.3125 75.75 40.75 75.75 39.1875 75.75 C35.95399551 76.05241409 34.32648206 76.37532963 31.80859375 78.46484375 C29.26860857 81.81809564 27.83064224 84.29425889 27.9609375 88.5703125 C28.44712427 91.04352345 29.05020675 93.37002431 29.875 95.75 C19.625 104.75 19.625 104.75 14.6875 104.75 C12.875 103.75 12.875 103.75 11.21484375 101.703125 C7.96740723 98.99241004 5.78901414 99.34577725 1.625 99.5 C0.36171875 99.53609375 -0.9015625 99.5721875 -2.203125 99.609375 C-3.16734375 99.65578125 -4.1315625 99.7021875 -5.125 99.75 C-5.41375 100.678125 -5.7025 101.60625 -6 102.5625 C-7.125 105.75 -7.125 105.75 -9.125 108.75 C-15.59801214 109.97722535 -21.24736422 108.36228257 -27.125 105.75 C-27.104375 105.09773438 -27.08375 104.44546875 -27.0625 103.7734375 C-27.15281746 99.94623494 -27.31235891 96.90996166 -29.55078125 93.71484375 C-32.69446359 90.96168095 -34.82362383 89.67081574 -39.078125 89.9296875 C-40.10421875 90.09726562 -41.1303125 90.26484375 -42.1875 90.4375 C-47.49379973 91.20993604 -47.49379973 91.20993604 -50.4140625 89.08203125 C-53.93856461 84.75255026 -56.56634625 80.48750127 -56.125 74.75 C-55.3 74.04875 -54.475 73.3475 -53.625 72.625 C-50.79737448 69.98198173 -50.79737448 69.98198173 -51.01171875 66.55078125 C-51.28545888 63.26234459 -51.64233294 60.01397627 -52.125 56.75 C-56.58 54.77 -56.58 54.77 -61.125 52.75 C-61.52373011 46.63613837 -60.24615707 41.48701549 -58.125 35.75 C-56.52448605 34.14948605 -54.64671676 34.71061587 -52.4375 34.6875 C-48.32457215 34.28566222 -46.18557182 33.5744499 -43.4375 30.4375 C-40.90390485 26.58865054 -41.08245593 24.15761603 -41.8125 19.6875 C-42.58493604 14.38120027 -42.58493604 14.38120027 -40.45703125 11.4609375 C-36.12755026 7.93643539 -31.86250127 5.30865375 -26.125 5.75 C-25.42375 6.595625 -24.7225 7.44125 -24 8.3125 C-21.36721243 11.04074059 -21.36721243 11.04074059 -18.1015625 10.921875 C-11.57207453 10.39634666 -11.57207453 10.39634666 -6.4140625 6.81640625 C-5.65243975 5.38261309 -4.9142891 3.93604106 -4.203125 2.4765625 C-3.125 0.75 -3.125 0.75 0 0 Z " fill="#FCCA57" transform="translate(298.125,333.25)"/>
<path d="M0 0 C5.60461531 0.42089996 10.72086547 0.91613111 16 3 C15.99097656 3.59167969 15.98195313 4.18335938 15.97265625 4.79296875 C16.12144617 9.62613514 16.12144617 9.62613514 18.44921875 13.7109375 C21.15667053 15.74299459 23.25555435 16.89365062 26.625 17.375 C29.10313742 16.98371514 31.55386715 16.55911608 34 16 C41.2398524 24.72324723 41.2398524 24.72324723 41 30 C40.33226562 30.5878125 39.66453125 31.175625 38.9765625 31.78125 C36.69331619 33.88145228 36.69331619 33.88145228 36.828125 37.015625 C37.03695312 38.61664063 37.03695312 38.61664063 37.25 40.25 C37.37890625 41.32765625 37.5078125 42.4053125 37.640625 43.515625 C37.75921875 44.33546875 37.8778125 45.1553125 38 46 C40.31 46.99 42.62 47.98 45 49 C45.37851209 54.93002267 44.10575375 59.47239641 42 65 C41.09507812 65.00386719 41.09507812 65.00386719 40.171875 65.0078125 C34.64832276 65.24576097 34.64832276 65.24576097 30.5 68.75 C28.06430431 74.02734067 27.80641667 77.29732407 29 83 C24.53174216 86.60636039 20.67853635 89.58036591 15 91 C14.4225 90.154375 13.845 89.30875 13.25 88.4375 C11.10850609 86.21484159 10.14817267 86.0053951 6.99609375 85.890625 C3.97368438 86.16182112 0.99556975 86.51746006 -2 87 C-2.66 89.31 -3.32 91.62 -4 94 C-9.77807024 94.2358396 -14.51324804 93.86783046 -20 92 C-20 88.7 -20 85.4 -20 82 C-20.7425 81.731875 -21.485 81.46375 -22.25 81.1875 C-25 80 -25 80 -27.0625 78.3125 C-28.88273778 76.76747815 -28.88273778 76.76747815 -30.9375 77.25 C-31.618125 77.4975 -32.29875 77.745 -33 78 C-34.66519519 78.34060811 -36.33157466 78.67558396 -38 79 C-41.32280551 75.22816672 -44.23303985 71.78118628 -46 67 C-45.25633796 64.39718284 -44.36150096 63.30794527 -42.3125 61.5625 C-41.879375 61.046875 -41.44625 60.53125 -41 60 C-41.28566879 57.64934822 -41.28566879 57.64934822 -42 55 C-42.03824623 52.66698014 -42.04574284 50.33288492 -42 48 C-42.78375 47.855625 -43.5675 47.71125 -44.375 47.5625 C-47 47 -47 47 -49 46 C-49.3540919 39.48208608 -49.03901852 34.82478551 -46 29 C-43.03 29 -40.06 29 -37 29 C-36.731875 28.236875 -36.46375 27.47375 -36.1875 26.6875 C-35 24 -35 24 -33.375 22.6328125 C-32.92125 22.09398437 -32.4675 21.55515625 -32 21 C-32.1586347 18.66609131 -32.1586347 18.66609131 -32.8125 16.1875 C-33.18359375 13.515625 -33.18359375 13.515625 -33 11 C-30.16185821 7.37066268 -26.4436417 5.5905807 -22.25 3.875 C-21.5075 3.91625 -20.765 3.9575 -20 4 C-19.14921875 4.98613281 -19.14921875 4.98613281 -18.28125 5.9921875 C-15.1905919 8.71239 -13.29862206 8.41194488 -9.25 8.25 C-8.07953125 8.21390625 -6.9090625 8.1778125 -5.703125 8.140625 C-4.81109375 8.09421875 -3.9190625 8.0478125 -3 8 C-2.690625 7.05125 -2.38125 6.1025 -2.0625 5.125 C-1 2 -1 2 0 0 Z " fill="#2C8565" transform="translate(174,357)"/>
<path d="M0 0 C0.99 2.31 1.98 4.62 3 7 C6.07446111 7.35474551 8.94127109 7.53698855 12 7 C14.63844898 4.17142929 14.63844898 4.17142929 16 1 C19.65564909 1.68761019 22.51867272 3.25449545 25.75 5.0625 C26.73484375 5.61035156 27.7196875 6.15820312 28.734375 6.72265625 C29.48203125 7.14417969 30.2296875 7.56570312 31 8 C30.46432304 10.72456384 29.8981764 13.42426499 29.25 16.125 C28.66200782 19.00437059 28.66200782 19.00437059 30.4375 20.75 C30.953125 21.1625 31.46875 21.575 32 22 C32 22.66 32 23.32 32 24 C32.886875 23.649375 33.77375 23.29875 34.6875 22.9375 C38.12655433 21.96418274 39.62292447 22.17730528 43 23 C43.67812114 24.8708878 44.3419946 26.74694293 45 28.625 C45.37125 29.66914063 45.7425 30.71328125 46.125 31.7890625 C47.00483564 35.01774506 47.15988262 37.67244294 47 41 C44.69 41.99 42.38 42.98 40 44 C39.67 46.97 39.34 49.94 39 53 C41.31 54.32 43.62 55.64 46 57 C45.31238981 60.65564909 43.74550455 63.51867272 41.9375 66.75 C41.38964844 67.73484375 40.84179688 68.7196875 40.27734375 69.734375 C39.85582031 70.48203125 39.43429687 71.2296875 39 72 C33.2578125 71.1015625 33.2578125 71.1015625 30.9375 70.1875 C28.77211479 69.80725007 28.77211479 69.80725007 26.1875 71.375 C23.78068846 73.72231746 23.78068846 73.72231746 23.90625 76.2734375 C24.1648442 78.55050313 24.51669123 80.76050986 25 83 C12.51480638 88.55580866 12.51480638 88.55580866 6 89 C3 83.375 3 83.375 3 80 C-0.10148341 80.0132542 -3.0002855 80.17907985 -6 81 C-8.61974426 83.88274079 -8.61974426 83.88274079 -10 87 C-13.85025879 86.39644592 -16.86101159 85.23227397 -20.3125 83.4375 C-21.19550781 82.98246094 -22.07851563 82.52742188 -22.98828125 82.05859375 C-23.98408203 81.53458984 -23.98408203 81.53458984 -25 81 C-24.09048724 74.24361949 -24.09048724 74.24361949 -23.1875 71.8125 C-22.80230416 69.83049131 -22.80230416 69.83049131 -24.3125 67.75 C-28.36990045 65.1079718 -32.28856078 65.67631334 -37 66 C-37.73490992 63.79527024 -38.46871007 61.59029989 -39.1953125 59.3828125 C-39.83477665 57.4892536 -40.53253743 55.61540268 -41.25 53.75 C-42.07322104 50.73152285 -41.87414123 48.97208018 -41 46 C-38.69 45.34 -36.38 44.68 -34 44 C-33.67 41.03 -33.34 38.06 -33 35 C-34.98 34.34 -36.96 33.68 -39 33 C-39.99503411 29.81123572 -40.11794004 28.31393494 -38.92578125 25.140625 C-38.39339844 24.18671875 -37.86101562 23.2328125 -37.3125 22.25 C-36.79300781 21.28578125 -36.27351563 20.3215625 -35.73828125 19.328125 C-34 17 -34 17 -31.98046875 16.046875 C-30 16 -30 16 -27 18 C-23.53581611 17.65358161 -21.95070119 16.96713413 -19 15 C-18.63539547 12.33346095 -18.63539547 12.33346095 -18.8125 9.375 C-18.83957031 8.37210938 -18.86664063 7.36921875 -18.89453125 6.3359375 C-18.94673828 5.17964844 -18.94673828 5.17964844 -19 4 C-16.77332235 3.32506659 -14.54354023 2.66036956 -12.3125 2 C-10.45044922 1.443125 -10.45044922 1.443125 -8.55078125 0.875 C-5.4989981 0.12296543 -3.11101638 -0.19034899 0 0 Z " fill="#F8F8F8" transform="translate(303,234)"/>
<path d="M0 0 C5.94 0 11.88 0 18 0 C20.54960147 6.04349978 22.76753598 12.12671728 24.75 18.375 C24.97260498 19.06464844 25.19520996 19.75429687 25.42456055 20.46484375 C26.47750226 23.84218836 27 26.42272335 27 30 C27.66 30 28.32 30 29 30 C29.38285156 28.11474609 29.38285156 28.11474609 29.7734375 26.19140625 C31.00746167 20.6382975 32.78405524 15.31440574 34.625 9.9375 C34.94984375 8.97650391 35.2746875 8.01550781 35.609375 7.02539062 C36.40210095 4.68218599 37.20046333 2.34088946 38 0 C43.61 0 49.22 0 55 0 C57.84786621 6.75049768 60.17858548 13.5327112 62.2487793 20.55273438 C63.21220551 23.75869217 64.12680644 26.19020966 66 29 C68.97 19.43 71.94 9.86 75 0 C80.94 0 86.88 0 93 0 C91.55635662 7.0716541 89.55652005 13.83157638 87.3125 20.6875 C86.59872701 22.89185219 85.88519039 25.09628094 85.171875 27.30078125 C84.63143555 28.96488037 84.63143555 28.96488037 84.08007812 30.66259766 C82.38717811 35.89359748 80.72485055 41.13422808 79.0625 46.375 C78.49113013 48.17455688 77.91953594 49.97404257 77.34765625 51.7734375 C77.11054932 52.52028809 76.87344238 53.26713867 76.62915039 54.03662109 C76.09777732 55.69486799 75.55064872 57.34805384 75 59 C69.06 59 63.12 59 57 59 C55.70393089 55.33483713 54.41302972 51.66798775 53.125 48 C52.76019531 46.97003906 52.39539063 45.94007813 52.01953125 44.87890625 C50.06249517 39.2924578 48.31805517 33.7716942 47 28 C46.82549316 28.52859619 46.65098633 29.05719238 46.47119141 29.60180664 C44.49357349 35.56643195 42.45028947 41.50621718 40.375 47.4375 C40.06304687 48.33404297 39.75109375 49.23058594 39.4296875 50.15429688 C39.130625 51.00958984 38.8315625 51.86488281 38.5234375 52.74609375 C38.25450684 53.51622803 37.98557617 54.2863623 37.70849609 55.07983398 C37 57 37 57 36 59 C30.39 59 24.78 59 19 59 C17.02813304 54.39897708 15.3900198 50.29435909 14 45.5625 C12.94126679 42.04271148 11.89016438 38.55292443 10.5625 35.125 C6.12899204 23.60751738 2.86440249 11.98805487 0 0 Z " fill="#577271" transform="translate(52,171)"/>
<path d="M0 0 C0.495 2.97 0.495 2.97 1 6 C3.31 6 5.62 6 8 6 C8.66 4.35 9.32 2.7 10 1 C15.62541841 1.45003347 18.61487125 2.68441485 23 6 C22.79375 7.2375 22.5875 8.475 22.375 9.75 C21.93892876 13.11909835 21.96596361 15.12841921 24 18 C24.556875 17.649375 25.11375 17.29875 25.6875 16.9375 C28.55043998 15.77684866 30.05114287 16.30068562 33 17 C33.53341184 18.57914015 34.05125763 20.16354387 34.5625 21.75 C34.85253906 22.63171875 35.14257812 23.5134375 35.44140625 24.421875 C36.02079419 27.09597316 35.95259173 28.46736092 35 31 C34 32 34 32 31.4375 32.0625 C30.633125 32.041875 29.82875 32.02125 29 32 C29.23413974 37.03478441 29.23413974 37.03478441 32.0625 40.9375 C32.701875 41.288125 33.34125 41.63875 34 42 C33.48474397 47.28137429 31.74522883 50.57221156 29 55 C28.2575 54.835 27.515 54.67 26.75 54.5 C23.80993422 53.88074304 23.80993422 53.88074304 20 54 C18.14223235 57.13498292 17.79859524 59.37471432 18 63 C8.58997722 67.59225513 8.58997722 67.59225513 4 67 C3.34 65.02 2.68 63.04 2 61 C-0.87364791 60.58253392 -0.87364791 60.58253392 -4 61 C-5.9354148 63.39056942 -5.9354148 63.39056942 -7 66 C-12.15464734 65.51675181 -15.81550319 62.81389239 -20 60 C-19.70703125 58.01432292 -19.4140625 56.02864583 -19.12109375 54.04296875 C-18.86095201 51.7974658 -18.86095201 51.7974658 -20 49 C-21.27875 49.20625 -22.5575 49.4125 -23.875 49.625 C-26.0546875 49.9765625 -26.0546875 49.9765625 -28 50 C-31.42025316 46.57974684 -31.95344801 42.28017975 -32.125 37.5625 C-32.08375 36.716875 -32.0425 35.87125 -32 35 C-30.35 34.34 -28.7 33.68 -27 33 C-26.66602213 30.12586875 -26.66602213 30.12586875 -27 27 C-28.88077873 25.08743288 -28.88077873 25.08743288 -31 24 C-30.51675181 18.84535266 -27.81389239 15.18449681 -25 11 C-24.236875 11.309375 -23.47375 11.61875 -22.6875 11.9375 C-20.81210323 12.67893593 -18.91315348 13.36228217 -17 14 C-17 13.34 -17 12.68 -17 12 C-16.34 11.67 -15.68 11.34 -15 11 C-15 8.36 -15 5.72 -15 3 C-14.06027344 2.69255859 -14.06027344 2.69255859 -13.1015625 2.37890625 C-12.28429687 2.10949219 -11.46703125 1.84007812 -10.625 1.5625 C-9.81289063 1.29566406 -9.00078125 1.02882812 -8.1640625 0.75390625 C-3.22383073 -0.96714922 -3.22383073 -0.96714922 0 0 Z " fill="#3C3C3C" transform="translate(360,187)"/>
<path d="M0 0 C1.61459547 0.81294317 3.22294641 1.63911991 4.8125 2.5 C5.1425 1.18 5.4725 -0.14 5.8125 -1.5 C9.7725 -1.5 13.7325 -1.5 17.8125 -1.5 C17.93663166 5.3134913 18.02709229 12.126316 18.0871582 18.94067383 C18.11221296 21.25589473 18.14626636 23.57103723 18.18969727 25.88598633 C18.25074557 29.22496954 18.27880125 32.56290183 18.30078125 35.90234375 C18.32658768 36.92770737 18.3523941 37.95307098 18.37898254 39.00950623 C18.38212327 47.16236497 16.19782558 52.92660078 10.5625 58.875 C3.0351876 63.32295733 -4.50724278 64.51721764 -13.1875 63.5 C-20.28646942 61.66609957 -25.48227867 58.75106208 -29.5 52.4375 C-30.1875 50.5 -30.1875 50.5 -30.1875 46.5 C-27.74933415 46.4190277 -25.31385616 46.35953028 -22.875 46.3125 C-22.18470703 46.28736328 -21.49441406 46.26222656 -20.78320312 46.23632812 C-15.57472654 46.16084296 -15.57472654 46.16084296 -13.48828125 47.98828125 C-13.05902344 48.48714844 -12.62976563 48.98601562 -12.1875 49.5 C-10.01254919 49.97307456 -10.01254919 49.97307456 -7.6875 49.875 C-6.9140625 49.88273437 -6.140625 49.89046875 -5.34375 49.8984375 C-2.66221872 49.40293715 -1.79669586 48.67714734 -0.1875 46.5 C0.54291853 42.88976901 0.54291853 42.88976901 0.8125 39.5 C-0.30125 39.995 -1.415 40.49 -2.5625 41 C-8.93040026 43.3513978 -15.22870655 43.69767257 -21.5 40.875 C-26.7598488 37.85270784 -30.49947991 33.295434 -32.67578125 27.609375 C-34.26373304 21.06361952 -34.18530516 14.59656544 -31.0625 8.5625 C-23.76864867 -2.81096309 -12.1254208 -5.5229336 0 0 Z " fill="#597473" transform="translate(433.1875,186.5)"/>
<path d="M0 0 C6.66768377 5.68860009 10.98482486 10.74232997 11.984375 19.73828125 C12.36509529 27.83493278 10.01601195 34.78025384 5.1015625 41.23046875 C-0.02975831 46.7817442 -8.19120255 50.44799543 -15.7109375 50.85546875 C-23.09037146 50.76903321 -29.75461418 47.50817312 -35.26171875 42.671875 C-41.80188294 35.38519083 -43.07738151 28.1352954 -42.7421875 18.62890625 C-42.18127176 11.62057573 -39.07712417 7.13023086 -34.1171875 2.33203125 C-24.34557288 -5.86675499 -10.80686594 -7.52024176 0 0 Z " fill="#FEFEFC" transform="translate(307.2734375,365.58203125)"/>
<path d="M0 0 C7.00354286 4.17833449 11.62961673 9.15465291 13.83984375 17.09765625 C14.7252397 23.95947485 13.04589385 29.97531569 9.83984375 36.09765625 C6.77662324 39.67259806 3.18718422 42.28347763 -1.16015625 44.09765625 C-2.48015625 44.09765625 -3.80015625 44.09765625 -5.16015625 44.09765625 C-5.16015625 44.75765625 -5.16015625 45.41765625 -5.16015625 46.09765625 C-14.46844438 46.65615354 -22.37301757 46.90526061 -30.16015625 41.09765625 C-35.02410317 36.63988444 -37.82224618 32.27401087 -38.53125 25.609375 C-38.7518554 12.90509934 -38.7518554 12.90509934 -34.78125 7.7421875 C-25.64152922 -1.52967382 -12.45254193 -5.66024633 0 0 Z " fill="#587473" transform="translate(178.16015625,185.90234375)"/>
<path d="M0 0 C2.97 0.33 5.94 0.66 9 1 C9.1546875 2.423125 9.1546875 2.423125 9.3125 3.875 C9.68539295 7.29107501 9.68539295 7.29107501 13 9 C14.155 8.95875 15.31 8.9175 16.5 8.875 C20 9 20 9 22 10.625 C23.35129039 13.83431467 22.79268103 15.63110564 22 19 C21.66140041 21.33257494 21.3267961 23.66574212 21 26 C23.475 26.99 23.475 26.99 26 28 C25.34 30.97 24.68 33.94 24 37 C22.02 37 20.04 37 18 37 C17.855625 38.258125 17.71125 39.51625 17.5625 40.8125 C17.26251314 43.42667123 16.84186703 45.47439892 16 48 C13.6875 49.8125 13.6875 49.8125 11 51 C9.125 50.1875 9.125 50.1875 7 49 C4.66796188 48.9222654 2.33160941 48.91032272 0 49 C-0.66 50.32 -1.32 51.64 -2 53 C-8.75 53.125 -8.75 53.125 -11 52 C-11 50.02 -11 48.04 -11 46 C-13.82923669 44.18928852 -15.1062759 44.00559347 -18.5625 44.1875 C-19.696875 44.125625 -20.83125 44.06375 -22 44 C-24.37602366 41.15087428 -25.02869785 39.61816714 -24.85546875 35.88671875 C-24.63503906 34.83097656 -24.41460937 33.77523437 -24.1875 32.6875 C-23.97480469 31.61886719 -23.76210937 30.55023438 -23.54296875 29.44921875 C-23.36378906 28.64097656 -23.18460938 27.83273437 -23 27 C-25.475 26.01 -25.475 26.01 -28 25 C-27.67 22.69 -27.34 20.38 -27 18 C-26.05125 17.731875 -25.1025 17.46375 -24.125 17.1875 C-20.74732727 16.25013412 -20.74732727 16.25013412 -19 13 C-19.0825 11.865625 -19.165 10.73125 -19.25 9.5625 C-19.1675 8.386875 -19.085 7.21125 -19 6 C-15.87944243 3.29551677 -14.16725696 2 -10 2 C-9.67 2.66 -9.34 3.32 -9 4 C-6.36 4 -3.72 4 -1 4 C-0.67 2.68 -0.34 1.36 0 0 Z " fill="#7BA4CD" transform="translate(232,293)"/>
<path d="M0 0 C5.28 0 10.56 0 16 0 C16 10.56 16 21.12 16 32 C19.465 31.505 19.465 31.505 23 31 C24.711799 28.18407482 24.711799 28.18407482 25.296875 26.1796875 C26.30982806 23.03953301 27.70026662 20.03271121 29 17 C34.61 17 40.22 17 46 17 C44.88433192 24.47497617 42.63270725 30.31275726 39.14453125 37.01953125 C37.82034829 40.46783022 37.72875183 41.56866349 39 45 C40.40363922 47.63945598 41.96340945 50.16274907 43.5625 52.6875 C48 59.75113809 48 59.75113809 48 62 C41.73 62 35.46 62 29 62 C25.3125 54.5625 25.3125 54.5625 24.18481445 52.21704102 C23.8724585 51.61045654 23.56010254 51.00387207 23.23828125 50.37890625 C22.92930908 49.7557251 22.62033691 49.13254395 22.30200195 48.49047852 C20.76434619 46.42465998 20.76434619 46.42465998 16 46 C16 51.28 16 56.56 16 62 C10.72 62 5.44 62 0 62 C0 41.54 0 21.08 0 0 Z " fill="#567271" transform="translate(232,168)"/>
<path d="M0 0 C0.99 2.31 1.98 4.62 3 7 C6.07446111 7.35474551 8.94127109 7.53698855 12 7 C14.63844898 4.17142929 14.63844898 4.17142929 16 1 C19.65564909 1.68761019 22.51867272 3.25449545 25.75 5.0625 C26.73484375 5.61035156 27.7196875 6.15820312 28.734375 6.72265625 C29.48203125 7.14417969 30.2296875 7.56570312 31 8 C30.46432304 10.72456384 29.8981764 13.42426499 29.25 16.125 C28.66200782 19.00437059 28.66200782 19.00437059 30.4375 20.75 C30.953125 21.1625 31.46875 21.575 32 22 C32 22.66 32 23.32 32 24 C32.886875 23.649375 33.77375 23.29875 34.6875 22.9375 C38.12655433 21.96418274 39.62292447 22.17730528 43 23 C43.67812114 24.8708878 44.3419946 26.74694293 45 28.625 C45.37125 29.66914063 45.7425 30.71328125 46.125 31.7890625 C47.00483564 35.01774506 47.15988262 37.67244294 47 41 C44.69 41.99 42.38 42.98 40 44 C39.67 46.97 39.34 49.94 39 53 C41.31 54.32 43.62 55.64 46 57 C45.31238981 60.65564909 43.74550455 63.51867272 41.9375 66.75 C41.38964844 67.73484375 40.84179688 68.7196875 40.27734375 69.734375 C39.85582031 70.48203125 39.43429687 71.2296875 39 72 C33.2578125 71.1015625 33.2578125 71.1015625 30.9375 70.1875 C28.77211479 69.80725007 28.77211479 69.80725007 26.1875 71.375 C23.78068846 73.72231746 23.78068846 73.72231746 23.90625 76.2734375 C24.1648442 78.55050313 24.51669123 80.76050986 25 83 C12.51480638 88.55580866 12.51480638 88.55580866 6 89 C3 83.375 3 83.375 3 80 C-0.10148341 80.0132542 -3.0002855 80.17907985 -6 81 C-8.61974426 83.88274079 -8.61974426 83.88274079 -10 87 C-13.85025879 86.39644592 -16.86101159 85.23227397 -20.3125 83.4375 C-21.19550781 82.98246094 -22.07851563 82.52742188 -22.98828125 82.05859375 C-23.98408203 81.53458984 -23.98408203 81.53458984 -25 81 C-24.09048724 74.24361949 -24.09048724 74.24361949 -23.1875 71.8125 C-22.80230416 69.83049131 -22.80230416 69.83049131 -24.3125 67.75 C-28.36990045 65.1079718 -32.28856078 65.67631334 -37 66 C-37.73490992 63.79527024 -38.46871007 61.59029989 -39.1953125 59.3828125 C-39.83477665 57.4892536 -40.53253743 55.61540268 -41.25 53.75 C-42.07322104 50.73152285 -41.87414123 48.97208018 -41 46 C-38.69 45.34 -36.38 44.68 -34 44 C-33.67 41.03 -33.34 38.06 -33 35 C-34.98 34.34 -36.96 33.68 -39 33 C-39.99503411 29.81123572 -40.11794004 28.31393494 -38.92578125 25.140625 C-38.39339844 24.18671875 -37.86101562 23.2328125 -37.3125 22.25 C-36.79300781 21.28578125 -36.27351563 20.3215625 -35.73828125 19.328125 C-34 17 -34 17 -31.98046875 16.046875 C-30 16 -30 16 -27 18 C-23.53581611 17.65358161 -21.95070119 16.96713413 -19 15 C-18.63539547 12.33346095 -18.63539547 12.33346095 -18.8125 9.375 C-18.83957031 8.37210938 -18.86664063 7.36921875 -18.89453125 6.3359375 C-18.94673828 5.17964844 -18.94673828 5.17964844 -19 4 C-16.77332235 3.32506659 -14.54354023 2.66036956 -12.3125 2 C-10.45044922 1.443125 -10.45044922 1.443125 -8.55078125 0.875 C-5.4989981 0.12296543 -3.11101638 -0.19034899 0 0 Z M-14 8 C-13.7525 8.85271484 -13.7525 8.85271484 -13.5 9.72265625 C-12.94401807 12.32447792 -12.69373999 14.34854345 -13 17 C-15.17236932 20.11466978 -17.70767989 22.13454687 -21 24 C-24.63435533 24.55913159 -27.50648943 24.07492633 -31 23 C-32.62831762 24.80961577 -32.62831762 24.80961577 -34 27 C-33.14462031 30.65079137 -33.14462031 30.65079137 -28 33 C-28.33 37.95 -28.66 42.9 -29 48 C-31.31 48.66 -33.62 49.32 -36 50 C-35.34 52.97 -34.68 55.94 -34 59 C-31.30136735 59.61683032 -29.20531393 60.02503828 -26.4375 59.6875 C-25.633125 59.790625 -24.82875 59.89375 -24 60 C-21.875 62.8125 -21.875 62.8125 -20 66 C-19.1028125 66.7734375 -19.1028125 66.7734375 -18.1875 67.5625 C-17.795625 68.036875 -17.40375 68.51125 -17 69 C-17.25 71.4375 -17.25 71.4375 -18 74 C-18.185625 74.763125 -18.37125 75.52625 -18.5625 76.3125 C-18.706875 76.869375 -18.85125 77.42625 -19 78 C-15.74602492 80.25885324 -15.74602492 80.25885324 -12 81 C-11.01 79.02 -10.02 77.04 -9 75 C-4.05 75.33 0.9 75.66 6 76 C6.99 78.31 7.98 80.62 9 83 C12.3 82.01 15.6 81.02 19 80 C18.649375 78.845 18.29875 77.69 17.9375 76.5 C17.51462444 73.30557519 17.78610488 72.2908393 19.7265625 69.65234375 C25.66180463 64.0247814 25.66180463 64.0247814 30.375 63.9375 C31.24125 64.288125 32.1075 64.63875 33 65 C34.485 65.495 34.485 65.495 36 66 C38.25885324 62.74602492 38.25885324 62.74602492 39 59 C37.03852126 57.61061923 35.03833424 56.2739589 33 55 C33.33 50.38 33.66 45.76 34 41 C36.31 40.01 38.62 39.02 41 38 C40.7834375 36.081875 40.7834375 36.081875 40.5625 34.125 C40.48128906 33.40570313 40.40007812 32.68640625 40.31640625 31.9453125 C40.08707039 29.92595684 40.08707039 29.92595684 39 28 C38.12988281 28.2475 38.12988281 28.2475 37.2421875 28.5 C34.64963775 29.04760127 32.63770871 29.33132719 30 29 C27.38234217 26.6896563 25.78681319 23.97021078 24 21 C23.34 20.34 22.68 19.68 22 19 C22.3125 17.1875 22.3125 17.1875 23 15 C23.34060811 13.33480481 23.67558396 11.66842534 24 10 C22.02 9.34 20.04 8.68 18 8 C15.65712582 10.67247634 15.65712582 10.67247634 15 14 C9.72 13.34 4.44 12.68 -1 12 C-1.66 10.02 -2.32 8.04 -3 6 C-7.08378077 6 -10.12315913 6.80712589 -14 8 Z " fill="#3D3D3D" transform="translate(303,234)"/>
<path d="M0 0 C7.52604729 -0.49750242 12.60163604 1.53996765 18.40234375 6.31640625 C24.35702001 12.68174984 24.76986999 18.65256261 24.67578125 27.0546875 C24.14275933 33.4128776 21.69079345 37.38940652 17.02734375 41.62890625 C15.83611098 42.54735673 14.62873201 43.44545353 13.40234375 44.31640625 C12.10296875 45.24453125 12.10296875 45.24453125 10.77734375 46.19140625 C4.44621304 48.30178315 -2.19266461 48.61398414 -8.48828125 46.21484375 C-14.01565235 43.12017789 -17.38462616 39.73839453 -20.59765625 34.31640625 C-20.96117187 33.71570313 -21.3246875 33.115 -21.69921875 32.49609375 C-23.87262503 27.22322111 -23.39088686 20.37887884 -21.98046875 14.93359375 C-19.37401482 9.05177293 -14.54184951 4.1312191 -8.6875 1.4375 C-5.81972118 0.59542121 -2.9596425 0.36049781 0 0 Z " fill="#FBFDFC" transform="translate(170.59765625,380.68359375)"/>
<path d="M0 0 C5.61 0 11.22 0 17 0 C17 14.19 17 28.38 17 43 C24.92 43 32.84 43 41 43 C41 48.28 41 53.56 41 59 C27.47 59 13.94 59 0 59 C0 39.53 0 20.06 0 0 Z " fill="#577372" transform="translate(285,171)"/>
<path d="M0 0 C0.495 2.97 0.495 2.97 1 6 C3.31 6 5.62 6 8 6 C8.66 4.35 9.32 2.7 10 1 C15.62541841 1.45003347 18.61487125 2.68441485 23 6 C22.79375 7.2375 22.5875 8.475 22.375 9.75 C21.93892876 13.11909835 21.96596361 15.12841921 24 18 C24.556875 17.649375 25.11375 17.29875 25.6875 16.9375 C28.55043998 15.77684866 30.05114287 16.30068562 33 17 C33.53341184 18.57914015 34.05125763 20.16354387 34.5625 21.75 C34.85253906 22.63171875 35.14257812 23.5134375 35.44140625 24.421875 C36.02079419 27.09597316 35.95259173 28.46736092 35 31 C34 32 34 32 31.4375 32.0625 C30.633125 32.041875 29.82875 32.02125 29 32 C29.23413974 37.03478441 29.23413974 37.03478441 32.0625 40.9375 C32.701875 41.288125 33.34125 41.63875 34 42 C33.48474397 47.28137429 31.74522883 50.57221156 29 55 C28.2575 54.835 27.515 54.67 26.75 54.5 C23.80993422 53.88074304 23.80993422 53.88074304 20 54 C18.14223235 57.13498292 17.79859524 59.37471432 18 63 C8.58997722 67.59225513 8.58997722 67.59225513 4 67 C3.34 65.02 2.68 63.04 2 61 C-0.87364791 60.58253392 -0.87364791 60.58253392 -4 61 C-5.9354148 63.39056942 -5.9354148 63.39056942 -7 66 C-12.15464734 65.51675181 -15.81550319 62.81389239 -20 60 C-19.70703125 58.01432292 -19.4140625 56.02864583 -19.12109375 54.04296875 C-18.86095201 51.7974658 -18.86095201 51.7974658 -20 49 C-21.27875 49.20625 -22.5575 49.4125 -23.875 49.625 C-26.0546875 49.9765625 -26.0546875 49.9765625 -28 50 C-31.42025316 46.57974684 -31.95344801 42.28017975 -32.125 37.5625 C-32.08375 36.716875 -32.0425 35.87125 -32 35 C-30.35 34.34 -28.7 33.68 -27 33 C-26.66602213 30.12586875 -26.66602213 30.12586875 -27 27 C-28.88077873 25.08743288 -28.88077873 25.08743288 -31 24 C-30.51675181 18.84535266 -27.81389239 15.18449681 -25 11 C-24.236875 11.309375 -23.47375 11.61875 -22.6875 11.9375 C-20.81210323 12.67893593 -18.91315348 13.36228217 -17 14 C-17 13.34 -17 12.68 -17 12 C-16.34 11.67 -15.68 11.34 -15 11 C-15 8.36 -15 5.72 -15 3 C-14.06027344 2.69255859 -14.06027344 2.69255859 -13.1015625 2.37890625 C-12.28429687 2.10949219 -11.46703125 1.84007812 -10.625 1.5625 C-9.81289063 1.29566406 -9.00078125 1.02882812 -8.1640625 0.75390625 C-3.22383073 -0.96714922 -3.22383073 -0.96714922 0 0 Z M-9 6 C-8.855625 7.03125 -8.71125 8.0625 -8.5625 9.125 C-9.02279522 13.20190048 -9.25433324 13.82973429 -12.0625 16.5 C-15.1407118 18.87462053 -15.82089876 19.00568575 -19.9375 18.875 C-20.948125 18.58625 -21.95875 18.2975 -23 18 C-23.66 19.32 -24.32 20.64 -25 22 C-22.525 22.99 -22.525 22.99 -20 24 C-20.03305502 25.93822596 -20.10249905 27.87585668 -20.1875 29.8125 C-20.22230469 30.89144531 -20.25710938 31.97039062 -20.29296875 33.08203125 C-21 36 -21 36 -23.55078125 37.88671875 C-24.35902344 38.25410156 -25.16726563 38.62148437 -26 39 C-25.67 40.65 -25.34 42.3 -25 44 C-23.948125 43.87625 -22.89625 43.7525 -21.8125 43.625 C-18 44 -18 44 -15.0625 46.5 C-12.3088926 50.2614637 -12.61005498 53.4766378 -13 58 C-11.68 58.33 -10.36 58.66 -9 59 C-8.67 57.68 -8.34 56.36 -8 55 C-3.71 55.33 0.58 55.66 5 56 C5.66 57.65 6.32 59.3 7 61 C9.475 60.505 9.475 60.505 12 60 C11.87625 58.9275 11.7525 57.855 11.625 56.75 C11.810625 54.89375 11.810625 54.89375 12 53 C14.875 50.6875 14.875 50.6875 18 49 C18.66 48.34 19.32 47.68 20 47 C23.625 47.375 23.625 47.375 27 48 C27.33 46.68 27.66 45.36 28 44 C26.68 43.34 25.36 42.68 24 42 C24 37.71 24 33.42 24 29 C25.98 28.67 27.96 28.34 30 28 C29.505 25.03 29.505 25.03 29 22 C25.04 22.495 25.04 22.495 21 23 C20.731875 22.401875 20.46375 21.80375 20.1875 21.1875 C19.16636235 18.93931989 19.16636235 18.93931989 17.3125 17.75 C15.6162782 15.48837093 15.9643105 14.56416423 16.3125 11.8125 C16.539375 10.554375 16.76625 9.29625 17 8 C15.68 7.67 14.36 7.34 13 7 C12.63261719 7.66515625 12.26523437 8.3303125 11.88671875 9.015625 C10 11 10 11 7.08203125 11.171875 C6.00308594 11.03265625 4.92414063 10.8934375 3.8125 10.75 C2.18248047 10.55664062 2.18248047 10.55664062 0.51953125 10.359375 C-0.31191406 10.24078125 -1.14335937 10.1221875 -2 10 C-2.66 8.35 -3.32 6.7 -4 5 C-6.21081851 4.89459074 -6.21081851 4.89459074 -9 6 Z " fill="#3C3C3C" transform="translate(360,187)"/>
<path d="M0 0 C0 4.95 0 9.9 0 15 C-2.44140625 15.09765625 -4.8828125 15.1953125 -7.32421875 15.29296875 C-11.32904166 16.35117743 -12.63174355 17.56436036 -15 21 C-15.74893983 25.10165993 -15.79060981 29.15093256 -15.8125 33.3125 C-15.83763672 34.43462891 -15.86277344 35.55675781 -15.88867188 36.71289062 C-15.9474377 39.47488457 -15.97660684 42.23748 -16 45 C-21.28 45 -26.56 45 -32 45 C-32 30.48 -32 15.96 -32 1 C-28.04 1 -24.08 1 -20 1 C-19.67 2.32 -19.34 3.64 -19 5 C-18.46632812 4.6390625 -17.93265625 4.278125 -17.3828125 3.90625 C-11.26895822 0.09831308 -7.16634484 -0.50467217 0 0 Z " fill="#567271" transform="translate(228,185)"/>
<path d="M0 0 C4.73686696 2.79625107 8.29215892 6.06478659 10.78515625 11.05078125 C11.6270902 16.68854151 11.24437163 21.08603024 8.22265625 25.98828125 C5.2331806 29.94165325 2.68357465 31.80542064 -2.21484375 33.05078125 C-7.11720888 33.55704959 -11.92846278 33.71528834 -16.21484375 31.05078125 C-20.82864962 26.36929119 -23.37315312 23.10943573 -23.65234375 16.42578125 C-23.60571316 10.87674064 -22.60103606 7.74325445 -18.9140625 3.609375 C-13.57347704 -1.28923098 -6.77175527 -2.90218083 0 0 Z " fill="#FBFBFB" transform="translate(312.21484375,261.94921875)"/>
<path d="M0 0 C0.66 1.65 1.32 3.3 2 5 C3.93398808 5.27585566 5.87253909 5.51987415 7.8125 5.75 C8.89144531 5.88921875 9.97039062 6.0284375 11.08203125 6.171875 C14.11988342 6.32622588 14.11988342 6.32622588 15.88671875 4.015625 C16.25410156 3.35046875 16.62148438 2.6853125 17 2 C18.32 2.33 19.64 2.66 21 3 C20.731875 4.216875 20.46375 5.43375 20.1875 6.6875 C19.82452637 8.87212779 19.82452637 8.87212779 20 11 C22.31273442 13.8971941 22.31273442 13.8971941 25 16 C25 16.66 25 17.32 25 18 C28.96 17.505 28.96 17.505 33 17 C33.495 19.97 33.495 19.97 34 23 C31.03 23.495 31.03 23.495 28 24 C28 28.29 28 32.58 28 37 C29.32 37.66 30.64 38.32 32 39 C31.67 40.32 31.34 41.64 31 43 C29.96875 42.731875 28.9375 42.46375 27.875 42.1875 C23.66851272 41.97346904 23.66851272 41.97346904 20.6875 44.375 C19.800625 45.24125 18.91375 46.1075 18 47 C17.01 47.495 17.01 47.495 16 48 C16 50.31 16 52.62 16 55 C13.525 55.495 13.525 55.495 11 56 C10.34 54.35 9.68 52.7 9 51 C4.71 50.67 0.42 50.34 -4 50 C-4.33 51.32 -4.66 52.64 -5 54 C-6.32 53.67 -7.64 53.34 -9 53 C-8.8453125 51.205625 -8.8453125 51.205625 -8.6875 49.375 C-8.69909542 46.11668608 -9.12718767 44.14366194 -11.0625 41.5 C-13.84643108 38.64911829 -13.84643108 38.64911829 -17.8125 38.625 C-18.864375 38.74875 -19.91625 38.8725 -21 39 C-21.33 37.35 -21.66 35.7 -22 34 C-21.19175781 33.63261719 -20.38351562 33.26523438 -19.55078125 32.88671875 C-16.7222154 31.2163444 -16.7222154 31.2163444 -16.29296875 28.08203125 C-16.25816406 27.00308594 -16.22335937 25.92414063 -16.1875 24.8125 C-16.13980469 23.72582031 -16.09210938 22.63914063 -16.04296875 21.51953125 C-16.02878906 20.68808594 -16.01460938 19.85664063 -16 19 C-18.475 18.01 -18.475 18.01 -21 17 C-20.34 15.68 -19.68 14.36 -19 13 C-17.989375 13.28875 -16.97875 13.5775 -15.9375 13.875 C-11.82089876 14.00568575 -11.1407118 13.87462053 -8.0625 11.5 C-5.25433324 8.82973429 -5.02279522 8.20190048 -4.5625 4.125 C-4.706875 3.09375 -4.85125 2.0625 -5 1 C-2 0 -2 0 0 0 Z M-8.8125 18 C-11.24895025 21.24623894 -11.24895025 21.24623894 -12 25 C-12.12375 26.2375 -12.2475 27.475 -12.375 28.75 C-12.28093693 35.05222546 -8.78913679 39.25450069 -4.4375 43.5 C1.2023102 45.96100809 7.2257841 46.09397562 13.15625 44.375 C18.03868108 41.9766128 21.06637121 37.95758571 23 33 C24.03319528 27.70802418 23.5813704 23.35058896 20.9375 18.625 C18.21383145 14.87711069 15.48660254 12.34178768 11 11 C2.31396488 9.7862309 -2.92070779 11.42389198 -8.8125 18 Z " fill="#F3F3F3" transform="translate(356,192)"/>
<path d="M0 0 C6.4866993 3.47396604 10.64116705 8.08896468 13.20703125 15.0078125 C14.55966305 21.92894312 13.24086108 27.66058432 9.84375 33.7734375 C6.79286848 37.93836406 2.78963139 40.71651243 -1.79296875 43.0078125 C-9.9299231 43.80239766 -17.2998438 44.22124524 -23.98828125 38.93359375 C-27.03691777 35.68039504 -28.98097304 32.05244577 -30.79296875 28.0078125 C-31.12296875 27.3478125 -31.45296875 26.6878125 -31.79296875 26.0078125 C-32.56575302 19.19210862 -31.93949858 13.58656991 -27.79296875 8.0078125 C-20.11550241 -0.11844101 -11.08690835 -3.93856604 0 0 Z M-24.29296875 11.5703125 C-26.53534422 16.70908963 -26.55114186 21.48831224 -25.79296875 27.0078125 C-24.22856503 30.52443306 -24.22856503 30.52443306 -21.79296875 33.0078125 C-21.13296875 33.7709375 -20.47296875 34.5340625 -19.79296875 35.3203125 C-16.14254715 38.40035573 -11.78975293 38.36096156 -7.16796875 38.27734375 C-2.27551178 37.72211426 1.42574545 35.8842155 4.81640625 32.3125 C8.04114936 27.83771602 8.93145673 23.81546291 8.62890625 18.3359375 C7.59009264 12.60322535 3.79616874 9.22020874 -0.79296875 6.0078125 C-9.7959503 0.85527967 -17.62191955 4.73248707 -24.29296875 11.5703125 Z " fill="#3D3D3D" transform="translate(314.79296875,256.9921875)"/>
<path d="M0 0 C4.54147146 2.1431663 8.17643484 4.14317793 10 9 C10.72798272 13.65570345 10.42814156 17.14371687 8.3125 21.375 C4.73933663 25.43102328 2.53546184 26.80187589 -2.875 27.5 C-7.51243987 27.3243394 -10.80116808 25.28528684 -14 22 C-16.76685523 17.60070018 -16.65431076 13.03819284 -16 8 C-12.67458254 1.98866844 -6.82574353 -1.09211896 0 0 Z " fill="#FBFCFD" transform="translate(234,306)"/>
<path d="M0 0 C4.10746873 1.77367968 6.69875485 4.16459142 9 8 C9.72213354 11.95568707 9.36450604 15.0887349 7.875 18.8125 C5.07917704 22.07429345 2.28736773 23.58453001 -1.95703125 24.35546875 C-5.93677909 24.63701879 -8.30626653 24.16302617 -11.4375 21.625 C-15.33739871 17.62998181 -15.39074518 14.96998034 -15.359375 9.55078125 C-14.78039966 5.44131496 -13.00085071 3.78650423 -10 1 C-6.80436932 -0.59781534 -3.4765367 -0.36841911 0 0 Z " fill="#F9F9F9" transform="translate(365,208)"/>
<path d="M0 0 C2.9091534 1.26484931 4.46015566 2.25450067 6.3125 4.8125 C7.59164839 8.8825176 7.53041759 11.88864886 5.6875 15.75 C3.75607162 18.32523785 2.14752479 19.79585233 -1.0859375 20.37109375 C-5.2270859 20.49122945 -7.45400606 20.334282 -11.0625 18.125 C-13.79108983 13.72404866 -14.009303 10.046515 -13 5 C-9.6136626 -0.29115218 -5.88054703 -1.0951626 0 0 Z " fill="#F5F6F6" transform="translate(169,198)"/>
<path d="M0 0 C2.93721842 1.53246178 4.51634831 2.67066494 5.66796875 5.8359375 C6.40788441 9.66005607 6.09343104 11.7664224 4.625 15.4375 C1.45479915 18.53221988 -0.47436736 19.02474117 -4.80859375 19.24609375 C-8.13298239 18.87276668 -9.78806237 17.41930678 -12 15 C-13.55024464 11.89951072 -13.28992015 9.42105782 -13 6 C-9.30920537 0.34078157 -6.6962915 -0.56748233 0 0 Z " fill="#F4F4F5" transform="translate(429,197)"/>
<path d="M0 0 C0.33 0 0.66 0 1 0 C1 19.47 1 38.94 1 59 C14.53 59 28.06 59 42 59 C37 64 37 64 34.8125 66.125 C32.82343774 68.07041718 32.82343774 68.07041718 31 71 C28.8359375 71.29296875 28.8359375 71.29296875 26.375 71.1875 C25.55773437 71.16042969 24.74046875 71.13335937 23.8984375 71.10546875 C23.27195312 71.07066406 22.64546875 71.03585938 22 71 C21.01 68.69 20.02 66.38 19 64 C13.555 64.495 13.555 64.495 8 65 C8 64.34 8 63.68 8 63 C10.97 62.505 10.97 62.505 14 62 C14 61.34 14 60.68 14 60 C9.38 60 4.76 60 0 60 C0 40.2 0 20.4 0 0 Z " fill="#D1D7D7" transform="translate(284,171)"/>
<path d="M0 0 C0.47633136 6.19230769 0.47633136 6.19230769 -1.4375 9.4375 C-5.11840224 11.68195258 -8.78774056 11.86106961 -13 11 C-13.42796875 10.51015625 -13.8559375 10.0203125 -14.296875 9.515625 C-17.00641845 7.10437991 -20.22183137 7.42575714 -23.6875 7.3125 C-24.7403418 7.26125977 -24.7403418 7.26125977 -25.81445312 7.20898438 C-27.54241387 7.12670053 -29.27118072 7.0616676 -31 7 C-31.33 7.66 -31.66 8.32 -32 9 C-32 8.01 -32 7.02 -32 6 C-27.05 5.67 -22.1 5.34 -17 5 C-17 4.67 -17 4.34 -17 4 C-15.2365625 3.8453125 -15.2365625 3.8453125 -13.4375 3.6875 C-8.80921057 3.12848813 -4.43239348 0 0 0 Z " fill="#E8EBEB" transform="translate(434,226)"/>
<path d="M0 0 C8.25 0.33 16.5 0.66 25 1 C24.01 2.485 24.01 2.485 23 4 C22.01 3.67 21.02 3.34 20 3 C11.13623716 2.53291446 2.66395583 2.98261319 -6 5 C-6 4.34 -6 3.68 -6 3 C-4.02 2.67 -2.04 2.34 0 2 C0 1.34 0 0.68 0 0 Z " fill="#E8E7E7" transform="translate(298,231)"/>
<path d="M0 0 C0.33 1.32 0.66 2.64 1 4 C-2.24800861 5.92275982 -4.74394754 6.29702176 -8.5 6.3125 C-9.4384375 6.32925781 -10.376875 6.34601563 -11.34375 6.36328125 C-14 6 -14 6 -18 3 C-12.06 3 -6.12 3 0 3 C0 2.01 0 1.02 0 0 Z " fill="#DADEDE" transform="translate(127,227)"/>
<path d="M0 0 C0.33 0.66 0.66 1.32 1 2 C-0.65 2 -2.3 2 -4 2 C-4 2.66 -4 3.32 -4 4 C-5.93681161 4.08107583 -7.8745934 4.13922475 -9.8125 4.1875 C-10.89144531 4.22230469 -11.97039062 4.25710937 -13.08203125 4.29296875 C-16 4 -16 4 -19 1 C-12.73 0.67 -6.46 0.34 0 0 Z " fill="#D9DDDD" transform="translate(280,229)"/>
<path d="M0 0 C5.94 0.33 11.88 0.66 18 1 C13.46534653 4.4009901 13.46534653 4.4009901 9 4.3125 C8.154375 4.30863281 7.30875 4.30476562 6.4375 4.30078125 C3.88462271 3.98576274 2.20986065 3.28396996 0 2 C0 1.34 0 0.68 0 0 Z " fill="#D9DDDD" transform="translate(70,229)"/>
<path d="M0 0 C1.32 0.99 2.64 1.98 4 3 C3.34 7.95 2.68 12.9 2 18 C1.67 18 1.34 18 1 18 C0.8046875 15.94921875 0.609375 13.8984375 0.4140625 11.84765625 C0.20910156 10.93306641 0.20910156 10.93306641 0 10 C-0.66 9.67 -1.32 9.34 -2 9 C-1.34 6.03 -0.68 3.06 0 0 Z " fill="#DDE1E1" transform="translate(138,193)"/>
<path d="M0 0 C5.28 0 10.56 0 16 0 C13 3 13 3 10.51953125 3.29296875 C9.62621094 3.25816406 8.73289063 3.22335938 7.8125 3.1875 C6.91144531 3.16042969 6.01039063 3.13335937 5.08203125 3.10546875 C4.05142578 3.05326172 4.05142578 3.05326172 3 3 C3 2.34 3 1.68 3 1 C2.01 0.67 1.02 0.34 0 0 Z " fill="#D8DCDD" transform="translate(232,230)"/>
<path d="M0 0 C0.33 0 0.66 0 1 0 C1 4.29 1 8.58 1 13 C0.01 13.495 0.01 13.495 -1 14 C-1.33 13.34 -1.66 12.68 -2 12 C-2.99 12.495 -2.99 12.495 -4 13 C-3.71517632 11.58194169 -3.42181856 10.16559621 -3.125 8.75 C-2.96257812 7.96109375 -2.80015625 7.1721875 -2.6328125 6.359375 C-2.00849925 4.03168856 -1.15161458 2.10968048 0 0 Z " fill="#313131" transform="translate(326,273)"/>
<path d="M0 0 C5.28 0 10.56 0 16 0 C11.44615385 3.41538462 11.44615385 3.41538462 8 3.375 C7.34 3.38273438 6.68 3.39046875 6 3.3984375 C4 3 4 3 0 0 Z " fill="#D8DCDC" transform="translate(196,230)"/>
<path d="M0 0 C0.99 0.33 1.98 0.66 3 1 C1.02 2.98 -0.96 4.96 -3 7 C-3.66 6.67 -4.32 6.34 -5 6 C-3.35 4.02 -1.7 2.04 0 0 Z " fill="#5E7877" transform="translate(408,188)"/>
<path d="M0 0 C0.66 0.33 1.32 0.66 2 1 C2.625 3.5625 2.625 3.5625 3 6 C1.35 6.33 -0.3 6.66 -2 7 C-1.34 4.69 -0.68 2.38 0 0 Z " fill="#C8D0D0" transform="translate(98,198)"/>
</svg>
