<?xml version="1.0" encoding="UTF-8"?>
<svg xmlns="http://www.w3.org/2000/svg" xmlns:xlink="http://www.w3.org/1999/xlink" width="100px" height="100px" viewBox="0 0 100 100" version="1.1">
<g id="surface1">
<path style=" stroke:none;fill-rule:nonzero;fill:rgb(99.607843%,99.607843%,99.607843%);fill-opacity:1;" d="M 0 0 C 33 0 65.996094 0 100 0 C 100 33 100 65.996094 100 100 C 67 100 34.003906 100 0 100 C 0 67 0 34.003906 0 0 Z M 0 0 "/>
<path style=" stroke:none;fill-rule:nonzero;fill:rgb(98.823529%,79.215688%,34.117648%);fill-opacity:1;" d="M 58.222656 65.085938 C 59.25 65.28125 60.164062 65.632812 61.132812 66.015625 C 61.132812 66.726562 61.132812 67.429688 61.132812 68.164062 C 61.453125 68.289062 61.777344 68.417969 62.109375 68.554688 C 62.234375 68.664062 62.363281 68.769531 62.5 68.886719 C 62.882812 69.1875 62.882812 69.1875 63.359375 69.09375 C 63.523438 69.042969 63.691406 68.992188 63.867188 68.945312 C 64.257812 68.875 64.648438 68.808594 65.039062 68.75 C 65.292969 69.082031 65.554688 69.421875 65.8125 69.765625 C 65.945312 69.953125 66.09375 70.136719 66.242188 70.332031 C 66.59375 70.878906 66.765625 71.230469 66.796875 71.875 C 66.554688 72.0625 66.554688 72.0625 66.308594 72.257812 C 65.710938 72.988281 65.742188 73.300781 65.761719 74.226562 C 65.839844 75.195312 65.839844 75.195312 66.375 75.9375 C 66.777344 76.132812 67.148438 76.269531 67.578125 76.367188 C 67.648438 77.585938 67.46875 78.554688 66.992188 79.6875 C 66.921875 79.757812 66.867188 79.8125 66.796875 79.882812 C 66.492188 79.882812 66.191406 79.882812 65.878906 79.882812 C 65.253906 79.941406 64.929688 80.007812 64.445312 80.410156 C 63.945312 81.0625 63.664062 81.554688 63.691406 82.382812 C 63.78125 82.871094 63.90625 83.320312 64.0625 83.789062 C 62.0625 85.546875 62.0625 85.546875 61.09375 85.546875 C 60.742188 85.351562 60.742188 85.351562 60.421875 84.953125 C 59.785156 84.421875 59.355469 84.492188 58.546875 84.523438 C 58.300781 84.53125 58.046875 84.53125 57.792969 84.539062 C 57.609375 84.550781 57.421875 84.5625 57.226562 84.570312 C 57.167969 84.757812 57.109375 84.929688 57.050781 85.117188 C 56.835938 85.742188 56.835938 85.742188 56.445312 86.328125 C 55.1875 86.570312 54.082031 86.25 52.929688 85.742188 C 52.929688 85.617188 52.9375 85.488281 52.9375 85.351562 C 52.921875 84.609375 52.890625 84.015625 52.453125 83.390625 C 51.84375 82.851562 51.425781 82.597656 50.59375 82.65625 C 50.390625 82.6875 50.195312 82.714844 49.992188 82.753906 C 48.953125 82.898438 48.953125 82.898438 48.378906 82.492188 C 47.695312 81.640625 47.179688 80.8125 47.265625 79.6875 C 47.421875 79.550781 47.585938 79.414062 47.753906 79.277344 C 48.3125 78.757812 48.3125 78.757812 48.261719 78.085938 C 48.210938 77.441406 48.144531 76.804688 48.046875 76.171875 C 47.179688 75.78125 47.179688 75.78125 46.289062 75.390625 C 46.210938 74.199219 46.464844 73.195312 46.875 72.070312 C 47.1875 71.757812 47.558594 71.867188 47.988281 71.867188 C 48.789062 71.789062 49.210938 71.640625 49.746094 71.035156 C 50.234375 70.28125 50.203125 69.804688 50.058594 68.9375 C 49.914062 67.898438 49.914062 67.898438 50.320312 67.324219 C 51.171875 66.640625 52 66.125 53.125 66.210938 C 53.261719 66.375 53.398438 66.542969 53.535156 66.710938 C 54.054688 67.246094 54.054688 67.246094 54.6875 67.21875 C 55.96875 67.117188 55.96875 67.117188 56.972656 66.414062 C 57.117188 66.140625 57.265625 65.859375 57.402344 65.578125 C 57.617188 65.234375 57.617188 65.234375 58.222656 65.085938 Z M 58.222656 65.085938 "/>
<path style=" stroke:none;fill-rule:nonzero;fill:rgb(17.254902%,52.156866%,39.607844%);fill-opacity:1;" d="M 33.984375 69.726562 C 35.078125 69.804688 36.074219 69.902344 37.109375 70.3125 C 37.109375 70.429688 37.109375 70.546875 37.101562 70.664062 C 37.128906 71.609375 37.128906 71.609375 37.585938 72.402344 C 38.117188 72.804688 38.523438 73.027344 39.179688 73.125 C 39.667969 73.046875 40.148438 72.960938 40.625 72.851562 C 42.039062 74.550781 42.039062 74.550781 41.992188 75.585938 C 41.867188 75.703125 41.726562 75.820312 41.601562 75.9375 C 41.152344 76.347656 41.152344 76.347656 41.179688 76.953125 C 41.21875 77.265625 41.21875 77.265625 41.257812 77.585938 C 41.289062 77.804688 41.308594 78.007812 41.335938 78.222656 C 41.359375 78.390625 41.386719 78.546875 41.40625 78.710938 C 41.855469 78.90625 42.304688 79.101562 42.773438 79.296875 C 42.851562 80.460938 42.597656 81.335938 42.1875 82.421875 C 42.011719 82.421875 42.011719 82.421875 41.828125 82.421875 C 40.75 82.46875 40.75 82.46875 39.941406 83.15625 C 39.460938 84.1875 39.414062 84.824219 39.648438 85.9375 C 38.78125 86.640625 38.027344 87.226562 36.914062 87.5 C 36.796875 87.335938 36.6875 87.167969 36.570312 87 C 36.152344 86.5625 35.96875 86.523438 35.351562 86.503906 C 34.757812 86.554688 34.179688 86.621094 33.59375 86.71875 C 33.46875 87.167969 33.339844 87.617188 33.203125 88.085938 C 32.070312 88.132812 31.152344 88.054688 30.078125 87.695312 C 30.078125 87.050781 30.078125 86.40625 30.078125 85.742188 C 29.929688 85.695312 29.785156 85.632812 29.640625 85.585938 C 29.101562 85.351562 29.101562 85.351562 28.703125 85.019531 C 28.339844 84.71875 28.339844 84.71875 27.9375 84.8125 C 27.8125 84.863281 27.675781 84.914062 27.539062 84.960938 C 27.21875 85.03125 26.882812 85.097656 26.5625 85.15625 C 25.917969 84.421875 25.34375 83.75 25 82.8125 C 25.148438 82.304688 25.320312 82.089844 25.722656 81.75 C 25.800781 81.648438 25.890625 81.554688 25.976562 81.445312 C 25.917969 80.984375 25.917969 80.984375 25.78125 80.46875 C 25.773438 80.007812 25.773438 79.5625 25.78125 79.101562 C 25.625 79.070312 25.476562 79.042969 25.3125 79.015625 C 24.804688 78.90625 24.804688 78.90625 24.414062 78.710938 C 24.34375 77.441406 24.40625 76.523438 25 75.390625 C 25.578125 75.390625 26.164062 75.390625 26.757812 75.390625 C 26.804688 75.242188 26.867188 75.085938 26.914062 74.941406 C 27.148438 74.414062 27.148438 74.414062 27.460938 74.148438 C 27.558594 74.042969 27.648438 73.9375 27.734375 73.828125 C 27.703125 73.367188 27.703125 73.367188 27.578125 72.890625 C 27.5 72.363281 27.5 72.363281 27.539062 71.875 C 28.09375 71.164062 28.820312 70.820312 29.640625 70.488281 C 29.785156 70.488281 29.929688 70.5 30.078125 70.507812 C 30.242188 70.703125 30.242188 70.703125 30.410156 70.898438 C 31.015625 71.425781 31.386719 71.367188 32.179688 71.335938 C 32.402344 71.328125 32.636719 71.328125 32.871094 71.320312 C 33.046875 71.308594 33.222656 71.296875 33.398438 71.289062 C 33.457031 71.101562 33.515625 70.917969 33.585938 70.722656 C 33.789062 70.117188 33.789062 70.117188 33.984375 69.726562 Z M 33.984375 69.726562 "/>
<path style=" stroke:none;fill-rule:nonzero;fill:rgb(97.254902%,97.254902%,97.254902%);fill-opacity:1;" d="M 59.179688 45.703125 C 59.375 46.152344 59.570312 46.601562 59.765625 47.070312 C 60.359375 47.140625 60.929688 47.179688 61.523438 47.070312 C 62.039062 46.515625 62.039062 46.515625 62.304688 45.898438 C 63.015625 46.035156 63.574219 46.335938 64.210938 46.6875 C 64.40625 46.796875 64.589844 46.90625 64.796875 47.011719 C 64.941406 47.101562 65.085938 47.179688 65.234375 47.265625 C 65.125 47.792969 65.019531 48.320312 64.890625 48.847656 C 64.773438 49.414062 64.773438 49.414062 65.125 49.757812 C 65.226562 49.835938 65.320312 49.921875 65.429688 50 C 65.429688 50.125 65.429688 50.253906 65.429688 50.390625 C 65.605469 50.320312 65.773438 50.253906 65.957031 50.1875 C 66.632812 49.992188 66.914062 50.039062 67.578125 50.195312 C 67.714844 50.554688 67.84375 50.929688 67.96875 51.289062 C 68.039062 51.492188 68.117188 51.699219 68.183594 51.914062 C 68.359375 52.539062 68.390625 53.054688 68.359375 53.710938 C 67.910156 53.90625 67.460938 54.101562 66.992188 54.296875 C 66.921875 54.875 66.867188 55.460938 66.796875 56.054688 C 67.246094 56.308594 67.695312 56.570312 68.164062 56.835938 C 68.027344 57.546875 67.726562 58.105469 67.375 58.742188 C 67.265625 58.9375 67.15625 59.121094 67.050781 59.328125 C 66.960938 59.472656 66.882812 59.617188 66.796875 59.765625 C 65.671875 59.589844 65.671875 59.589844 65.226562 59.414062 C 64.796875 59.335938 64.796875 59.335938 64.296875 59.648438 C 63.828125 60.097656 63.828125 60.097656 63.847656 60.59375 C 63.898438 61.046875 63.964844 61.476562 64.0625 61.914062 C 61.621094 63 61.621094 63 60.351562 63.085938 C 59.765625 61.992188 59.765625 61.992188 59.765625 61.328125 C 59.160156 61.328125 58.59375 61.367188 58.007812 61.523438 C 57.5 62.089844 57.5 62.089844 57.226562 62.695312 C 56.476562 62.578125 55.890625 62.351562 55.214844 62 C 55.039062 61.914062 54.863281 61.828125 54.6875 61.726562 C 54.492188 61.632812 54.492188 61.632812 54.296875 61.523438 C 54.472656 60.203125 54.472656 60.203125 54.648438 59.726562 C 54.726562 59.34375 54.726562 59.34375 54.433594 58.9375 C 53.640625 58.417969 52.871094 58.535156 51.953125 58.59375 C 51.804688 58.164062 51.671875 57.734375 51.523438 57.304688 C 51.398438 56.933594 51.257812 56.5625 51.125 56.203125 C 50.96875 55.617188 51.007812 55.265625 51.171875 54.6875 C 51.621094 54.5625 52.070312 54.433594 52.539062 54.296875 C 52.609375 53.71875 52.664062 53.132812 52.734375 52.539062 C 52.34375 52.414062 51.960938 52.285156 51.5625 52.148438 C 51.367188 51.523438 51.347656 51.230469 51.570312 50.617188 C 51.679688 50.429688 51.789062 50.242188 51.894531 50.046875 C 51.992188 49.863281 52.101562 49.667969 52.195312 49.484375 C 52.539062 49.023438 52.539062 49.023438 52.929688 48.835938 C 53.320312 48.828125 53.320312 48.828125 53.90625 49.21875 C 54.578125 49.148438 54.890625 49.015625 55.46875 48.632812 C 55.539062 48.117188 55.539062 48.117188 55.507812 47.539062 C 55.5 47.335938 55.5 47.140625 55.488281 46.945312 C 55.476562 46.71875 55.476562 46.71875 55.46875 46.484375 C 55.90625 46.359375 56.335938 46.21875 56.777344 46.09375 C 57.140625 45.984375 57.140625 45.984375 57.507812 45.878906 C 58.105469 45.722656 58.574219 45.664062 59.179688 45.703125 Z M 59.179688 45.703125 "/>
<path style=" stroke:none;fill-rule:nonzero;fill:rgb(34.117648%,44.705883%,44.313726%);fill-opacity:1;" d="M 10.15625 33.398438 C 11.320312 33.398438 12.480469 33.398438 13.671875 33.398438 C 14.171875 34.578125 14.601562 35.773438 14.992188 36.992188 C 15.03125 37.117188 15.078125 37.257812 15.117188 37.390625 C 15.332031 38.054688 15.429688 38.554688 15.429688 39.257812 C 15.554688 39.257812 15.683594 39.257812 15.820312 39.257812 C 15.898438 38.886719 15.898438 38.886719 15.96875 38.515625 C 16.210938 37.429688 16.5625 36.386719 16.914062 35.34375 C 16.984375 35.15625 17.039062 34.960938 17.109375 34.773438 C 17.265625 34.316406 17.421875 33.859375 17.578125 33.398438 C 18.671875 33.398438 19.765625 33.398438 20.898438 33.398438 C 21.453125 34.71875 21.914062 36.046875 22.3125 37.414062 C 22.5 38.039062 22.6875 38.515625 23.046875 39.0625 C 23.625 37.195312 24.210938 35.320312 24.804688 33.398438 C 25.96875 33.398438 27.128906 33.398438 28.320312 33.398438 C 28.039062 34.773438 27.648438 36.101562 27.207031 37.441406 C 27.070312 37.871094 26.933594 38.300781 26.789062 38.730469 C 26.6875 39.054688 26.6875 39.054688 26.582031 39.382812 C 26.25 40.410156 25.917969 41.4375 25.59375 42.460938 C 25.488281 42.804688 25.371094 43.15625 25.265625 43.507812 C 25.214844 43.652344 25.164062 43.796875 25.125 43.953125 C 25.019531 44.277344 24.914062 44.601562 24.804688 44.921875 C 23.640625 44.921875 22.480469 44.921875 21.289062 44.921875 C 21.035156 44.210938 20.78125 43.484375 20.527344 42.773438 C 20.460938 42.570312 20.390625 42.375 20.3125 42.167969 C 19.929688 41.074219 19.589844 39.992188 19.335938 38.867188 C 19.304688 38.976562 19.265625 39.070312 19.226562 39.179688 C 18.847656 40.34375 18.445312 41.503906 18.046875 42.664062 C 17.976562 42.84375 17.921875 43.015625 17.859375 43.195312 C 17.804688 43.359375 17.742188 43.523438 17.675781 43.703125 C 17.625 43.847656 17.578125 44.003906 17.519531 44.160156 C 17.382812 44.53125 17.382812 44.53125 17.1875 44.921875 C 16.09375 44.921875 15 44.921875 13.867188 44.921875 C 13.484375 44.023438 13.164062 43.222656 12.890625 42.296875 C 12.6875 41.609375 12.480469 40.929688 12.21875 40.253906 C 11.359375 38.007812 10.710938 35.742188 10.15625 33.398438 Z M 10.15625 33.398438 "/>
<path style=" stroke:none;fill-rule:nonzero;fill:rgb(23.529412%,23.529412%,23.529412%);fill-opacity:1;" d="M 70.3125 36.523438 C 70.410156 37.101562 70.410156 37.101562 70.507812 37.695312 C 70.957031 37.695312 71.40625 37.695312 71.875 37.695312 C 72 37.375 72.128906 37.050781 72.265625 36.71875 C 73.367188 36.804688 73.945312 37.050781 74.804688 37.695312 C 74.765625 37.9375 74.726562 38.183594 74.6875 38.429688 C 74.601562 39.082031 74.601562 39.484375 75 40.039062 C 75.109375 39.96875 75.214844 39.902344 75.332031 39.835938 C 75.890625 39.609375 76.179688 39.707031 76.757812 39.84375 C 76.867188 40.15625 76.960938 40.460938 77.0625 40.773438 C 77.117188 40.945312 77.179688 41.113281 77.234375 41.289062 C 77.34375 41.816406 77.335938 42.078125 77.148438 42.578125 C 76.953125 42.773438 76.953125 42.773438 76.453125 42.78125 C 76.296875 42.78125 76.140625 42.773438 75.976562 42.773438 C 76.023438 43.757812 76.023438 43.757812 76.570312 44.523438 C 76.699219 44.589844 76.828125 44.65625 76.953125 44.726562 C 76.855469 45.761719 76.515625 46.398438 75.976562 47.265625 C 75.828125 47.234375 75.683594 47.195312 75.539062 47.167969 C 74.960938 47.050781 74.960938 47.050781 74.21875 47.070312 C 73.859375 47.6875 73.789062 48.117188 73.828125 48.828125 C 71.992188 49.726562 71.992188 49.726562 71.09375 49.609375 C 70.96875 49.21875 70.839844 48.835938 70.703125 48.4375 C 70.148438 48.359375 70.148438 48.359375 69.53125 48.4375 C 69.148438 48.90625 69.148438 48.90625 68.945312 49.414062 C 67.9375 49.316406 67.226562 48.789062 66.40625 48.242188 C 66.464844 47.851562 66.523438 47.46875 66.582031 47.078125 C 66.632812 46.640625 66.632812 46.640625 66.40625 46.09375 C 66.152344 46.132812 65.90625 46.171875 65.644531 46.210938 C 65.226562 46.289062 65.226562 46.289062 64.84375 46.289062 C 64.179688 45.625 64.070312 44.785156 64.042969 43.859375 C 64.042969 43.691406 64.054688 43.523438 64.0625 43.359375 C 64.382812 43.234375 64.707031 43.105469 65.039062 42.96875 C 65.109375 42.414062 65.109375 42.414062 65.039062 41.796875 C 64.667969 41.425781 64.667969 41.425781 64.257812 41.210938 C 64.355469 40.203125 64.882812 39.492188 65.429688 38.671875 C 65.578125 38.730469 65.734375 38.789062 65.878906 38.859375 C 66.25 39.003906 66.621094 39.132812 66.992188 39.257812 C 66.992188 39.132812 66.992188 39.003906 66.992188 38.867188 C 67.117188 38.796875 67.246094 38.742188 67.382812 38.671875 C 67.382812 38.15625 67.382812 37.636719 67.382812 37.109375 C 67.570312 37.050781 67.570312 37.050781 67.753906 36.992188 C 67.910156 36.933594 68.078125 36.882812 68.242188 36.828125 C 68.398438 36.777344 68.554688 36.726562 68.71875 36.671875 C 69.6875 36.335938 69.6875 36.335938 70.3125 36.523438 Z M 70.3125 36.523438 "/>
<path style=" stroke:none;fill-rule:nonzero;fill:rgb(34.901962%,45.490196%,45.09804%);fill-opacity:1;" d="M 84.609375 36.425781 C 84.921875 36.582031 85.234375 36.75 85.546875 36.914062 C 85.617188 36.660156 85.671875 36.398438 85.742188 36.132812 C 86.515625 36.132812 87.285156 36.132812 88.085938 36.132812 C 88.105469 37.460938 88.125 38.796875 88.132812 40.125 C 88.144531 40.578125 88.15625 41.023438 88.164062 41.484375 C 88.171875 42.128906 88.171875 42.78125 88.183594 43.4375 C 88.183594 43.640625 88.195312 43.835938 88.195312 44.042969 C 88.195312 45.632812 87.773438 46.765625 86.671875 47.929688 C 85.195312 48.789062 83.730469 49.023438 82.03125 48.828125 C 80.644531 48.46875 79.628906 47.898438 78.847656 46.671875 C 78.710938 46.289062 78.710938 46.289062 78.710938 45.507812 C 79.1875 45.488281 79.65625 45.476562 80.136719 45.46875 C 80.273438 45.46875 80.410156 45.460938 80.546875 45.460938 C 81.5625 45.4375 81.5625 45.4375 81.972656 45.800781 C 82.0625 45.898438 82.140625 45.996094 82.226562 46.09375 C 82.648438 46.179688 82.648438 46.179688 83.105469 46.171875 C 83.25 46.171875 83.40625 46.171875 83.5625 46.171875 C 84.09375 46.074219 84.257812 45.9375 84.570312 45.507812 C 84.71875 44.804688 84.71875 44.804688 84.765625 44.140625 C 84.550781 44.238281 84.328125 44.335938 84.101562 44.433594 C 82.859375 44.890625 81.632812 44.960938 80.410156 44.414062 C 79.382812 43.820312 78.652344 42.929688 78.222656 41.816406 C 77.910156 40.539062 77.929688 39.277344 78.535156 38.09375 C 79.960938 35.878906 82.234375 35.351562 84.609375 36.425781 Z M 84.609375 36.425781 "/>
<path style=" stroke:none;fill-rule:nonzero;fill:rgb(99.607843%,99.607843%,98.823529%);fill-opacity:1;" d="M 60.007812 71.40625 C 61.320312 72.507812 62.15625 73.496094 62.351562 75.253906 C 62.429688 76.835938 61.972656 78.195312 61.015625 79.453125 C 60.007812 80.539062 58.417969 81.257812 56.945312 81.335938 C 55.507812 81.320312 54.199219 80.683594 53.125 79.734375 C 51.84375 78.3125 51.601562 76.894531 51.671875 75.039062 C 51.777344 73.671875 52.382812 72.792969 53.351562 71.855469 C 55.265625 70.253906 57.898438 69.929688 60.007812 71.40625 Z M 60.007812 71.40625 "/>
<path style=" stroke:none;fill-rule:nonzero;fill:rgb(34.509805%,45.490196%,45.09804%);fill-opacity:1;" d="M 34.796875 36.308594 C 36.164062 37.128906 37.070312 38.09375 37.5 39.648438 C 37.675781 40.984375 37.34375 42.167969 36.71875 43.359375 C 36.125 44.054688 35.421875 44.570312 34.570312 44.921875 C 34.316406 44.921875 34.054688 44.921875 33.789062 44.921875 C 33.789062 45.046875 33.789062 45.175781 33.789062 45.3125 C 31.972656 45.421875 30.429688 45.46875 28.90625 44.335938 C 27.960938 43.46875 27.414062 42.617188 27.273438 41.308594 C 27.226562 38.828125 27.226562 38.828125 28.007812 37.820312 C 29.785156 36.007812 32.363281 35.203125 34.796875 36.308594 Z M 34.796875 36.308594 "/>
<path style=" stroke:none;fill-rule:nonzero;fill:rgb(48.235294%,64.313728%,80.392158%);fill-opacity:1;" d="M 45.3125 57.226562 C 45.890625 57.296875 46.476562 57.351562 47.070312 57.421875 C 47.101562 57.695312 47.101562 57.695312 47.128906 57.988281 C 47.207031 58.652344 47.207031 58.652344 47.851562 58.984375 C 48.078125 58.976562 48.300781 58.964844 48.535156 58.964844 C 49.21875 58.984375 49.21875 58.984375 49.609375 59.296875 C 49.875 59.929688 49.765625 60.28125 49.609375 60.9375 C 49.539062 61.398438 49.484375 61.84375 49.414062 62.304688 C 49.902344 62.5 49.902344 62.5 50.390625 62.695312 C 50.265625 63.273438 50.136719 63.859375 50 64.453125 C 49.609375 64.453125 49.226562 64.453125 48.828125 64.453125 C 48.796875 64.695312 48.769531 64.941406 48.742188 65.195312 C 48.679688 65.710938 48.601562 66.101562 48.4375 66.601562 C 47.988281 66.953125 47.988281 66.953125 47.460938 67.1875 C 47.089844 67.03125 47.089844 67.03125 46.679688 66.796875 C 46.21875 66.777344 45.773438 66.777344 45.3125 66.796875 C 45.1875 67.050781 45.058594 67.3125 44.921875 67.578125 C 43.601562 67.597656 43.601562 67.597656 43.164062 67.382812 C 43.164062 66.992188 43.164062 66.609375 43.164062 66.210938 C 42.609375 65.859375 42.363281 65.820312 41.6875 65.859375 C 41.464844 65.851562 41.242188 65.828125 41.015625 65.820312 C 40.546875 65.265625 40.421875 64.960938 40.460938 64.238281 C 40.5 64.03125 40.546875 63.828125 40.585938 63.613281 C 40.632812 63.398438 40.671875 63.195312 40.710938 62.976562 C 40.75 62.820312 40.78125 62.664062 40.820312 62.5 C 40.332031 62.304688 40.332031 62.304688 39.84375 62.109375 C 39.914062 61.660156 39.96875 61.210938 40.039062 60.742188 C 40.226562 60.695312 40.410156 60.632812 40.605469 60.585938 C 41.257812 60.398438 41.257812 60.398438 41.601562 59.765625 C 41.582031 59.539062 41.570312 59.328125 41.554688 59.09375 C 41.570312 58.867188 41.582031 58.632812 41.601562 58.398438 C 42.207031 57.871094 42.546875 57.617188 43.359375 57.617188 C 43.429688 57.742188 43.484375 57.871094 43.554688 58.007812 C 44.070312 58.007812 44.589844 58.007812 45.117188 58.007812 C 45.1875 57.753906 45.242188 57.492188 45.3125 57.226562 Z M 45.3125 57.226562 "/>
<path style=" stroke:none;fill-rule:nonzero;fill:rgb(33.725491%,44.705883%,44.313726%);fill-opacity:1;" d="M 45.3125 32.8125 C 46.347656 32.8125 47.375 32.8125 48.4375 32.8125 C 48.4375 34.875 48.4375 36.933594 48.4375 39.0625 C 49.109375 38.964844 49.109375 38.964844 49.804688 38.867188 C 50.136719 38.320312 50.136719 38.320312 50.253906 37.929688 C 50.449219 37.3125 50.722656 36.726562 50.976562 36.132812 C 52.070312 36.132812 53.164062 36.132812 54.296875 36.132812 C 54.082031 37.585938 53.640625 38.730469 52.960938 40.039062 C 52.695312 40.710938 52.6875 40.929688 52.929688 41.601562 C 53.203125 42.117188 53.507812 42.609375 53.820312 43.105469 C 54.6875 44.484375 54.6875 44.484375 54.6875 44.921875 C 53.46875 44.921875 52.234375 44.921875 50.976562 44.921875 C 50.253906 43.46875 50.253906 43.46875 50.039062 43.007812 C 49.96875 42.890625 49.914062 42.773438 49.851562 42.65625 C 49.796875 42.53125 49.726562 42.414062 49.667969 42.285156 C 49.367188 41.875 49.367188 41.875 48.4375 41.796875 C 48.4375 42.832031 48.4375 43.859375 48.4375 44.921875 C 47.402344 44.921875 46.375 44.921875 45.3125 44.921875 C 45.3125 40.929688 45.3125 36.933594 45.3125 32.8125 Z M 45.3125 32.8125 "/>
<path style=" stroke:none;fill-rule:nonzero;fill:rgb(23.921569%,23.921569%,23.921569%);fill-opacity:1;" d="M 59.179688 45.703125 C 59.375 46.152344 59.570312 46.601562 59.765625 47.070312 C 60.359375 47.140625 60.929688 47.179688 61.523438 47.070312 C 62.039062 46.515625 62.039062 46.515625 62.304688 45.898438 C 63.015625 46.035156 63.574219 46.335938 64.210938 46.6875 C 64.40625 46.796875 64.589844 46.90625 64.796875 47.011719 C 64.941406 47.101562 65.085938 47.179688 65.234375 47.265625 C 65.125 47.792969 65.019531 48.320312 64.890625 48.847656 C 64.773438 49.414062 64.773438 49.414062 65.125 49.757812 C 65.226562 49.835938 65.320312 49.921875 65.429688 50 C 65.429688 50.125 65.429688 50.253906 65.429688 50.390625 C 65.605469 50.320312 65.773438 50.253906 65.957031 50.1875 C 66.632812 49.992188 66.914062 50.039062 67.578125 50.195312 C 67.714844 50.554688 67.84375 50.929688 67.96875 51.289062 C 68.039062 51.492188 68.117188 51.699219 68.183594 51.914062 C 68.359375 52.539062 68.390625 53.054688 68.359375 53.710938 C 67.910156 53.90625 67.460938 54.101562 66.992188 54.296875 C 66.921875 54.875 66.867188 55.460938 66.796875 56.054688 C 67.246094 56.308594 67.695312 56.570312 68.164062 56.835938 C 68.027344 57.546875 67.726562 58.105469 67.375 58.742188 C 67.265625 58.9375 67.15625 59.121094 67.050781 59.328125 C 66.960938 59.472656 66.882812 59.617188 66.796875 59.765625 C 65.671875 59.589844 65.671875 59.589844 65.226562 59.414062 C 64.796875 59.335938 64.796875 59.335938 64.296875 59.648438 C 63.828125 60.097656 63.828125 60.097656 63.847656 60.59375 C 63.898438 61.046875 63.964844 61.476562 64.0625 61.914062 C 61.621094 63 61.621094 63 60.351562 63.085938 C 59.765625 61.992188 59.765625 61.992188 59.765625 61.328125 C 59.160156 61.328125 58.59375 61.367188 58.007812 61.523438 C 57.5 62.089844 57.5 62.089844 57.226562 62.695312 C 56.476562 62.578125 55.890625 62.351562 55.214844 62 C 55.039062 61.914062 54.863281 61.828125 54.6875 61.726562 C 54.492188 61.632812 54.492188 61.632812 54.296875 61.523438 C 54.472656 60.203125 54.472656 60.203125 54.648438 59.726562 C 54.726562 59.34375 54.726562 59.34375 54.433594 58.9375 C 53.640625 58.417969 52.871094 58.535156 51.953125 58.59375 C 51.804688 58.164062 51.671875 57.734375 51.523438 57.304688 C 51.398438 56.933594 51.257812 56.5625 51.125 56.203125 C 50.96875 55.617188 51.007812 55.265625 51.171875 54.6875 C 51.621094 54.5625 52.070312 54.433594 52.539062 54.296875 C 52.609375 53.71875 52.664062 53.132812 52.734375 52.539062 C 52.34375 52.414062 51.960938 52.285156 51.5625 52.148438 C 51.367188 51.523438 51.347656 51.230469 51.570312 50.617188 C 51.679688 50.429688 51.789062 50.242188 51.894531 50.046875 C 51.992188 49.863281 52.101562 49.667969 52.195312 49.484375 C 52.539062 49.023438 52.539062 49.023438 52.929688 48.835938 C 53.320312 48.828125 53.320312 48.828125 53.90625 49.21875 C 54.578125 49.148438 54.890625 49.015625 55.46875 48.632812 C 55.539062 48.117188 55.539062 48.117188 55.507812 47.539062 C 55.5 47.335938 55.5 47.140625 55.488281 46.945312 C 55.476562 46.71875 55.476562 46.71875 55.46875 46.484375 C 55.90625 46.359375 56.335938 46.21875 56.777344 46.09375 C 57.140625 45.984375 57.140625 45.984375 57.507812 45.878906 C 58.105469 45.722656 58.574219 45.664062 59.179688 45.703125 Z M 56.445312 47.265625 C 56.492188 47.429688 56.492188 47.429688 56.542969 47.597656 C 56.648438 48.105469 56.699219 48.507812 56.640625 49.023438 C 56.21875 49.628906 55.722656 50.03125 55.078125 50.390625 C 54.367188 50.5 53.808594 50.398438 53.125 50.195312 C 52.804688 50.546875 52.804688 50.546875 52.539062 50.976562 C 52.703125 51.6875 52.703125 51.6875 53.710938 52.148438 C 53.640625 53.117188 53.585938 54.082031 53.515625 55.078125 C 53.066406 55.203125 52.617188 55.332031 52.148438 55.46875 C 52.273438 56.046875 52.402344 56.632812 52.539062 57.226562 C 53.066406 57.34375 53.476562 57.429688 54.015625 57.363281 C 54.171875 57.382812 54.328125 57.402344 54.492188 57.421875 C 54.902344 57.96875 54.902344 57.96875 55.273438 58.59375 C 55.449219 58.742188 55.449219 58.742188 55.625 58.898438 C 55.703125 58.992188 55.78125 59.082031 55.859375 59.179688 C 55.8125 59.65625 55.8125 59.65625 55.664062 60.15625 C 55.625 60.304688 55.59375 60.460938 55.554688 60.605469 C 55.527344 60.710938 55.5 60.828125 55.46875 60.9375 C 56.101562 61.375 56.101562 61.375 56.835938 61.523438 C 57.03125 61.132812 57.226562 60.75 57.421875 60.351562 C 58.390625 60.421875 59.355469 60.476562 60.351562 60.546875 C 60.546875 60.996094 60.742188 61.445312 60.9375 61.914062 C 61.582031 61.71875 62.226562 61.523438 62.890625 61.328125 C 62.820312 61.101562 62.753906 60.878906 62.6875 60.644531 C 62.597656 60.019531 62.65625 59.824219 63.039062 59.304688 C 64.1875 58.203125 64.1875 58.203125 65.117188 58.195312 C 65.28125 58.261719 65.449219 58.328125 65.625 58.398438 C 65.917969 58.496094 65.917969 58.496094 66.210938 58.59375 C 66.648438 57.960938 66.648438 57.960938 66.796875 57.226562 C 66.414062 56.953125 66.023438 56.6875 65.625 56.445312 C 65.695312 55.546875 65.75 54.640625 65.820312 53.710938 C 66.269531 53.515625 66.71875 53.320312 67.1875 53.125 C 67.148438 52.753906 67.148438 52.753906 67.101562 52.363281 C 67.089844 52.226562 67.070312 52.089844 67.050781 51.945312 C 67.011719 51.554688 67.011719 51.554688 66.796875 51.171875 C 66.632812 51.21875 66.632812 51.21875 66.453125 51.269531 C 65.945312 51.375 65.554688 51.4375 65.039062 51.367188 C 64.53125 50.917969 64.21875 50.382812 63.867188 49.804688 C 63.742188 49.679688 63.613281 49.550781 63.476562 49.414062 C 63.535156 49.0625 63.535156 49.0625 63.671875 48.632812 C 63.742188 48.3125 63.808594 47.976562 63.867188 47.65625 C 63.476562 47.53125 63.09375 47.402344 62.695312 47.265625 C 62.234375 47.78125 62.234375 47.78125 62.109375 48.4375 C 61.074219 48.3125 60.046875 48.183594 58.984375 48.046875 C 58.859375 47.65625 58.730469 47.273438 58.59375 46.875 C 57.792969 46.875 57.207031 47.03125 56.445312 47.265625 Z M 56.445312 47.265625 "/>
<path style=" stroke:none;fill-rule:nonzero;fill:rgb(98.431373%,99.215686%,98.823529%);fill-opacity:1;" d="M 33.320312 74.355469 C 34.785156 74.257812 35.78125 74.648438 36.914062 75.585938 C 38.078125 76.828125 38.15625 78 38.132812 79.640625 C 38.039062 80.878906 37.558594 81.648438 36.640625 82.480469 C 36.414062 82.664062 36.179688 82.84375 35.9375 83.007812 C 35.683594 83.195312 35.683594 83.195312 35.429688 83.378906 C 34.1875 83.789062 32.890625 83.847656 31.660156 83.378906 C 30.585938 82.773438 29.921875 82.109375 29.296875 81.054688 C 29.226562 80.9375 29.148438 80.820312 29.082031 80.703125 C 28.664062 79.667969 28.75 78.328125 29.023438 77.265625 C 29.53125 76.125 30.476562 75.15625 31.621094 74.628906 C 32.1875 74.472656 32.742188 74.421875 33.320312 74.355469 Z M 33.320312 74.355469 "/>
<path style=" stroke:none;fill-rule:nonzero;fill:rgb(34.117648%,45.09804%,44.705883%);fill-opacity:1;" d="M 55.664062 33.398438 C 56.757812 33.398438 57.851562 33.398438 58.984375 33.398438 C 58.984375 36.171875 58.984375 38.945312 58.984375 41.796875 C 60.527344 41.796875 62.078125 41.796875 63.671875 41.796875 C 63.671875 42.832031 63.671875 43.859375 63.671875 44.921875 C 61.023438 44.921875 58.390625 44.921875 55.664062 44.921875 C 55.664062 41.125 55.664062 37.3125 55.664062 33.398438 Z M 55.664062 33.398438 "/>
<path style=" stroke:none;fill-rule:nonzero;fill:rgb(23.529412%,23.529412%,23.529412%);fill-opacity:1;" d="M 70.3125 36.523438 C 70.410156 37.101562 70.410156 37.101562 70.507812 37.695312 C 70.957031 37.695312 71.40625 37.695312 71.875 37.695312 C 72 37.375 72.128906 37.050781 72.265625 36.71875 C 73.367188 36.804688 73.945312 37.050781 74.804688 37.695312 C 74.765625 37.9375 74.726562 38.183594 74.6875 38.429688 C 74.601562 39.082031 74.601562 39.484375 75 40.039062 C 75.109375 39.96875 75.214844 39.902344 75.332031 39.835938 C 75.890625 39.609375 76.179688 39.707031 76.757812 39.84375 C 76.867188 40.15625 76.960938 40.460938 77.0625 40.773438 C 77.117188 40.945312 77.179688 41.113281 77.234375 41.289062 C 77.34375 41.816406 77.335938 42.078125 77.148438 42.578125 C 76.953125 42.773438 76.953125 42.773438 76.453125 42.78125 C 76.296875 42.78125 76.140625 42.773438 75.976562 42.773438 C 76.023438 43.757812 76.023438 43.757812 76.570312 44.523438 C 76.699219 44.589844 76.828125 44.65625 76.953125 44.726562 C 76.855469 45.761719 76.515625 46.398438 75.976562 47.265625 C 75.828125 47.234375 75.683594 47.195312 75.539062 47.167969 C 74.960938 47.050781 74.960938 47.050781 74.21875 47.070312 C 73.859375 47.6875 73.789062 48.117188 73.828125 48.828125 C 71.992188 49.726562 71.992188 49.726562 71.09375 49.609375 C 70.96875 49.21875 70.839844 48.835938 70.703125 48.4375 C 70.148438 48.359375 70.148438 48.359375 69.53125 48.4375 C 69.148438 48.90625 69.148438 48.90625 68.945312 49.414062 C 67.9375 49.316406 67.226562 48.789062 66.40625 48.242188 C 66.464844 47.851562 66.523438 47.46875 66.582031 47.078125 C 66.632812 46.640625 66.632812 46.640625 66.40625 46.09375 C 66.152344 46.132812 65.90625 46.171875 65.644531 46.210938 C 65.226562 46.289062 65.226562 46.289062 64.84375 46.289062 C 64.179688 45.625 64.070312 44.785156 64.042969 43.859375 C 64.042969 43.691406 64.054688 43.523438 64.0625 43.359375 C 64.382812 43.234375 64.707031 43.105469 65.039062 42.96875 C 65.109375 42.414062 65.109375 42.414062 65.039062 41.796875 C 64.667969 41.425781 64.667969 41.425781 64.257812 41.210938 C 64.355469 40.203125 64.882812 39.492188 65.429688 38.671875 C 65.578125 38.730469 65.734375 38.789062 65.878906 38.859375 C 66.25 39.003906 66.621094 39.132812 66.992188 39.257812 C 66.992188 39.132812 66.992188 39.003906 66.992188 38.867188 C 67.117188 38.796875 67.246094 38.742188 67.382812 38.671875 C 67.382812 38.15625 67.382812 37.636719 67.382812 37.109375 C 67.570312 37.050781 67.570312 37.050781 67.753906 36.992188 C 67.910156 36.933594 68.078125 36.882812 68.242188 36.828125 C 68.398438 36.777344 68.554688 36.726562 68.71875 36.671875 C 69.6875 36.335938 69.6875 36.335938 70.3125 36.523438 Z M 68.554688 37.695312 C 68.585938 37.898438 68.613281 38.09375 68.640625 38.300781 C 68.554688 39.101562 68.507812 39.226562 67.960938 39.746094 C 67.351562 40.203125 67.226562 40.234375 66.414062 40.214844 C 66.21875 40.15625 66.023438 40.097656 65.820312 40.039062 C 65.695312 40.292969 65.566406 40.554688 65.429688 40.820312 C 65.917969 41.015625 65.917969 41.015625 66.40625 41.210938 C 66.398438 41.59375 66.386719 41.972656 66.367188 42.34375 C 66.367188 42.558594 66.359375 42.765625 66.347656 42.988281 C 66.210938 43.554688 66.210938 43.554688 65.710938 43.925781 C 65.554688 43.992188 65.398438 44.0625 65.234375 44.140625 C 65.304688 44.460938 65.359375 44.785156 65.429688 45.117188 C 65.632812 45.097656 65.839844 45.070312 66.054688 45.039062 C 66.796875 45.117188 66.796875 45.117188 67.375 45.605469 C 67.910156 46.335938 67.851562 46.972656 67.773438 47.851562 C 68.027344 47.921875 68.289062 47.976562 68.554688 48.046875 C 68.625 47.792969 68.679688 47.53125 68.75 47.265625 C 69.589844 47.335938 70.429688 47.390625 71.289062 47.460938 C 71.414062 47.78125 71.542969 48.105469 71.679688 48.4375 C 72.167969 48.339844 72.167969 48.339844 72.65625 48.242188 C 72.636719 48.039062 72.609375 47.820312 72.578125 47.609375 C 72.617188 47.246094 72.617188 47.246094 72.65625 46.875 C 73.222656 46.425781 73.222656 46.425781 73.828125 46.09375 C 73.953125 45.96875 74.082031 45.839844 74.21875 45.703125 C 74.921875 45.78125 74.921875 45.78125 75.585938 45.898438 C 75.65625 45.644531 75.710938 45.382812 75.78125 45.117188 C 75.527344 44.992188 75.265625 44.863281 75 44.726562 C 75 43.886719 75 43.046875 75 42.1875 C 75.390625 42.117188 75.773438 42.0625 76.171875 41.992188 C 76.074219 41.414062 76.074219 41.414062 75.976562 40.820312 C 75.203125 40.917969 75.203125 40.917969 74.414062 41.015625 C 74.367188 40.898438 74.304688 40.78125 74.257812 40.664062 C 74.054688 40.226562 74.054688 40.226562 73.691406 39.992188 C 73.359375 39.550781 73.429688 39.367188 73.496094 38.828125 C 73.546875 38.585938 73.585938 38.339844 73.632812 38.085938 C 73.378906 38.015625 73.117188 37.960938 72.851562 37.890625 C 72.78125 38.015625 72.703125 38.15625 72.636719 38.28125 C 72.265625 38.671875 72.265625 38.671875 71.699219 38.703125 C 71.484375 38.679688 71.269531 38.652344 71.054688 38.625 C 70.742188 38.585938 70.742188 38.585938 70.410156 38.546875 C 70.253906 38.523438 70.085938 38.496094 69.921875 38.476562 C 69.796875 38.15625 69.667969 37.832031 69.53125 37.5 C 69.101562 37.480469 69.101562 37.480469 68.554688 37.695312 Z M 68.554688 37.695312 "/>
<path style=" stroke:none;fill-rule:nonzero;fill:rgb(33.725491%,44.705883%,44.313726%);fill-opacity:1;" d="M 44.53125 36.132812 C 44.53125 37.101562 44.53125 38.066406 44.53125 39.0625 C 44.054688 39.082031 43.574219 39.101562 43.105469 39.121094 C 42.3125 39.328125 42.0625 39.5625 41.601562 40.234375 C 41.453125 41.035156 41.445312 41.828125 41.445312 42.636719 C 41.4375 42.859375 41.4375 43.078125 41.425781 43.300781 C 41.414062 43.835938 41.40625 44.382812 41.40625 44.921875 C 40.371094 44.921875 39.34375 44.921875 38.28125 44.921875 C 38.28125 42.089844 38.28125 39.25 38.28125 36.328125 C 39.054688 36.328125 39.824219 36.328125 40.625 36.328125 C 40.695312 36.582031 40.75 36.84375 40.820312 37.109375 C 40.929688 37.039062 41.023438 36.972656 41.132812 36.894531 C 42.335938 36.152344 43.132812 36.035156 44.53125 36.132812 Z M 44.53125 36.132812 "/>
<path style=" stroke:none;fill-rule:nonzero;fill:rgb(98.431373%,98.431373%,98.431373%);fill-opacity:1;" d="M 60.976562 51.164062 C 61.90625 51.710938 62.597656 52.34375 63.085938 53.320312 C 63.25 54.421875 63.171875 55.28125 62.585938 56.242188 C 62 57.011719 61.503906 57.375 60.546875 57.617188 C 59.589844 57.714844 58.652344 57.742188 57.8125 57.226562 C 56.914062 56.308594 56.414062 55.671875 56.359375 54.375 C 56.367188 53.289062 56.5625 52.675781 57.285156 51.867188 C 58.328125 50.90625 59.65625 50.59375 60.976562 51.164062 Z M 60.976562 51.164062 "/>
<path style=" stroke:none;fill-rule:nonzero;fill:rgb(95.294118%,95.294118%,95.294118%);fill-opacity:1;" d="M 69.53125 37.5 C 69.65625 37.820312 69.785156 38.144531 69.921875 38.476562 C 70.304688 38.535156 70.671875 38.574219 71.054688 38.625 C 71.269531 38.652344 71.476562 38.679688 71.699219 38.703125 C 72.285156 38.742188 72.285156 38.742188 72.636719 38.28125 C 72.703125 38.15625 72.773438 38.027344 72.851562 37.890625 C 73.105469 37.960938 73.367188 38.015625 73.632812 38.085938 C 73.585938 38.320312 73.523438 38.5625 73.476562 38.808594 C 73.398438 39.226562 73.398438 39.226562 73.4375 39.648438 C 73.886719 40.214844 73.886719 40.214844 74.414062 40.625 C 74.414062 40.75 74.414062 40.878906 74.414062 41.015625 C 75.1875 40.917969 75.1875 40.917969 75.976562 40.820312 C 76.074219 41.398438 76.074219 41.398438 76.171875 41.992188 C 75.59375 42.089844 75.59375 42.089844 75 42.1875 C 75 43.027344 75 43.867188 75 44.726562 C 75.253906 44.851562 75.515625 44.980469 75.78125 45.117188 C 75.710938 45.371094 75.65625 45.632812 75.585938 45.898438 C 75.382812 45.851562 75.1875 45.789062 74.980469 45.742188 C 74.148438 45.695312 74.148438 45.695312 73.574219 46.171875 C 73.398438 46.335938 73.222656 46.503906 73.046875 46.679688 C 72.851562 46.777344 72.851562 46.777344 72.65625 46.875 C 72.65625 47.324219 72.65625 47.773438 72.65625 48.242188 C 72.167969 48.339844 72.167969 48.339844 71.679688 48.4375 C 71.554688 48.117188 71.425781 47.792969 71.289062 47.460938 C 70.449219 47.390625 69.609375 47.335938 68.75 47.265625 C 68.679688 47.519531 68.625 47.78125 68.554688 48.046875 C 68.300781 47.976562 68.039062 47.921875 67.773438 47.851562 C 67.804688 47.5 67.804688 47.5 67.832031 47.148438 C 67.832031 46.503906 67.742188 46.125 67.375 45.605469 C 66.828125 45.046875 66.828125 45.046875 66.054688 45.039062 C 65.851562 45.070312 65.644531 45.085938 65.429688 45.117188 C 65.359375 44.796875 65.304688 44.472656 65.234375 44.140625 C 65.390625 44.070312 65.546875 43.992188 65.710938 43.925781 C 66.269531 43.59375 66.269531 43.59375 66.347656 42.988281 C 66.359375 42.773438 66.367188 42.558594 66.367188 42.34375 C 66.375 42.140625 66.386719 41.921875 66.398438 41.699219 C 66.398438 41.542969 66.40625 41.375 66.40625 41.210938 C 65.917969 41.015625 65.917969 41.015625 65.429688 40.820312 C 65.554688 40.566406 65.683594 40.304688 65.820312 40.039062 C 66.015625 40.097656 66.210938 40.15625 66.414062 40.214844 C 67.226562 40.234375 67.351562 40.203125 67.960938 39.746094 C 68.507812 39.226562 68.554688 39.101562 68.640625 38.300781 C 68.613281 38.105469 68.585938 37.898438 68.554688 37.695312 C 69.140625 37.5 69.140625 37.5 69.53125 37.5 Z M 67.8125 41.015625 C 67.335938 41.648438 67.335938 41.648438 67.1875 42.382812 C 67.167969 42.625 67.140625 42.871094 67.109375 43.117188 C 67.128906 44.34375 67.8125 45.164062 68.664062 45.996094 C 69.765625 46.476562 70.945312 46.503906 72.101562 46.171875 C 73.054688 45.703125 73.640625 44.914062 74.023438 43.945312 C 74.226562 42.910156 74.140625 42.0625 73.625 41.132812 C 73.085938 40.410156 72.558594 39.914062 71.679688 39.648438 C 69.980469 39.414062 68.964844 39.726562 67.8125 41.015625 Z M 67.8125 41.015625 "/>
<path style=" stroke:none;fill-rule:nonzero;fill:rgb(23.921569%,23.921569%,23.921569%);fill-opacity:1;" d="M 61.484375 50.195312 C 62.753906 50.867188 63.5625 51.777344 64.0625 53.125 C 64.328125 54.472656 64.070312 55.59375 63.40625 56.789062 C 62.8125 57.609375 62.03125 58.144531 61.132812 58.59375 C 59.539062 58.75 58.105469 58.828125 56.796875 57.804688 C 56.203125 57.15625 55.820312 56.453125 55.46875 55.664062 C 55.398438 55.539062 55.34375 55.410156 55.273438 55.273438 C 55.125 53.945312 55.242188 52.851562 56.054688 51.757812 C 57.558594 50.164062 59.316406 49.421875 61.484375 50.195312 Z M 56.738281 52.453125 C 56.296875 53.457031 56.296875 54.394531 56.445312 55.46875 C 56.75 56.152344 56.75 56.152344 57.226562 56.640625 C 57.351562 56.789062 57.480469 56.945312 57.617188 57.089844 C 58.328125 57.695312 59.179688 57.6875 60.078125 57.664062 C 61.035156 57.558594 61.757812 57.207031 62.421875 56.503906 C 63.054688 55.632812 63.222656 54.84375 63.164062 53.78125 C 62.96875 52.65625 62.226562 51.992188 61.328125 51.367188 C 59.570312 50.359375 58.039062 51.113281 56.738281 52.453125 Z M 56.738281 52.453125 "/>
<path style=" stroke:none;fill-rule:nonzero;fill:rgb(98.431373%,98.823529%,99.215686%);fill-opacity:1;" d="M 45.703125 59.765625 C 46.59375 60.1875 47.304688 60.578125 47.65625 61.523438 C 47.804688 62.429688 47.742188 63.117188 47.324219 63.945312 C 46.632812 64.734375 46.203125 65 45.136719 65.136719 C 44.238281 65.097656 43.59375 64.707031 42.96875 64.0625 C 42.429688 63.203125 42.453125 62.3125 42.578125 61.328125 C 43.234375 60.15625 44.367188 59.550781 45.703125 59.765625 Z M 45.703125 59.765625 "/>
<path style=" stroke:none;fill-rule:nonzero;fill:rgb(97.647059%,97.647059%,97.647059%);fill-opacity:1;" d="M 71.289062 40.625 C 72.089844 40.96875 72.597656 41.4375 73.046875 42.1875 C 73.183594 42.960938 73.117188 43.574219 72.832031 44.296875 C 72.285156 44.929688 71.738281 45.234375 70.90625 45.382812 C 70.125 45.4375 69.667969 45.34375 69.054688 44.84375 C 68.289062 44.070312 68.28125 43.546875 68.289062 42.492188 C 68.398438 41.6875 68.75 41.367188 69.335938 40.820312 C 69.960938 40.507812 70.605469 40.554688 71.289062 40.625 Z M 71.289062 40.625 "/>
<path style=" stroke:none;fill-rule:nonzero;fill:rgb(96.078432%,96.470588%,96.470588%);fill-opacity:1;" d="M 33.007812 38.671875 C 33.574219 38.914062 33.875 39.109375 34.238281 39.609375 C 34.492188 40.410156 34.484375 40.996094 34.121094 41.75 C 33.742188 42.257812 33.429688 42.539062 32.792969 42.648438 C 31.984375 42.675781 31.554688 42.648438 30.851562 42.207031 C 30.3125 41.347656 30.273438 40.632812 30.46875 39.648438 C 31.132812 38.613281 31.855469 38.457031 33.007812 38.671875 Z M 33.007812 38.671875 "/>
<path style=" stroke:none;fill-rule:nonzero;fill:rgb(95.686275%,95.686275%,96.078432%);fill-opacity:1;" d="M 83.789062 38.476562 C 84.367188 38.78125 84.667969 38.992188 84.890625 39.617188 C 85.039062 40.359375 84.980469 40.773438 84.6875 41.492188 C 84.070312 42.101562 83.703125 42.1875 82.851562 42.234375 C 82.195312 42.15625 81.875 41.875 81.445312 41.40625 C 81.140625 40.800781 81.191406 40.3125 81.25 39.648438 C 81.972656 38.546875 82.480469 38.367188 83.789062 38.476562 Z M 83.789062 38.476562 "/>
<path style=" stroke:none;fill-rule:nonzero;fill:rgb(81.960785%,84.313726%,84.313726%);fill-opacity:1;" d="M 55.46875 33.398438 C 55.539062 33.398438 55.59375 33.398438 55.664062 33.398438 C 55.664062 37.195312 55.664062 41.007812 55.664062 44.921875 C 58.3125 44.921875 60.945312 44.921875 63.671875 44.921875 C 62.695312 45.898438 62.695312 45.898438 62.265625 46.308594 C 61.875 46.6875 61.875 46.6875 61.523438 47.265625 C 61.101562 47.324219 61.101562 47.324219 60.625 47.304688 C 60.460938 47.296875 60.304688 47.296875 60.136719 47.285156 C 60.007812 47.273438 59.890625 47.273438 59.765625 47.265625 C 59.570312 46.816406 59.375 46.367188 59.179688 45.898438 C 58.117188 45.996094 58.117188 45.996094 57.03125 46.09375 C 57.03125 45.96875 57.03125 45.839844 57.03125 45.703125 C 57.609375 45.605469 57.609375 45.605469 58.203125 45.507812 C 58.203125 45.382812 58.203125 45.253906 58.203125 45.117188 C 57.304688 45.117188 56.398438 45.117188 55.46875 45.117188 C 55.46875 41.25 55.46875 37.382812 55.46875 33.398438 Z M 55.46875 33.398438 "/>
<path style=" stroke:none;fill-rule:nonzero;fill:rgb(90.980393%,92.156863%,92.156863%);fill-opacity:1;" d="M 84.765625 44.140625 C 84.863281 45.351562 84.863281 45.351562 84.484375 45.984375 C 83.769531 46.425781 83.046875 46.453125 82.226562 46.289062 C 82.140625 46.191406 82.0625 46.09375 81.972656 45.996094 C 81.445312 45.527344 80.820312 45.59375 80.136719 45.566406 C 79.929688 45.554688 79.929688 45.554688 79.726562 45.546875 C 79.382812 45.539062 79.054688 45.515625 78.710938 45.507812 C 78.640625 45.632812 78.585938 45.761719 78.515625 45.898438 C 78.515625 45.703125 78.515625 45.507812 78.515625 45.3125 C 79.484375 45.242188 80.449219 45.1875 81.445312 45.117188 C 81.445312 45.046875 81.445312 44.992188 81.445312 44.921875 C 81.789062 44.890625 81.789062 44.890625 82.140625 44.863281 C 83.046875 44.757812 83.898438 44.140625 84.765625 44.140625 Z M 84.765625 44.140625 "/>
<path style=" stroke:none;fill-rule:nonzero;fill:rgb(90.980393%,90.588236%,90.588236%);fill-opacity:1;" d="M 58.203125 45.117188 C 59.8125 45.1875 61.425781 45.242188 63.085938 45.3125 C 62.890625 45.605469 62.890625 45.605469 62.695312 45.898438 C 62.5 45.828125 62.304688 45.773438 62.109375 45.703125 C 60.382812 45.617188 58.71875 45.703125 57.03125 46.09375 C 57.03125 45.96875 57.03125 45.839844 57.03125 45.703125 C 57.421875 45.632812 57.804688 45.578125 58.203125 45.507812 C 58.203125 45.382812 58.203125 45.253906 58.203125 45.117188 Z M 58.203125 45.117188 "/>
<path style=" stroke:none;fill-rule:nonzero;fill:rgb(85.490197%,87.058824%,87.058824%);fill-opacity:1;" d="M 24.804688 44.335938 C 24.875 44.589844 24.929688 44.851562 25 45.117188 C 24.367188 45.488281 23.875 45.566406 23.144531 45.566406 C 22.960938 45.578125 22.773438 45.578125 22.585938 45.578125 C 22.070312 45.507812 22.070312 45.507812 21.289062 44.921875 C 22.453125 44.921875 23.613281 44.921875 24.804688 44.921875 C 24.804688 44.726562 24.804688 44.53125 24.804688 44.335938 Z M 24.804688 44.335938 "/>
<path style=" stroke:none;fill-rule:nonzero;fill:rgb(85.09804%,86.666667%,86.666667%);fill-opacity:1;" d="M 54.6875 44.726562 C 54.757812 44.851562 54.8125 44.980469 54.882812 45.117188 C 54.5625 45.117188 54.238281 45.117188 53.90625 45.117188 C 53.90625 45.242188 53.90625 45.371094 53.90625 45.507812 C 53.523438 45.527344 53.15625 45.539062 52.773438 45.546875 C 52.558594 45.546875 52.351562 45.554688 52.128906 45.566406 C 51.5625 45.507812 51.5625 45.507812 50.976562 44.921875 C 52.195312 44.851562 53.429688 44.796875 54.6875 44.726562 Z M 54.6875 44.726562 "/>
<path style=" stroke:none;fill-rule:nonzero;fill:rgb(85.09804%,86.666667%,86.666667%);fill-opacity:1;" d="M 13.671875 44.726562 C 14.835938 44.796875 15.996094 44.851562 17.1875 44.921875 C 16.296875 45.585938 16.296875 45.585938 15.429688 45.566406 C 15.265625 45.566406 15.097656 45.566406 14.929688 45.566406 C 14.433594 45.507812 14.101562 45.371094 13.671875 45.117188 C 13.671875 44.992188 13.671875 44.863281 13.671875 44.726562 Z M 13.671875 44.726562 "/>
<path style=" stroke:none;fill-rule:nonzero;fill:rgb(86.666667%,88.235295%,88.235295%);fill-opacity:1;" d="M 26.953125 37.695312 C 27.207031 37.890625 27.46875 38.085938 27.734375 38.28125 C 27.609375 39.25 27.480469 40.214844 27.34375 41.210938 C 27.273438 41.210938 27.21875 41.210938 27.148438 41.210938 C 27.109375 40.8125 27.070312 40.410156 27.03125 40.007812 C 26.992188 39.835938 26.992188 39.835938 26.953125 39.648438 C 26.828125 39.578125 26.699219 39.523438 26.5625 39.453125 C 26.6875 38.875 26.816406 38.289062 26.953125 37.695312 Z M 26.953125 37.695312 "/>
<path style=" stroke:none;fill-rule:nonzero;fill:rgb(84.705883%,86.274511%,86.666667%);fill-opacity:1;" d="M 45.3125 44.921875 C 46.347656 44.921875 47.375 44.921875 48.4375 44.921875 C 47.851562 45.507812 47.851562 45.507812 47.363281 45.566406 C 47.195312 45.554688 47.023438 45.546875 46.835938 45.546875 C 46.660156 45.539062 46.484375 45.539062 46.308594 45.527344 C 46.101562 45.515625 46.101562 45.515625 45.898438 45.507812 C 45.898438 45.382812 45.898438 45.253906 45.898438 45.117188 C 45.703125 45.046875 45.507812 44.992188 45.3125 44.921875 Z M 45.3125 44.921875 "/>
<path style=" stroke:none;fill-rule:nonzero;fill:rgb(19.215687%,19.215687%,19.215687%);fill-opacity:1;" d="M 63.671875 53.320312 C 63.742188 53.320312 63.796875 53.320312 63.867188 53.320312 C 63.867188 54.160156 63.867188 55 63.867188 55.859375 C 63.671875 55.957031 63.671875 55.957031 63.476562 56.054688 C 63.40625 55.929688 63.351562 55.800781 63.28125 55.664062 C 63.085938 55.761719 63.085938 55.761719 62.890625 55.859375 C 62.949219 55.585938 63.007812 55.304688 63.066406 55.03125 C 63.09375 54.875 63.125 54.71875 63.15625 54.5625 C 63.28125 54.109375 63.445312 53.730469 63.671875 53.320312 Z M 63.671875 53.320312 "/>
<path style=" stroke:none;fill-rule:nonzero;fill:rgb(84.705883%,86.274511%,86.274511%);fill-opacity:1;" d="M 38.28125 44.921875 C 39.316406 44.921875 40.34375 44.921875 41.40625 44.921875 C 40.515625 45.585938 40.515625 45.585938 39.84375 45.585938 C 39.71875 45.585938 39.589844 45.585938 39.453125 45.585938 C 39.0625 45.507812 39.0625 45.507812 38.28125 44.921875 Z M 38.28125 44.921875 "/>
<path style=" stroke:none;fill-rule:nonzero;fill:rgb(36.862746%,47.058824%,46.666667%);fill-opacity:1;" d="M 79.6875 36.71875 C 79.882812 36.789062 80.078125 36.84375 80.273438 36.914062 C 79.882812 37.304688 79.5 37.6875 79.101562 38.085938 C 78.976562 38.015625 78.847656 37.960938 78.710938 37.890625 C 79.03125 37.5 79.355469 37.117188 79.6875 36.71875 Z M 79.6875 36.71875 "/>
<path style=" stroke:none;fill-rule:nonzero;fill:rgb(78.431374%,81.568629%,81.568629%);fill-opacity:1;" d="M 19.140625 38.671875 C 19.265625 38.742188 19.394531 38.796875 19.53125 38.867188 C 19.648438 39.367188 19.648438 39.367188 19.726562 39.84375 C 19.40625 39.914062 19.082031 39.96875 18.75 40.039062 C 18.875 39.589844 19.003906 39.140625 19.140625 38.671875 Z M 19.140625 38.671875 "/>
</g>
</svg>
