<?xml version="1.0" encoding="UTF-8"?>
<svg xmlns="http://www.w3.org/2000/svg" xmlns:xlink="http://www.w3.org/1999/xlink" width="40px" height="40px" viewBox="0 0 40 40" version="1.1" style="background-color:transparent;">
  <g id="surface1">
    <path style=" stroke:none;fill-rule:nonzero;fill:rgb(99.607843%,99.607843%,99.607843%);fill-opacity:1;" d="M 0 0 C 13.199219 0 26.398438 0 40 0 C 40 13.199219 40 26.398438 40 40 C 26.800781 40 13.601562 40 0 40 C 0 26.800781 0 13.601562 0 0 Z M 0 0 "/>
    <path style=" stroke:none;fill-rule:nonzero;fill:rgb(98.823529%,79.215688%,34.117648%);fill-opacity:1;" d="M 23.289062 26.035156 C 23.699219 26.113281 24.066406 26.253906 24.453125 26.40625 C 24.453125 26.691406 24.453125 26.972656 24.453125 27.265625 C 24.582031 27.316406 24.710938 27.367188 24.84375 27.421875 C 24.894531 27.464844 24.945312 27.507812 25 27.554688 C 25.152344 27.675781 25.152344 27.675781 25.34375 27.636719 C 25.410156 27.617188 25.476562 27.597656 25.546875 27.578125 C 25.703125 27.550781 25.859375 27.523438 26.015625 27.5 C 26.117188 27.632812 26.222656 27.769531 26.324219 27.90625 C 26.378906 27.980469 26.4375 28.054688 26.496094 28.132812 C 26.636719 28.351562 26.707031 28.492188 26.71875 28.75 C 26.621094 28.824219 26.621094 28.824219 26.523438 28.902344 C 26.285156 29.195312 26.296875 29.320312 26.304688 29.691406 C 26.335938 30.078125 26.335938 30.078125 26.550781 30.375 C 26.710938 30.453125 26.859375 30.507812 27.03125 30.546875 C 27.058594 31.035156 26.988281 31.421875 26.796875 31.875 C 26.769531 31.902344 26.746094 31.925781 26.71875 31.953125 C 26.597656 31.953125 26.476562 31.953125 26.351562 31.953125 C 26.101562 31.976562 25.972656 32.003906 25.777344 32.164062 C 25.578125 32.425781 25.464844 32.621094 25.476562 32.953125 C 25.511719 33.148438 25.5625 33.328125 25.625 33.515625 C 24.824219 34.21875 24.824219 34.21875 24.4375 34.21875 C 24.296875 34.140625 24.296875 34.140625 24.167969 33.980469 C 23.914062 33.769531 23.742188 33.796875 23.417969 33.808594 C 23.320312 33.8125 23.21875 33.8125 23.117188 33.816406 C 23.042969 33.820312 22.96875 33.824219 22.890625 33.828125 C 22.867188 33.902344 22.84375 33.972656 22.820312 34.046875 C 22.734375 34.296875 22.734375 34.296875 22.578125 34.53125 C 22.074219 34.628906 21.632812 34.5 21.171875 34.296875 C 21.171875 34.246094 21.175781 34.195312 21.175781 34.140625 C 21.167969 33.84375 21.15625 33.605469 20.980469 33.355469 C 20.738281 33.140625 20.570312 33.039062 20.238281 33.0625 C 20.15625 33.074219 20.078125 33.085938 19.996094 33.101562 C 19.582031 33.160156 19.582031 33.160156 19.351562 32.996094 C 19.078125 32.65625 18.871094 32.324219 18.90625 31.875 C 18.96875 31.820312 19.035156 31.765625 19.101562 31.710938 C 19.324219 31.503906 19.324219 31.503906 19.304688 31.234375 C 19.285156 30.976562 19.257812 30.722656 19.21875 30.46875 C 18.871094 30.3125 18.871094 30.3125 18.515625 30.15625 C 18.484375 29.679688 18.585938 29.277344 18.75 28.828125 C 18.875 28.703125 19.023438 28.746094 19.195312 28.746094 C 19.515625 28.714844 19.683594 28.65625 19.898438 28.414062 C 20.09375 28.113281 20.082031 27.921875 20.023438 27.574219 C 19.964844 27.160156 19.964844 27.160156 20.128906 26.929688 C 20.46875 26.65625 20.800781 26.449219 21.25 26.484375 C 21.304688 26.550781 21.359375 26.617188 21.414062 26.683594 C 21.621094 26.898438 21.621094 26.898438 21.875 26.886719 C 22.386719 26.847656 22.386719 26.847656 22.789062 26.566406 C 22.847656 26.457031 22.90625 26.34375 22.960938 26.230469 C 23.046875 26.09375 23.046875 26.09375 23.289062 26.035156 Z M 23.289062 26.035156 "/>
    <path style=" stroke:none;fill-rule:nonzero;fill:rgb(17.254902%,52.156866%,39.607844%);fill-opacity:1;" d="M 13.59375 27.890625 C 14.03125 27.921875 14.429688 27.960938 14.84375 28.125 C 14.84375 28.171875 14.84375 28.21875 14.839844 28.265625 C 14.851562 28.644531 14.851562 28.644531 15.035156 28.960938 C 15.246094 29.121094 15.410156 29.210938 15.671875 29.25 C 15.867188 29.21875 16.058594 29.183594 16.25 29.140625 C 16.816406 29.820312 16.816406 29.820312 16.796875 30.234375 C 16.746094 30.28125 16.691406 30.328125 16.640625 30.375 C 16.460938 30.539062 16.460938 30.539062 16.472656 30.78125 C 16.488281 30.90625 16.488281 30.90625 16.503906 31.035156 C 16.515625 31.121094 16.523438 31.203125 16.535156 31.289062 C 16.542969 31.355469 16.554688 31.417969 16.5625 31.484375 C 16.742188 31.5625 16.921875 31.640625 17.109375 31.71875 C 17.140625 32.183594 17.039062 32.535156 16.875 32.96875 C 16.804688 32.96875 16.804688 32.96875 16.730469 32.96875 C 16.300781 32.988281 16.300781 32.988281 15.976562 33.261719 C 15.785156 33.675781 15.765625 33.929688 15.859375 34.375 C 15.511719 34.65625 15.210938 34.890625 14.765625 35 C 14.71875 34.933594 14.675781 34.867188 14.628906 34.800781 C 14.460938 34.625 14.386719 34.609375 14.140625 34.601562 C 13.902344 34.621094 13.671875 34.648438 13.4375 34.6875 C 13.386719 34.867188 13.335938 35.046875 13.28125 35.234375 C 12.828125 35.253906 12.460938 35.222656 12.03125 35.078125 C 12.03125 34.820312 12.03125 34.5625 12.03125 34.296875 C 11.972656 34.277344 11.914062 34.253906 11.855469 34.234375 C 11.640625 34.140625 11.640625 34.140625 11.480469 34.007812 C 11.335938 33.886719 11.335938 33.886719 11.175781 33.925781 C 11.125 33.945312 11.070312 33.964844 11.015625 33.984375 C 10.886719 34.011719 10.753906 34.039062 10.625 34.0625 C 10.367188 33.769531 10.136719 33.5 10 33.125 C 10.058594 32.921875 10.128906 32.835938 10.289062 32.699219 C 10.320312 32.660156 10.355469 32.621094 10.390625 32.578125 C 10.367188 32.394531 10.367188 32.394531 10.3125 32.1875 C 10.308594 32.003906 10.308594 31.824219 10.3125 31.640625 C 10.25 31.628906 10.191406 31.617188 10.125 31.605469 C 9.921875 31.5625 9.921875 31.5625 9.765625 31.484375 C 9.738281 30.976562 9.761719 30.609375 10 30.15625 C 10.230469 30.15625 10.464844 30.15625 10.703125 30.15625 C 10.722656 30.097656 10.746094 30.035156 10.765625 29.976562 C 10.859375 29.765625 10.859375 29.765625 10.984375 29.660156 C 11.023438 29.617188 11.058594 29.574219 11.09375 29.53125 C 11.082031 29.347656 11.082031 29.347656 11.03125 29.15625 C 11 28.945312 11 28.945312 11.015625 28.75 C 11.238281 28.464844 11.527344 28.328125 11.855469 28.195312 C 11.914062 28.195312 11.972656 28.199219 12.03125 28.203125 C 12.097656 28.28125 12.097656 28.28125 12.164062 28.359375 C 12.40625 28.570312 12.554688 28.546875 12.871094 28.535156 C 12.960938 28.53125 13.054688 28.53125 13.148438 28.527344 C 13.21875 28.523438 13.289062 28.519531 13.359375 28.515625 C 13.382812 28.441406 13.40625 28.367188 13.433594 28.289062 C 13.515625 28.046875 13.515625 28.046875 13.59375 27.890625 Z M 13.59375 27.890625 "/>
    <path style=" stroke:none;fill-rule:nonzero;fill:rgb(97.254902%,97.254902%,97.254902%);fill-opacity:1;" d="M 23.671875 18.28125 C 23.75 18.460938 23.828125 18.640625 23.90625 18.828125 C 24.144531 18.855469 24.371094 18.871094 24.609375 18.828125 C 24.816406 18.605469 24.816406 18.605469 24.921875 18.359375 C 25.207031 18.414062 25.429688 18.535156 25.683594 18.675781 C 25.761719 18.71875 25.835938 18.761719 25.917969 18.804688 C 25.976562 18.839844 26.035156 18.871094 26.09375 18.90625 C 26.050781 19.117188 26.007812 19.328125 25.957031 19.539062 C 25.910156 19.765625 25.910156 19.765625 26.050781 19.902344 C 26.089844 19.933594 26.128906 19.96875 26.171875 20 C 26.171875 20.050781 26.171875 20.101562 26.171875 20.15625 C 26.242188 20.128906 26.308594 20.101562 26.382812 20.074219 C 26.652344 19.996094 26.765625 20.015625 27.03125 20.078125 C 27.085938 20.222656 27.136719 20.371094 27.1875 20.515625 C 27.214844 20.597656 27.246094 20.679688 27.273438 20.765625 C 27.34375 21.015625 27.355469 21.222656 27.34375 21.484375 C 27.164062 21.5625 26.984375 21.640625 26.796875 21.71875 C 26.769531 21.949219 26.746094 22.183594 26.71875 22.421875 C 26.898438 22.523438 27.078125 22.628906 27.265625 22.734375 C 27.210938 23.019531 27.089844 23.242188 26.949219 23.496094 C 26.90625 23.574219 26.863281 23.648438 26.820312 23.730469 C 26.785156 23.789062 26.753906 23.847656 26.71875 23.90625 C 26.269531 23.835938 26.269531 23.835938 26.089844 23.765625 C 25.917969 23.734375 25.917969 23.734375 25.71875 23.859375 C 25.53125 24.039062 25.53125 24.039062 25.539062 24.238281 C 25.558594 24.417969 25.585938 24.589844 25.625 24.765625 C 24.648438 25.199219 24.648438 25.199219 24.140625 25.234375 C 23.90625 24.796875 23.90625 24.796875 23.90625 24.53125 C 23.664062 24.53125 23.4375 24.546875 23.203125 24.609375 C 23 24.835938 23 24.835938 22.890625 25.078125 C 22.589844 25.03125 22.355469 24.941406 22.085938 24.800781 C 22.015625 24.765625 21.945312 24.730469 21.875 24.691406 C 21.796875 24.652344 21.796875 24.652344 21.71875 24.609375 C 21.789062 24.082031 21.789062 24.082031 21.859375 23.890625 C 21.890625 23.738281 21.890625 23.738281 21.773438 23.574219 C 21.457031 23.367188 21.148438 23.414062 20.78125 23.4375 C 20.722656 23.265625 20.667969 23.09375 20.609375 22.921875 C 20.558594 22.773438 20.503906 22.625 20.449219 22.480469 C 20.386719 22.246094 20.402344 22.105469 20.46875 21.875 C 20.648438 21.824219 20.828125 21.773438 21.015625 21.71875 C 21.042969 21.488281 21.066406 21.253906 21.09375 21.015625 C 20.9375 20.964844 20.785156 20.914062 20.625 20.859375 C 20.546875 20.609375 20.539062 20.492188 20.628906 20.246094 C 20.671875 20.171875 20.714844 20.097656 20.757812 20.019531 C 20.796875 19.945312 20.839844 19.867188 20.878906 19.792969 C 21.015625 19.609375 21.015625 19.609375 21.171875 19.535156 C 21.328125 19.53125 21.328125 19.53125 21.5625 19.6875 C 21.832031 19.660156 21.957031 19.605469 22.1875 19.453125 C 22.214844 19.246094 22.214844 19.246094 22.203125 19.015625 C 22.199219 18.933594 22.199219 18.855469 22.195312 18.777344 C 22.191406 18.6875 22.191406 18.6875 22.1875 18.59375 C 22.363281 18.542969 22.535156 18.488281 22.710938 18.4375 C 22.855469 18.394531 22.855469 18.394531 23.003906 18.351562 C 23.242188 18.289062 23.429688 18.265625 23.671875 18.28125 Z M 23.671875 18.28125 "/>
    <path style=" stroke:none;fill-rule:nonzero;fill:rgb(34.117648%,44.705883%,44.313726%);fill-opacity:1;" d="M 4.0625 13.359375 C 4.527344 13.359375 4.992188 13.359375 5.46875 13.359375 C 5.667969 13.832031 5.839844 14.308594 5.996094 14.796875 C 6.011719 14.847656 6.03125 14.902344 6.046875 14.957031 C 6.132812 15.222656 6.171875 15.421875 6.171875 15.703125 C 6.222656 15.703125 6.273438 15.703125 6.328125 15.703125 C 6.359375 15.554688 6.359375 15.554688 6.386719 15.40625 C 6.484375 14.972656 6.625 14.554688 6.765625 14.136719 C 6.792969 14.0625 6.816406 13.984375 6.84375 13.910156 C 6.90625 13.726562 6.96875 13.542969 7.03125 13.359375 C 7.46875 13.359375 7.90625 13.359375 8.359375 13.359375 C 8.582031 13.886719 8.765625 14.417969 8.925781 14.964844 C 9 15.214844 9.074219 15.40625 9.21875 15.625 C 9.449219 14.878906 9.683594 14.128906 9.921875 13.359375 C 10.386719 13.359375 10.851562 13.359375 11.328125 13.359375 C 11.214844 13.910156 11.058594 14.441406 10.882812 14.976562 C 10.828125 15.148438 10.773438 15.320312 10.714844 15.492188 C 10.675781 15.621094 10.675781 15.621094 10.632812 15.753906 C 10.5 16.164062 10.367188 16.574219 10.238281 16.984375 C 10.195312 17.121094 10.148438 17.261719 10.105469 17.402344 C 10.085938 17.460938 10.066406 17.519531 10.050781 17.582031 C 10.007812 17.710938 9.964844 17.839844 9.921875 17.96875 C 9.457031 17.96875 8.992188 17.96875 8.515625 17.96875 C 8.414062 17.683594 8.3125 17.394531 8.210938 17.109375 C 8.183594 17.027344 8.15625 16.949219 8.125 16.867188 C 7.972656 16.429688 7.835938 15.996094 7.734375 15.546875 C 7.722656 15.589844 7.707031 15.628906 7.691406 15.671875 C 7.539062 16.136719 7.378906 16.601562 7.21875 17.066406 C 7.191406 17.136719 7.167969 17.207031 7.144531 17.277344 C 7.121094 17.34375 7.097656 17.410156 7.070312 17.480469 C 7.050781 17.539062 7.03125 17.601562 7.007812 17.664062 C 6.953125 17.8125 6.953125 17.8125 6.875 17.96875 C 6.4375 17.96875 6 17.96875 5.546875 17.96875 C 5.394531 17.609375 5.265625 17.289062 5.15625 16.917969 C 5.074219 16.644531 4.992188 16.371094 4.886719 16.101562 C 4.542969 15.203125 4.285156 14.296875 4.0625 13.359375 Z M 4.0625 13.359375 "/>
    <path style=" stroke:none;fill-rule:nonzero;fill:rgb(23.529412%,23.529412%,23.529412%);fill-opacity:1;" d="M 28.125 14.609375 C 28.164062 14.839844 28.164062 14.839844 28.203125 15.078125 C 28.382812 15.078125 28.5625 15.078125 28.75 15.078125 C 28.800781 14.949219 28.851562 14.820312 28.90625 14.6875 C 29.347656 14.722656 29.578125 14.820312 29.921875 15.078125 C 29.90625 15.175781 29.890625 15.273438 29.875 15.371094 C 29.839844 15.632812 29.839844 15.792969 30 16.015625 C 30.042969 15.988281 30.085938 15.960938 30.132812 15.933594 C 30.355469 15.84375 30.472656 15.882812 30.703125 15.9375 C 30.746094 16.0625 30.785156 16.183594 30.824219 16.308594 C 30.847656 16.378906 30.871094 16.445312 30.894531 16.515625 C 30.9375 16.726562 30.933594 16.832031 30.859375 17.03125 C 30.78125 17.109375 30.78125 17.109375 30.582031 17.113281 C 30.519531 17.113281 30.457031 17.109375 30.390625 17.109375 C 30.410156 17.503906 30.410156 17.503906 30.628906 17.808594 C 30.679688 17.835938 30.730469 17.863281 30.78125 17.890625 C 30.742188 18.304688 30.605469 18.558594 30.390625 18.90625 C 30.332031 18.894531 30.273438 18.878906 30.214844 18.867188 C 29.984375 18.820312 29.984375 18.820312 29.6875 18.828125 C 29.542969 19.074219 29.515625 19.246094 29.53125 19.53125 C 28.796875 19.890625 28.796875 19.890625 28.4375 19.84375 C 28.386719 19.6875 28.335938 19.535156 28.28125 19.375 C 28.058594 19.34375 28.058594 19.34375 27.8125 19.375 C 27.660156 19.5625 27.660156 19.5625 27.578125 19.765625 C 27.175781 19.726562 26.890625 19.515625 26.5625 19.296875 C 26.585938 19.140625 26.609375 18.988281 26.632812 18.832031 C 26.652344 18.65625 26.652344 18.65625 26.5625 18.4375 C 26.460938 18.453125 26.363281 18.46875 26.257812 18.484375 C 26.089844 18.515625 26.089844 18.515625 25.9375 18.515625 C 25.671875 18.25 25.628906 17.914062 25.617188 17.542969 C 25.617188 17.476562 25.621094 17.410156 25.625 17.34375 C 25.753906 17.292969 25.882812 17.242188 26.015625 17.1875 C 26.042969 16.964844 26.042969 16.964844 26.015625 16.71875 C 25.867188 16.570312 25.867188 16.570312 25.703125 16.484375 C 25.742188 16.082031 25.953125 15.796875 26.171875 15.46875 C 26.230469 15.492188 26.292969 15.515625 26.351562 15.542969 C 26.5 15.601562 26.648438 15.652344 26.796875 15.703125 C 26.796875 15.652344 26.796875 15.601562 26.796875 15.546875 C 26.847656 15.519531 26.898438 15.496094 26.953125 15.46875 C 26.953125 15.261719 26.953125 15.054688 26.953125 14.84375 C 27.027344 14.820312 27.027344 14.820312 27.101562 14.796875 C 27.164062 14.773438 27.230469 14.753906 27.296875 14.730469 C 27.359375 14.710938 27.421875 14.691406 27.488281 14.667969 C 27.875 14.535156 27.875 14.535156 28.125 14.609375 Z M 28.125 14.609375 "/>
    <path style=" stroke:none;fill-rule:nonzero;fill:rgb(34.901962%,45.490196%,45.09804%);fill-opacity:1;" d="M 33.84375 14.570312 C 33.96875 14.632812 34.09375 14.699219 34.21875 14.765625 C 34.246094 14.664062 34.269531 14.558594 34.296875 14.453125 C 34.605469 14.453125 34.914062 14.453125 35.234375 14.453125 C 35.242188 14.984375 35.25 15.519531 35.253906 16.050781 C 35.257812 16.230469 35.261719 16.410156 35.265625 16.59375 C 35.269531 16.851562 35.269531 17.113281 35.273438 17.375 C 35.273438 17.457031 35.277344 17.535156 35.277344 17.617188 C 35.277344 18.253906 35.109375 18.707031 34.667969 19.171875 C 34.078125 19.515625 33.492188 19.609375 32.8125 19.53125 C 32.257812 19.386719 31.851562 19.160156 31.539062 18.667969 C 31.484375 18.515625 31.484375 18.515625 31.484375 18.203125 C 31.675781 18.195312 31.863281 18.191406 32.054688 18.1875 C 32.109375 18.1875 32.164062 18.183594 32.21875 18.183594 C 32.625 18.175781 32.625 18.175781 32.789062 18.320312 C 32.824219 18.359375 32.855469 18.398438 32.890625 18.4375 C 33.058594 18.472656 33.058594 18.472656 33.242188 18.46875 C 33.300781 18.46875 33.363281 18.46875 33.425781 18.46875 C 33.636719 18.429688 33.703125 18.375 33.828125 18.203125 C 33.886719 17.921875 33.886719 17.921875 33.90625 17.65625 C 33.820312 17.695312 33.730469 17.734375 33.640625 17.773438 C 33.144531 17.957031 32.652344 17.984375 32.164062 17.765625 C 31.753906 17.527344 31.460938 17.171875 31.289062 16.726562 C 31.164062 16.214844 31.171875 15.710938 31.414062 15.238281 C 31.984375 14.351562 32.894531 14.140625 33.84375 14.570312 Z M 33.84375 14.570312 "/>
    <path style=" stroke:none;fill-rule:nonzero;fill:rgb(99.607843%,99.607843%,98.823529%);fill-opacity:1;" d="M 24.003906 28.5625 C 24.527344 29.003906 24.863281 29.398438 24.941406 30.101562 C 24.972656 30.734375 24.789062 31.277344 24.40625 31.78125 C 24.003906 32.214844 23.367188 32.503906 22.777344 32.535156 C 22.203125 32.527344 21.679688 32.273438 21.25 31.894531 C 20.738281 31.324219 20.640625 30.757812 20.667969 30.015625 C 20.710938 29.46875 20.953125 29.117188 21.339844 28.742188 C 22.105469 28.101562 23.160156 27.972656 24.003906 28.5625 Z M 24.003906 28.5625 "/>
    <path style=" stroke:none;fill-rule:nonzero;fill:rgb(34.509805%,45.490196%,45.09804%);fill-opacity:1;" d="M 13.917969 14.523438 C 14.464844 14.851562 14.828125 15.238281 15 15.859375 C 15.070312 16.394531 14.9375 16.867188 14.6875 17.34375 C 14.449219 17.621094 14.167969 17.828125 13.828125 17.96875 C 13.726562 17.96875 13.621094 17.96875 13.515625 17.96875 C 13.515625 18.019531 13.515625 18.070312 13.515625 18.125 C 12.789062 18.167969 12.171875 18.1875 11.5625 17.734375 C 11.183594 17.386719 10.964844 17.046875 10.910156 16.523438 C 10.890625 15.53125 10.890625 15.53125 11.203125 15.128906 C 11.914062 14.402344 12.945312 14.082031 13.917969 14.523438 Z M 13.917969 14.523438 "/>
    <path style=" stroke:none;fill-rule:nonzero;fill:rgb(48.235294%,64.313728%,80.392158%);fill-opacity:1;" d="M 18.125 22.890625 C 18.355469 22.917969 18.589844 22.941406 18.828125 22.96875 C 18.839844 23.078125 18.839844 23.078125 18.851562 23.195312 C 18.882812 23.460938 18.882812 23.460938 19.140625 23.59375 C 19.230469 23.589844 19.320312 23.585938 19.414062 23.585938 C 19.6875 23.59375 19.6875 23.59375 19.84375 23.71875 C 19.949219 23.972656 19.90625 24.113281 19.84375 24.375 C 19.816406 24.558594 19.792969 24.738281 19.765625 24.921875 C 19.960938 25 19.960938 25 20.15625 25.078125 C 20.105469 25.308594 20.054688 25.542969 20 25.78125 C 19.84375 25.78125 19.691406 25.78125 19.53125 25.78125 C 19.519531 25.878906 19.507812 25.976562 19.496094 26.078125 C 19.472656 26.285156 19.441406 26.441406 19.375 26.640625 C 19.195312 26.78125 19.195312 26.78125 18.984375 26.875 C 18.835938 26.8125 18.835938 26.8125 18.671875 26.71875 C 18.488281 26.710938 18.308594 26.710938 18.125 26.71875 C 18.074219 26.820312 18.023438 26.925781 17.96875 27.03125 C 17.441406 27.039062 17.441406 27.039062 17.265625 26.953125 C 17.265625 26.796875 17.265625 26.644531 17.265625 26.484375 C 17.042969 26.34375 16.945312 26.328125 16.675781 26.34375 C 16.585938 26.339844 16.496094 26.332031 16.40625 26.328125 C 16.21875 26.105469 16.167969 25.984375 16.183594 25.695312 C 16.199219 25.613281 16.21875 25.53125 16.234375 25.445312 C 16.253906 25.359375 16.269531 25.277344 16.285156 25.191406 C 16.300781 25.128906 16.3125 25.066406 16.328125 25 C 16.132812 24.921875 16.132812 24.921875 15.9375 24.84375 C 15.964844 24.664062 15.988281 24.484375 16.015625 24.296875 C 16.089844 24.277344 16.164062 24.253906 16.242188 24.234375 C 16.503906 24.160156 16.503906 24.160156 16.640625 23.90625 C 16.632812 23.816406 16.628906 23.730469 16.621094 23.636719 C 16.628906 23.546875 16.632812 23.453125 16.640625 23.359375 C 16.882812 23.148438 17.019531 23.046875 17.34375 23.046875 C 17.371094 23.097656 17.394531 23.148438 17.421875 23.203125 C 17.628906 23.203125 17.835938 23.203125 18.046875 23.203125 C 18.074219 23.101562 18.097656 22.996094 18.125 22.890625 Z M 18.125 22.890625 "/>
    <path style=" stroke:none;fill-rule:nonzero;fill:rgb(33.725491%,44.705883%,44.313726%);fill-opacity:1;" d="M 18.125 13.125 C 18.539062 13.125 18.949219 13.125 19.375 13.125 C 19.375 13.949219 19.375 14.773438 19.375 15.625 C 19.644531 15.585938 19.644531 15.585938 19.921875 15.546875 C 20.054688 15.328125 20.054688 15.328125 20.101562 15.171875 C 20.179688 14.925781 20.289062 14.691406 20.390625 14.453125 C 20.828125 14.453125 21.265625 14.453125 21.71875 14.453125 C 21.632812 15.035156 21.457031 15.492188 21.183594 16.015625 C 21.078125 16.285156 21.074219 16.371094 21.171875 16.640625 C 21.28125 16.847656 21.402344 17.042969 21.527344 17.242188 C 21.875 17.792969 21.875 17.792969 21.875 17.96875 C 21.386719 17.96875 20.894531 17.96875 20.390625 17.96875 C 20.101562 17.386719 20.101562 17.386719 20.015625 17.203125 C 19.988281 17.15625 19.964844 17.109375 19.941406 17.0625 C 19.917969 17.011719 19.890625 16.964844 19.867188 16.914062 C 19.746094 16.75 19.746094 16.75 19.375 16.71875 C 19.375 17.132812 19.375 17.542969 19.375 17.96875 C 18.960938 17.96875 18.550781 17.96875 18.125 17.96875 C 18.125 16.371094 18.125 14.773438 18.125 13.125 Z M 18.125 13.125 "/>
    <path style=" stroke:none;fill-rule:nonzero;fill:rgb(23.921569%,23.921569%,23.921569%);fill-opacity:1;" d="M 23.671875 18.28125 C 23.75 18.460938 23.828125 18.640625 23.90625 18.828125 C 24.144531 18.855469 24.371094 18.871094 24.609375 18.828125 C 24.816406 18.605469 24.816406 18.605469 24.921875 18.359375 C 25.207031 18.414062 25.429688 18.535156 25.683594 18.675781 C 25.761719 18.71875 25.835938 18.761719 25.917969 18.804688 C 25.976562 18.839844 26.035156 18.871094 26.09375 18.90625 C 26.050781 19.117188 26.007812 19.328125 25.957031 19.539062 C 25.910156 19.765625 25.910156 19.765625 26.050781 19.902344 C 26.089844 19.933594 26.128906 19.96875 26.171875 20 C 26.171875 20.050781 26.171875 20.101562 26.171875 20.15625 C 26.242188 20.128906 26.308594 20.101562 26.382812 20.074219 C 26.652344 19.996094 26.765625 20.015625 27.03125 20.078125 C 27.085938 20.222656 27.136719 20.371094 27.1875 20.515625 C 27.214844 20.597656 27.246094 20.679688 27.273438 20.765625 C 27.34375 21.015625 27.355469 21.222656 27.34375 21.484375 C 27.164062 21.5625 26.984375 21.640625 26.796875 21.71875 C 26.769531 21.949219 26.746094 22.183594 26.71875 22.421875 C 26.898438 22.523438 27.078125 22.628906 27.265625 22.734375 C 27.210938 23.019531 27.089844 23.242188 26.949219 23.496094 C 26.90625 23.574219 26.863281 23.648438 26.820312 23.730469 C 26.785156 23.789062 26.753906 23.847656 26.71875 23.90625 C 26.269531 23.835938 26.269531 23.835938 26.089844 23.765625 C 25.917969 23.734375 25.917969 23.734375 25.71875 23.859375 C 25.53125 24.039062 25.53125 24.039062 25.539062 24.238281 C 25.558594 24.417969 25.585938 24.589844 25.625 24.765625 C 24.648438 25.199219 24.648438 25.199219 24.140625 25.234375 C 23.90625 24.796875 23.90625 24.796875 23.90625 24.53125 C 23.664062 24.53125 23.4375 24.546875 23.203125 24.609375 C 23 24.835938 23 24.835938 22.890625 25.078125 C 22.589844 25.03125 22.355469 24.941406 22.085938 24.800781 C 22.015625 24.765625 21.945312 24.730469 21.875 24.691406 C 21.796875 24.652344 21.796875 24.652344 21.71875 24.609375 C 21.789062 24.082031 21.789062 24.082031 21.859375 23.890625 C 21.890625 23.738281 21.890625 23.738281 21.773438 23.574219 C 21.457031 23.367188 21.148438 23.414062 20.78125 23.4375 C 20.722656 23.265625 20.667969 23.09375 20.609375 22.921875 C 20.558594 22.773438 20.503906 22.625 20.449219 22.480469 C 20.386719 22.246094 20.402344 22.105469 20.46875 21.875 C 20.648438 21.824219 20.828125 21.773438 21.015625 21.71875 C 21.042969 21.488281 21.066406 21.253906 21.09375 21.015625 C 20.9375 20.964844 20.785156 20.914062 20.625 20.859375 C 20.546875 20.609375 20.539062 20.492188 20.628906 20.246094 C 20.671875 20.171875 20.714844 20.097656 20.757812 20.019531 C 20.796875 19.945312 20.839844 19.867188 20.878906 19.792969 C 21.015625 19.609375 21.015625 19.609375 21.171875 19.535156 C 21.328125 19.53125 21.328125 19.53125 21.5625 19.6875 C 21.832031 19.660156 21.957031 19.605469 22.1875 19.453125 C 22.214844 19.246094 22.214844 19.246094 22.203125 19.015625 C 22.199219 18.933594 22.199219 18.855469 22.195312 18.777344 C 22.191406 18.6875 22.191406 18.6875 22.1875 18.59375 C 22.363281 18.542969 22.535156 18.488281 22.710938 18.4375 C 22.855469 18.394531 22.855469 18.394531 23.003906 18.351562 C 23.242188 18.289062 23.429688 18.265625 23.671875 18.28125 Z M 22.578125 18.90625 C 22.597656 18.972656 22.597656 18.972656 22.617188 19.039062 C 22.660156 19.242188 22.679688 19.402344 22.65625 19.609375 C 22.488281 19.851562 22.289062 20.011719 22.03125 20.15625 C 21.746094 20.199219 21.523438 20.160156 21.25 20.078125 C 21.121094 20.21875 21.121094 20.21875 21.015625 20.390625 C 21.082031 20.675781 21.082031 20.675781 21.484375 20.859375 C 21.457031 21.246094 21.433594 21.632812 21.40625 22.03125 C 21.226562 22.082031 21.046875 22.132812 20.859375 22.1875 C 20.910156 22.417969 20.960938 22.652344 21.015625 22.890625 C 21.226562 22.9375 21.390625 22.972656 21.605469 22.945312 C 21.667969 22.953125 21.730469 22.960938 21.796875 22.96875 C 21.960938 23.1875 21.960938 23.1875 22.109375 23.4375 C 22.179688 23.496094 22.179688 23.496094 22.25 23.558594 C 22.28125 23.597656 22.3125 23.632812 22.34375 23.671875 C 22.324219 23.863281 22.324219 23.863281 22.265625 24.0625 C 22.25 24.121094 22.238281 24.183594 22.222656 24.242188 C 22.210938 24.285156 22.199219 24.332031 22.1875 24.375 C 22.441406 24.550781 22.441406 24.550781 22.734375 24.609375 C 22.8125 24.453125 22.890625 24.300781 22.96875 24.140625 C 23.355469 24.167969 23.742188 24.191406 24.140625 24.21875 C 24.21875 24.398438 24.296875 24.578125 24.375 24.765625 C 24.632812 24.6875 24.890625 24.609375 25.15625 24.53125 C 25.128906 24.441406 25.101562 24.351562 25.074219 24.257812 C 25.039062 24.007812 25.0625 23.929688 25.214844 23.722656 C 25.675781 23.28125 25.675781 23.28125 26.046875 23.277344 C 26.113281 23.304688 26.179688 23.332031 26.25 23.359375 C 26.367188 23.398438 26.367188 23.398438 26.484375 23.4375 C 26.660156 23.183594 26.660156 23.183594 26.71875 22.890625 C 26.566406 22.78125 26.410156 22.675781 26.25 22.578125 C 26.277344 22.21875 26.300781 21.855469 26.328125 21.484375 C 26.507812 21.40625 26.6875 21.328125 26.875 21.25 C 26.859375 21.101562 26.859375 21.101562 26.839844 20.945312 C 26.835938 20.890625 26.828125 20.835938 26.820312 20.777344 C 26.804688 20.621094 26.804688 20.621094 26.71875 20.46875 C 26.652344 20.488281 26.652344 20.488281 26.582031 20.507812 C 26.378906 20.550781 26.222656 20.574219 26.015625 20.546875 C 25.8125 20.367188 25.6875 20.152344 25.546875 19.921875 C 25.496094 19.871094 25.445312 19.820312 25.390625 19.765625 C 25.414062 19.625 25.414062 19.625 25.46875 19.453125 C 25.496094 19.324219 25.523438 19.191406 25.546875 19.0625 C 25.390625 19.011719 25.238281 18.960938 25.078125 18.90625 C 24.894531 19.113281 24.894531 19.113281 24.84375 19.375 C 24.429688 19.324219 24.019531 19.273438 23.59375 19.21875 C 23.542969 19.0625 23.492188 18.910156 23.4375 18.75 C 23.117188 18.75 22.882812 18.8125 22.578125 18.90625 Z M 22.578125 18.90625 "/>
    <path style=" stroke:none;fill-rule:nonzero;fill:rgb(98.431373%,99.215686%,98.823529%);fill-opacity:1;" d="M 13.328125 29.742188 C 13.914062 29.703125 14.3125 29.859375 14.765625 30.234375 C 15.230469 30.730469 15.261719 31.199219 15.253906 31.855469 C 15.214844 32.351562 15.023438 32.660156 14.65625 32.992188 C 14.566406 33.066406 14.472656 33.136719 14.375 33.203125 C 14.273438 33.277344 14.273438 33.277344 14.171875 33.351562 C 13.675781 33.515625 13.15625 33.539062 12.664062 33.351562 C 12.234375 33.109375 11.96875 32.84375 11.71875 32.421875 C 11.691406 32.375 11.660156 32.328125 11.632812 32.28125 C 11.464844 31.867188 11.5 31.332031 11.609375 30.90625 C 11.8125 30.449219 12.191406 30.0625 12.648438 29.851562 C 12.875 29.789062 13.097656 29.769531 13.328125 29.742188 Z M 13.328125 29.742188 "/>
    <path style=" stroke:none;fill-rule:nonzero;fill:rgb(34.117648%,45.09804%,44.705883%);fill-opacity:1;" d="M 22.265625 13.359375 C 22.703125 13.359375 23.140625 13.359375 23.59375 13.359375 C 23.59375 14.46875 23.59375 15.578125 23.59375 16.71875 C 24.210938 16.71875 24.832031 16.71875 25.46875 16.71875 C 25.46875 17.132812 25.46875 17.542969 25.46875 17.96875 C 24.410156 17.96875 23.355469 17.96875 22.265625 17.96875 C 22.265625 16.449219 22.265625 14.925781 22.265625 13.359375 Z M 22.265625 13.359375 "/>
    <path style=" stroke:none;fill-rule:nonzero;fill:rgb(23.529412%,23.529412%,23.529412%);fill-opacity:1;" d="M 28.125 14.609375 C 28.164062 14.839844 28.164062 14.839844 28.203125 15.078125 C 28.382812 15.078125 28.5625 15.078125 28.75 15.078125 C 28.800781 14.949219 28.851562 14.820312 28.90625 14.6875 C 29.347656 14.722656 29.578125 14.820312 29.921875 15.078125 C 29.90625 15.175781 29.890625 15.273438 29.875 15.371094 C 29.839844 15.632812 29.839844 15.792969 30 16.015625 C 30.042969 15.988281 30.085938 15.960938 30.132812 15.933594 C 30.355469 15.84375 30.472656 15.882812 30.703125 15.9375 C 30.746094 16.0625 30.785156 16.183594 30.824219 16.308594 C 30.847656 16.378906 30.871094 16.445312 30.894531 16.515625 C 30.9375 16.726562 30.933594 16.832031 30.859375 17.03125 C 30.78125 17.109375 30.78125 17.109375 30.582031 17.113281 C 30.519531 17.113281 30.457031 17.109375 30.390625 17.109375 C 30.410156 17.503906 30.410156 17.503906 30.628906 17.808594 C 30.679688 17.835938 30.730469 17.863281 30.78125 17.890625 C 30.742188 18.304688 30.605469 18.558594 30.390625 18.90625 C 30.332031 18.894531 30.273438 18.878906 30.214844 18.867188 C 29.984375 18.820312 29.984375 18.820312 29.6875 18.828125 C 29.542969 19.074219 29.515625 19.246094 29.53125 19.53125 C 28.796875 19.890625 28.796875 19.890625 28.4375 19.84375 C 28.386719 19.6875 28.335938 19.535156 28.28125 19.375 C 28.058594 19.34375 28.058594 19.34375 27.8125 19.375 C 27.660156 19.5625 27.660156 19.5625 27.578125 19.765625 C 27.175781 19.726562 26.890625 19.515625 26.5625 19.296875 C 26.585938 19.140625 26.609375 18.988281 26.632812 18.832031 C 26.652344 18.65625 26.652344 18.65625 26.5625 18.4375 C 26.460938 18.453125 26.363281 18.46875 26.257812 18.484375 C 26.089844 18.515625 26.089844 18.515625 25.9375 18.515625 C 25.671875 18.25 25.628906 17.914062 25.617188 17.542969 C 25.617188 17.476562 25.621094 17.410156 25.625 17.34375 C 25.753906 17.292969 25.882812 17.242188 26.015625 17.1875 C 26.042969 16.964844 26.042969 16.964844 26.015625 16.71875 C 25.867188 16.570312 25.867188 16.570312 25.703125 16.484375 C 25.742188 16.082031 25.953125 15.796875 26.171875 15.46875 C 26.230469 15.492188 26.292969 15.515625 26.351562 15.542969 C 26.5 15.601562 26.648438 15.652344 26.796875 15.703125 C 26.796875 15.652344 26.796875 15.601562 26.796875 15.546875 C 26.847656 15.519531 26.898438 15.496094 26.953125 15.46875 C 26.953125 15.261719 26.953125 15.054688 26.953125 14.84375 C 27.027344 14.820312 27.027344 14.820312 27.101562 14.796875 C 27.164062 14.773438 27.230469 14.753906 27.296875 14.730469 C 27.359375 14.710938 27.421875 14.691406 27.488281 14.667969 C 27.875 14.535156 27.875 14.535156 28.125 14.609375 Z M 27.421875 15.078125 C 27.433594 15.160156 27.445312 15.238281 27.457031 15.320312 C 27.421875 15.640625 27.402344 15.691406 27.183594 15.898438 C 26.941406 16.082031 26.890625 16.09375 26.566406 16.085938 C 26.488281 16.0625 26.410156 16.039062 26.328125 16.015625 C 26.277344 16.117188 26.226562 16.222656 26.171875 16.328125 C 26.367188 16.40625 26.367188 16.40625 26.5625 16.484375 C 26.558594 16.636719 26.554688 16.789062 26.546875 16.9375 C 26.546875 17.023438 26.542969 17.105469 26.539062 17.195312 C 26.484375 17.421875 26.484375 17.421875 26.285156 17.570312 C 26.222656 17.597656 26.160156 17.625 26.09375 17.65625 C 26.121094 17.785156 26.144531 17.914062 26.171875 18.046875 C 26.253906 18.039062 26.335938 18.027344 26.421875 18.015625 C 26.71875 18.046875 26.71875 18.046875 26.949219 18.242188 C 27.164062 18.535156 27.140625 18.789062 27.109375 19.140625 C 27.210938 19.167969 27.316406 19.191406 27.421875 19.21875 C 27.449219 19.117188 27.472656 19.011719 27.5 18.90625 C 27.835938 18.933594 28.171875 18.957031 28.515625 18.984375 C 28.566406 19.113281 28.617188 19.242188 28.671875 19.375 C 28.867188 19.335938 28.867188 19.335938 29.0625 19.296875 C 29.054688 19.214844 29.042969 19.128906 29.03125 19.042969 C 29.046875 18.898438 29.046875 18.898438 29.0625 18.75 C 29.289062 18.570312 29.289062 18.570312 29.53125 18.4375 C 29.582031 18.386719 29.632812 18.335938 29.6875 18.28125 C 29.96875 18.3125 29.96875 18.3125 30.234375 18.359375 C 30.261719 18.257812 30.285156 18.152344 30.3125 18.046875 C 30.210938 17.996094 30.105469 17.945312 30 17.890625 C 30 17.554688 30 17.21875 30 16.875 C 30.15625 16.847656 30.308594 16.824219 30.46875 16.796875 C 30.429688 16.566406 30.429688 16.566406 30.390625 16.328125 C 30.082031 16.367188 30.082031 16.367188 29.765625 16.40625 C 29.746094 16.359375 29.722656 16.3125 29.703125 16.265625 C 29.621094 16.089844 29.621094 16.089844 29.476562 15.996094 C 29.34375 15.820312 29.371094 15.746094 29.398438 15.53125 C 29.417969 15.433594 29.433594 15.335938 29.453125 15.234375 C 29.351562 15.207031 29.246094 15.183594 29.140625 15.15625 C 29.113281 15.207031 29.082031 15.261719 29.054688 15.3125 C 28.90625 15.46875 28.90625 15.46875 28.679688 15.480469 C 28.59375 15.472656 28.507812 15.460938 28.421875 15.449219 C 28.296875 15.433594 28.296875 15.433594 28.164062 15.417969 C 28.101562 15.410156 28.035156 15.398438 27.96875 15.390625 C 27.917969 15.261719 27.867188 15.132812 27.8125 15 C 27.640625 14.992188 27.640625 14.992188 27.421875 15.078125 Z M 27.421875 15.078125 "/>
    <path style=" stroke:none;fill-rule:nonzero;fill:rgb(33.725491%,44.705883%,44.313726%);fill-opacity:1;" d="M 17.8125 14.453125 C 17.8125 14.839844 17.8125 15.226562 17.8125 15.625 C 17.621094 15.632812 17.429688 15.640625 17.242188 15.648438 C 16.925781 15.730469 16.824219 15.824219 16.640625 16.09375 C 16.582031 16.414062 16.578125 16.730469 16.578125 17.054688 C 16.574219 17.144531 16.574219 17.230469 16.570312 17.320312 C 16.566406 17.535156 16.5625 17.753906 16.5625 17.96875 C 16.148438 17.96875 15.738281 17.96875 15.3125 17.96875 C 15.3125 16.835938 15.3125 15.699219 15.3125 14.53125 C 15.621094 14.53125 15.929688 14.53125 16.25 14.53125 C 16.277344 14.632812 16.300781 14.738281 16.328125 14.84375 C 16.371094 14.816406 16.410156 14.789062 16.453125 14.757812 C 16.933594 14.460938 17.253906 14.414062 17.8125 14.453125 Z M 17.8125 14.453125 "/>
    <path style=" stroke:none;fill-rule:nonzero;fill:rgb(98.431373%,98.431373%,98.431373%);fill-opacity:1;" d="M 24.390625 20.464844 C 24.761719 20.683594 25.039062 20.9375 25.234375 21.328125 C 25.300781 21.769531 25.269531 22.113281 25.035156 22.496094 C 24.800781 22.804688 24.601562 22.949219 24.21875 23.046875 C 23.835938 23.085938 23.460938 23.097656 23.125 22.890625 C 22.765625 22.523438 22.566406 22.269531 22.542969 21.75 C 22.546875 21.316406 22.625 21.070312 22.914062 20.746094 C 23.332031 20.363281 23.863281 20.238281 24.390625 20.464844 Z M 24.390625 20.464844 "/>
    <path style=" stroke:none;fill-rule:nonzero;fill:rgb(95.294118%,95.294118%,95.294118%);fill-opacity:1;" d="M 27.8125 15 C 27.863281 15.128906 27.914062 15.257812 27.96875 15.390625 C 28.121094 15.414062 28.269531 15.429688 28.421875 15.449219 C 28.507812 15.460938 28.589844 15.472656 28.679688 15.480469 C 28.914062 15.496094 28.914062 15.496094 29.054688 15.3125 C 29.082031 15.261719 29.109375 15.210938 29.140625 15.15625 C 29.242188 15.183594 29.347656 15.207031 29.453125 15.234375 C 29.433594 15.328125 29.410156 15.425781 29.390625 15.523438 C 29.359375 15.691406 29.359375 15.691406 29.375 15.859375 C 29.554688 16.085938 29.554688 16.085938 29.765625 16.25 C 29.765625 16.300781 29.765625 16.351562 29.765625 16.40625 C 30.074219 16.367188 30.074219 16.367188 30.390625 16.328125 C 30.429688 16.558594 30.429688 16.558594 30.46875 16.796875 C 30.238281 16.835938 30.238281 16.835938 30 16.875 C 30 17.210938 30 17.546875 30 17.890625 C 30.101562 17.941406 30.207031 17.992188 30.3125 18.046875 C 30.285156 18.148438 30.261719 18.253906 30.234375 18.359375 C 30.152344 18.339844 30.074219 18.316406 29.992188 18.296875 C 29.660156 18.277344 29.660156 18.277344 29.429688 18.46875 C 29.359375 18.535156 29.289062 18.601562 29.21875 18.671875 C 29.140625 18.710938 29.140625 18.710938 29.0625 18.75 C 29.0625 18.929688 29.0625 19.109375 29.0625 19.296875 C 28.867188 19.335938 28.867188 19.335938 28.671875 19.375 C 28.621094 19.246094 28.570312 19.117188 28.515625 18.984375 C 28.179688 18.957031 27.84375 18.933594 27.5 18.90625 C 27.472656 19.007812 27.449219 19.113281 27.421875 19.21875 C 27.320312 19.191406 27.214844 19.167969 27.109375 19.140625 C 27.121094 19 27.121094 19 27.132812 18.859375 C 27.132812 18.601562 27.097656 18.449219 26.949219 18.242188 C 26.730469 18.019531 26.730469 18.019531 26.421875 18.015625 C 26.339844 18.027344 26.257812 18.035156 26.171875 18.046875 C 26.144531 17.917969 26.121094 17.789062 26.09375 17.65625 C 26.15625 17.628906 26.21875 17.597656 26.285156 17.570312 C 26.507812 17.4375 26.507812 17.4375 26.539062 17.195312 C 26.542969 17.109375 26.546875 17.023438 26.546875 16.9375 C 26.550781 16.855469 26.554688 16.769531 26.558594 16.679688 C 26.558594 16.617188 26.5625 16.550781 26.5625 16.484375 C 26.367188 16.40625 26.367188 16.40625 26.171875 16.328125 C 26.222656 16.226562 26.273438 16.121094 26.328125 16.015625 C 26.40625 16.039062 26.484375 16.0625 26.566406 16.085938 C 26.890625 16.09375 26.941406 16.082031 27.183594 15.898438 C 27.402344 15.691406 27.421875 15.640625 27.457031 15.320312 C 27.445312 15.242188 27.433594 15.160156 27.421875 15.078125 C 27.65625 15 27.65625 15 27.8125 15 Z M 27.125 16.40625 C 26.933594 16.660156 26.933594 16.660156 26.875 16.953125 C 26.867188 17.050781 26.855469 17.148438 26.84375 17.246094 C 26.851562 17.738281 27.125 18.066406 27.464844 18.398438 C 27.90625 18.589844 28.378906 18.601562 28.839844 18.46875 C 29.222656 18.28125 29.457031 17.964844 29.609375 17.578125 C 29.691406 17.164062 29.65625 16.824219 29.449219 16.453125 C 29.234375 16.164062 29.023438 15.964844 28.671875 15.859375 C 27.992188 15.765625 27.585938 15.890625 27.125 16.40625 Z M 27.125 16.40625 "/>
    <path style=" stroke:none;fill-rule:nonzero;fill:rgb(23.921569%,23.921569%,23.921569%);fill-opacity:1;" d="M 24.59375 20.078125 C 25.101562 20.347656 25.425781 20.710938 25.625 21.25 C 25.730469 21.789062 25.628906 22.238281 25.363281 22.714844 C 25.125 23.042969 24.8125 23.257812 24.453125 23.4375 C 23.816406 23.5 23.242188 23.53125 22.71875 23.121094 C 22.480469 22.863281 22.328125 22.582031 22.1875 22.265625 C 22.160156 22.214844 22.136719 22.164062 22.109375 22.109375 C 22.050781 21.578125 22.097656 21.140625 22.421875 20.703125 C 23.023438 20.066406 23.726562 19.769531 24.59375 20.078125 Z M 22.695312 20.980469 C 22.519531 21.382812 22.519531 21.757812 22.578125 22.1875 C 22.699219 22.460938 22.699219 22.460938 22.890625 22.65625 C 22.941406 22.714844 22.992188 22.777344 23.046875 22.835938 C 23.332031 23.078125 23.671875 23.074219 24.03125 23.066406 C 24.414062 23.023438 24.703125 22.882812 24.96875 22.601562 C 25.222656 22.253906 25.289062 21.9375 25.265625 21.511719 C 25.1875 21.0625 24.890625 20.796875 24.53125 20.546875 C 23.828125 20.144531 23.214844 20.445312 22.695312 20.980469 Z M 22.695312 20.980469 "/>
    <path style=" stroke:none;fill-rule:nonzero;fill:rgb(98.431373%,98.823529%,99.215686%);fill-opacity:1;" d="M 18.28125 23.90625 C 18.636719 24.074219 18.921875 24.230469 19.0625 24.609375 C 19.121094 24.972656 19.097656 25.246094 18.929688 25.578125 C 18.652344 25.894531 18.480469 26 18.054688 26.054688 C 17.695312 26.039062 17.4375 25.882812 17.1875 25.625 C 16.972656 25.28125 16.980469 24.925781 17.03125 24.53125 C 17.292969 24.0625 17.746094 23.820312 18.28125 23.90625 Z M 18.28125 23.90625 "/>
    <path style=" stroke:none;fill-rule:nonzero;fill:rgb(97.647059%,97.647059%,97.647059%);fill-opacity:1;" d="M 28.515625 16.25 C 28.835938 16.386719 29.039062 16.574219 29.21875 16.875 C 29.273438 17.183594 29.246094 17.429688 29.132812 17.71875 C 28.914062 17.972656 28.695312 18.09375 28.363281 18.152344 C 28.050781 18.175781 27.867188 18.136719 27.621094 17.9375 C 27.316406 17.628906 27.3125 17.417969 27.316406 16.996094 C 27.359375 16.675781 27.5 16.546875 27.734375 16.328125 C 27.984375 16.203125 28.242188 16.222656 28.515625 16.25 Z M 28.515625 16.25 "/>
    <path style=" stroke:none;fill-rule:nonzero;fill:rgb(96.078432%,96.470588%,96.470588%);fill-opacity:1;" d="M 13.203125 15.46875 C 13.429688 15.566406 13.550781 15.644531 13.695312 15.84375 C 13.796875 16.164062 13.792969 16.398438 13.648438 16.699219 C 13.496094 16.902344 13.371094 17.015625 13.117188 17.058594 C 12.792969 17.070312 12.621094 17.058594 12.339844 16.882812 C 12.125 16.539062 12.109375 16.253906 12.1875 15.859375 C 12.453125 15.445312 12.742188 15.382812 13.203125 15.46875 Z M 13.203125 15.46875 "/>
    <path style=" stroke:none;fill-rule:nonzero;fill:rgb(95.686275%,95.686275%,96.078432%);fill-opacity:1;" d="M 33.515625 15.390625 C 33.746094 15.511719 33.867188 15.597656 33.957031 15.847656 C 34.015625 16.144531 33.992188 16.308594 33.875 16.597656 C 33.628906 16.839844 33.480469 16.875 33.140625 16.894531 C 32.878906 16.863281 32.75 16.75 32.578125 16.5625 C 32.457031 16.320312 32.476562 16.125 32.5 15.859375 C 32.789062 15.417969 32.992188 15.347656 33.515625 15.390625 Z M 33.515625 15.390625 "/>
    <path style=" stroke:none;fill-rule:nonzero;fill:rgb(81.960785%,84.313726%,84.313726%);fill-opacity:1;" d="M 22.1875 13.359375 C 22.214844 13.359375 22.238281 13.359375 22.265625 13.359375 C 22.265625 14.878906 22.265625 16.402344 22.265625 17.96875 C 23.324219 17.96875 24.378906 17.96875 25.46875 17.96875 C 25.078125 18.359375 25.078125 18.359375 24.90625 18.523438 C 24.75 18.675781 24.75 18.675781 24.609375 18.90625 C 24.441406 18.929688 24.441406 18.929688 24.25 18.921875 C 24.183594 18.917969 24.121094 18.917969 24.054688 18.914062 C 24.003906 18.910156 23.957031 18.910156 23.90625 18.90625 C 23.828125 18.726562 23.75 18.546875 23.671875 18.359375 C 23.246094 18.398438 23.246094 18.398438 22.8125 18.4375 C 22.8125 18.386719 22.8125 18.335938 22.8125 18.28125 C 23.042969 18.242188 23.042969 18.242188 23.28125 18.203125 C 23.28125 18.152344 23.28125 18.101562 23.28125 18.046875 C 22.921875 18.046875 22.558594 18.046875 22.1875 18.046875 C 22.1875 16.5 22.1875 14.953125 22.1875 13.359375 Z M 22.1875 13.359375 "/>
    <path style=" stroke:none;fill-rule:nonzero;fill:rgb(90.980393%,92.156863%,92.156863%);fill-opacity:1;" d="M 33.90625 17.65625 C 33.945312 18.140625 33.945312 18.140625 33.792969 18.394531 C 33.507812 18.570312 33.21875 18.582031 32.890625 18.515625 C 32.855469 18.476562 32.824219 18.4375 32.789062 18.398438 C 32.578125 18.210938 32.328125 18.238281 32.054688 18.226562 C 31.972656 18.222656 31.972656 18.222656 31.890625 18.21875 C 31.753906 18.214844 31.621094 18.207031 31.484375 18.203125 C 31.457031 18.253906 31.433594 18.304688 31.40625 18.359375 C 31.40625 18.28125 31.40625 18.203125 31.40625 18.125 C 31.792969 18.097656 32.179688 18.074219 32.578125 18.046875 C 32.578125 18.019531 32.578125 17.996094 32.578125 17.96875 C 32.714844 17.957031 32.714844 17.957031 32.855469 17.945312 C 33.21875 17.902344 33.558594 17.65625 33.90625 17.65625 Z M 33.90625 17.65625 "/>
    <path style=" stroke:none;fill-rule:nonzero;fill:rgb(90.980393%,90.588236%,90.588236%);fill-opacity:1;" d="M 23.28125 18.046875 C 23.925781 18.074219 24.570312 18.097656 25.234375 18.125 C 25.15625 18.242188 25.15625 18.242188 25.078125 18.359375 C 25 18.332031 24.921875 18.308594 24.84375 18.28125 C 24.152344 18.246094 23.488281 18.28125 22.8125 18.4375 C 22.8125 18.386719 22.8125 18.335938 22.8125 18.28125 C 22.96875 18.253906 23.121094 18.230469 23.28125 18.203125 C 23.28125 18.152344 23.28125 18.101562 23.28125 18.046875 Z M 23.28125 18.046875 "/>
    <path style=" stroke:none;fill-rule:nonzero;fill:rgb(85.490197%,87.058824%,87.058824%);fill-opacity:1;" d="M 9.921875 17.734375 C 9.949219 17.835938 9.972656 17.941406 10 18.046875 C 9.746094 18.195312 9.550781 18.226562 9.257812 18.226562 C 9.183594 18.230469 9.109375 18.230469 9.035156 18.230469 C 8.828125 18.203125 8.828125 18.203125 8.515625 17.96875 C 8.980469 17.96875 9.445312 17.96875 9.921875 17.96875 C 9.921875 17.890625 9.921875 17.8125 9.921875 17.734375 Z M 9.921875 17.734375 "/>
    <path style=" stroke:none;fill-rule:nonzero;fill:rgb(85.09804%,86.666667%,86.666667%);fill-opacity:1;" d="M 21.875 17.890625 C 21.902344 17.941406 21.925781 17.992188 21.953125 18.046875 C 21.824219 18.046875 21.695312 18.046875 21.5625 18.046875 C 21.5625 18.097656 21.5625 18.148438 21.5625 18.203125 C 21.410156 18.210938 21.261719 18.214844 21.109375 18.21875 C 21.023438 18.21875 20.941406 18.222656 20.851562 18.226562 C 20.625 18.203125 20.625 18.203125 20.390625 17.96875 C 20.878906 17.941406 21.371094 17.917969 21.875 17.890625 Z M 21.875 17.890625 "/>
    <path style=" stroke:none;fill-rule:nonzero;fill:rgb(85.09804%,86.666667%,86.666667%);fill-opacity:1;" d="M 5.46875 17.890625 C 5.933594 17.917969 6.398438 17.941406 6.875 17.96875 C 6.519531 18.234375 6.519531 18.234375 6.171875 18.226562 C 6.105469 18.226562 6.039062 18.226562 5.972656 18.226562 C 5.773438 18.203125 5.640625 18.148438 5.46875 18.046875 C 5.46875 17.996094 5.46875 17.945312 5.46875 17.890625 Z M 5.46875 17.890625 "/>
    <path style=" stroke:none;fill-rule:nonzero;fill:rgb(86.666667%,88.235295%,88.235295%);fill-opacity:1;" d="M 10.78125 15.078125 C 10.882812 15.15625 10.988281 15.234375 11.09375 15.3125 C 11.042969 15.699219 10.992188 16.085938 10.9375 16.484375 C 10.910156 16.484375 10.886719 16.484375 10.859375 16.484375 C 10.84375 16.324219 10.828125 16.164062 10.8125 16.003906 C 10.796875 15.933594 10.796875 15.933594 10.78125 15.859375 C 10.730469 15.832031 10.679688 15.808594 10.625 15.78125 C 10.675781 15.550781 10.726562 15.316406 10.78125 15.078125 Z M 10.78125 15.078125 "/>
    <path style=" stroke:none;fill-rule:nonzero;fill:rgb(84.705883%,86.274511%,86.666667%);fill-opacity:1;" d="M 18.125 17.96875 C 18.539062 17.96875 18.949219 17.96875 19.375 17.96875 C 19.140625 18.203125 19.140625 18.203125 18.945312 18.226562 C 18.878906 18.222656 18.808594 18.21875 18.734375 18.21875 C 18.664062 18.214844 18.59375 18.214844 18.523438 18.210938 C 18.441406 18.207031 18.441406 18.207031 18.359375 18.203125 C 18.359375 18.152344 18.359375 18.101562 18.359375 18.046875 C 18.28125 18.019531 18.203125 17.996094 18.125 17.96875 Z M 18.125 17.96875 "/>
    <path style=" stroke:none;fill-rule:nonzero;fill:rgb(19.215687%,19.215687%,19.215687%);fill-opacity:1;" d="M 25.46875 21.328125 C 25.496094 21.328125 25.519531 21.328125 25.546875 21.328125 C 25.546875 21.664062 25.546875 22 25.546875 22.34375 C 25.46875 22.382812 25.46875 22.382812 25.390625 22.421875 C 25.363281 22.371094 25.339844 22.320312 25.3125 22.265625 C 25.234375 22.304688 25.234375 22.304688 25.15625 22.34375 C 25.179688 22.234375 25.203125 22.121094 25.226562 22.011719 C 25.238281 21.949219 25.25 21.886719 25.261719 21.824219 C 25.3125 21.644531 25.378906 21.492188 25.46875 21.328125 Z M 25.46875 21.328125 "/>
    <path style=" stroke:none;fill-rule:nonzero;fill:rgb(84.705883%,86.274511%,86.274511%);fill-opacity:1;" d="M 15.3125 17.96875 C 15.726562 17.96875 16.136719 17.96875 16.5625 17.96875 C 16.207031 18.234375 16.207031 18.234375 15.9375 18.234375 C 15.886719 18.234375 15.835938 18.234375 15.78125 18.234375 C 15.625 18.203125 15.625 18.203125 15.3125 17.96875 Z M 15.3125 17.96875 "/>
    <path style=" stroke:none;fill-rule:nonzero;fill:rgb(36.862746%,47.058824%,46.666667%);fill-opacity:1;" d="M 31.875 14.6875 C 31.953125 14.714844 32.03125 14.738281 32.109375 14.765625 C 31.953125 14.921875 31.800781 15.074219 31.640625 15.234375 C 31.589844 15.207031 31.539062 15.183594 31.484375 15.15625 C 31.613281 15 31.742188 14.847656 31.875 14.6875 Z M 31.875 14.6875 "/>
    <path style=" stroke:none;fill-rule:nonzero;fill:rgb(78.431374%,81.568629%,81.568629%);fill-opacity:1;" d="M 7.65625 15.46875 C 7.707031 15.496094 7.757812 15.519531 7.8125 15.546875 C 7.859375 15.746094 7.859375 15.746094 7.890625 15.9375 C 7.761719 15.964844 7.632812 15.988281 7.5 16.015625 C 7.550781 15.835938 7.601562 15.65625 7.65625 15.46875 Z M 7.65625 15.46875 "/>
  </g>
</svg>
