<svg xmlns="http://www.w3.org/2000/svg" viewBox="0 0 512 512">
  &gt;
  <path d="M0 0h512v512H0z" fill="#fefefe"/>
  <path d="M298.125 333.25c5.244 1.015 9.905 2.787 14.875 4.75v11l5 2 2 1.688c1.936 1.572 1.936 1.572 4.375 1.062L327 353q2.997-.519 6-1a598 598 0 0 1 3.938 5.188l2.214 2.917c1.788 2.8 2.716 4.586 2.848 7.895l-2.5 1.938c-3.075 3.766-2.916 5.344-2.812 10.125.402 4.918.402 4.918 3.18 8.738 2.041.999 3.917 1.704 6.132 2.199.342 6.267-.552 11.203-3 17l-1 1h-4.687c-3.234.302-4.862.625-7.38 2.715-2.54 3.353-3.977 5.83-3.847 10.105.486 2.474 1.09 4.8 1.914 7.18-10.25 9-10.25 9-15.187 9-1.813-1-1.813-1-3.473-3.047-3.248-2.71-5.426-2.357-9.59-2.203l-3.828.11L293 433l-.875 2.813C291 439 291 439 289 442c-6.473 1.227-12.122-.388-18-3l.063-1.977c-.09-3.827-.25-6.863-2.489-10.058-3.143-2.753-5.273-4.044-9.527-3.785l-3.11.507c-5.306.773-5.306.773-8.226-1.355-3.525-4.33-6.152-8.594-5.711-14.332l2.5-2.125c2.828-2.643 2.828-2.643 2.613-6.074A153 153 0 0 0 246 390l-9-4c-.399-6.114.879-11.263 3-17 1.6-1.6 3.478-1.04 5.688-1.062 4.112-.402 6.251-1.114 9-4.25 2.533-3.85 2.355-6.28 1.625-10.75-.773-5.307-.773-5.307 1.355-8.227 4.33-3.525 8.594-6.152 14.332-5.711l2.125 2.563c2.633 2.728 2.633 2.728 5.898 2.609 6.53-.526 6.53-.526 11.688-4.106q1.144-2.15 2.21-4.34C295 334 295 334 298.126 333.25" fill="#fcca57"/>
  <path d="M174 357c5.605.42 10.72.916 16 3l-.027 1.793c.148 4.833.148 4.833 2.476 8.918 2.708 2.032 4.807 3.183 8.176 3.664 2.478-.391 4.929-.816 7.375-1.375 7.24 8.723 7.24 8.723 7 14l-2.023 1.781c-2.284 2.1-2.284 2.1-2.149 5.235l.422 3.234.39 3.266c.12.82.238 1.64.36 2.484l7 3c.379 5.93-.894 10.472-3 16l-1.828.008c-5.524.238-5.524.238-9.672 3.742-2.436 5.277-2.694 8.547-1.5 14.25-4.468 3.606-8.321 6.58-14 8l-1.75-2.562c-2.141-2.223-3.102-2.433-6.254-2.547-3.022.27-6 .626-8.996 1.109l-2 7c-5.778.236-10.513-.132-16-2v-10l-2.25-.812C149 437 149 437 146.938 435.313c-1.82-1.546-1.82-1.546-3.875-1.063L141 435c-1.665.34-3.332.676-5 1-3.323-3.772-6.233-7.219-8-12 .744-2.603 1.638-3.692 3.688-5.437L133 417c-.286-2.35-.286-2.35-1-5a195 195 0 0 1 0-7l-2.375-.437C127 404 127 404 125 403c-.354-6.518-.039-11.175 3-17h9l.813-2.312C139 381 139 381 140.625 379.633L142 378c-.159-2.334-.159-2.334-.812-4.812-.372-2.672-.372-2.672-.188-5.188 2.838-3.63 6.556-5.41 10.75-7.125L154 361l1.719 1.992c3.09 2.72 4.982 2.42 9.031 2.258l3.547-.11L171 365l.938-2.875C173 359 173 359 174 357" fill="#2c8565"/>
  <path d="m303 234 3 7c3.074.355 5.941.537 9 0 2.638-2.829 2.638-2.829 4-6 3.656.688 6.519 2.254 9.75 4.063l2.984 1.66L334 242a200 200 0 0 1-1.75 8.125c-.588 2.88-.588 2.88 1.188 4.625L335 256v2l2.688-1.062c3.439-.974 4.935-.76 8.312.062a556 556 0 0 1 2 5.625l1.125 3.164c.88 3.229 1.035 5.883.875 9.211l-7 3-1 9 7 4c-.688 3.656-2.254 6.519-4.062 9.75l-1.66 2.984L342 306c-5.742-.898-5.742-.898-8.062-1.812-2.166-.38-2.166-.38-4.75 1.187-2.407 2.347-2.407 2.347-2.282 4.898A68 68 0 0 0 328 317c-12.485 5.556-12.485 5.556-19 6-3-5.625-3-5.625-3-9-3.101.013-6 .18-9 1-2.62 2.883-2.62 2.883-4 6-3.85-.604-6.861-1.768-10.312-3.562-.884-.456-1.767-.91-2.676-1.38L278 315c.91-6.756.91-6.756 1.813-9.187.385-1.983.385-1.983-1.125-4.063-4.058-2.642-7.977-2.074-12.688-1.75q-1.104-3.307-2.195-6.617a145 145 0 0 0-2.055-5.633c-.823-3.018-.624-4.778.25-7.75l7-2 1-9-6-2c-.995-3.189-1.118-4.686.074-7.86l1.613-2.89 1.575-2.922C269 251 269 251 271.02 250.047 273 250 273 250 276 252c3.464-.346 5.05-1.033 8-3 .365-2.667.365-2.667.188-5.625l-.083-3.04L284 238q3.34-1.011 6.688-2l3.761-1.125c3.052-.752 5.44-1.065 8.551-.875" fill="#f8f8f8"/>
  <path d="M52 171h18a212 212 0 0 1 6.75 18.375l.675 2.09C78.478 194.842 79 197.423 79 201h2l.773-3.809c1.234-5.553 3.011-10.877 4.852-16.254l.984-2.912A2552 2552 0 0 1 90 171h17c2.848 6.75 5.179 13.533 7.249 20.553.963 3.206 1.878 5.637 3.751 8.447l9-29h18c-1.444 7.072-3.443 13.832-5.687 20.688l-2.141 6.613-1.092 3.362a2827 2827 0 0 0-5.018 15.712q-.856 2.7-1.714 5.398l-.719 2.264A449 449 0 0 1 127 230h-18a5321 5321 0 0 1-3.875-11l-1.105-3.121c-1.958-5.587-3.702-11.107-5.02-16.879l-.529 1.602a1148 1148 0 0 1-6.096 17.835l-.945 2.717-.907 2.592-.815 2.334C89 228 89 228 88 230H71c-1.972-4.601-3.61-8.706-5-13.437-1.059-3.52-2.11-7.01-3.437-10.438C58.129 194.608 54.864 182.988 52 171" fill="#577271"/>
  <path d="m360 187 1 6h7l2-5c5.625.45 8.615 1.684 13 5l-.625 3.75c-.436 3.37-.409 5.378 1.625 8.25l1.688-1.062c2.862-1.161 4.363-.637 7.312.062.533 1.58 1.051 3.164 1.563 4.75l.878 2.672c.58 2.674.512 4.045-.441 6.578-1 1-1 1-3.562 1.063L389 219c.234 5.035.234 5.035 3.063 8.938L394 229c-.515 5.281-2.255 8.572-5 13l-2.25-.5c-2.94-.62-2.94-.62-6.75-.5-1.858 3.135-2.201 5.375-2 9-9.41 4.592-9.41 4.592-14 4l-2-6c-2.874-.417-2.874-.417-6 0-1.935 2.39-1.935 2.39-3 5-5.155-.483-8.816-3.186-13-6l.879-5.957c.26-2.246.26-2.246-.879-5.043l-3.875.625c-2.18.352-2.18.352-4.125.375-3.42-3.42-3.953-7.72-4.125-12.437L328 222l5-2c.334-2.874.334-2.874 0-6-1.88-1.913-1.88-1.913-4-3 .483-5.155 3.186-8.816 6-13l2.313.938c1.875.74 3.774 1.424 5.687 2.062v-2l2-1v-8l1.898-.621 2.477-.816 2.46-.81c4.941-1.72 4.941-1.72 8.165-.753" fill="#3c3c3c"/>
  <path d="M433.188 186.5c1.614.813 3.222 1.64 4.812 2.5l1-4h12q.186 10.22.275 20.44.038 3.474.102 6.946c.061 3.339.09 6.677.111 10.016l.078 3.108c.004 8.152-2.18 13.917-7.816 19.865-7.527 4.448-15.07 5.642-23.75 4.625-7.099-1.834-12.295-4.749-16.312-11.062C403 237 403 237 403 233a524 524 0 0 1 7.313-.187l2.091-.077c5.209-.075 5.209-.075 7.295 1.752L421 236c2.175.473 2.175.473 4.5.375l2.344.023c2.681-.495 3.547-1.22 5.156-3.398.73-3.61.73-3.61 1-7l-3.375 1.5c-6.368 2.351-12.666 2.698-18.937-.125-5.26-3.022-9-7.58-11.176-13.266-1.588-6.545-1.51-13.012 1.613-19.047 7.294-11.373 18.937-14.085 31.063-8.562" fill="#597473"/>
  <path d="M307.273 365.582c6.668 5.689 10.985 10.742 11.985 19.738.38 8.097-1.969 15.042-6.883 21.493-5.131 5.55-13.293 9.217-20.812 9.625-7.38-.087-14.044-3.348-19.551-8.184-6.54-7.287-7.816-14.537-7.48-24.043.56-7.008 3.664-11.499 8.624-16.297 9.772-8.199 23.31-9.852 34.117-2.332" fill="#fefefc"/>
  <path d="M178.16 185.902c7.004 4.179 11.63 9.155 13.84 17.098.885 6.862-.794 12.878-4 19-3.063 3.575-6.653 6.186-11 8h-4v2c-9.308.558-17.213.808-25-5-4.864-4.458-7.662-8.824-8.371-15.488-.22-12.705-.22-12.705 3.75-17.867 9.14-9.272 22.329-13.403 34.781-7.743" fill="#587473"/>
  <path d="m232 293 9 1 .313 2.875c.372 3.416.372 3.416 3.687 5.125l3.5-.125c3.5.125 3.5.125 5.5 1.75 1.351 3.21.793 5.006 0 8.375q-.509 3.5-1 7l5 2-2 9h-6l-.437 3.813c-.3 2.614-.721 4.661-1.563 7.187-2.312 1.813-2.312 1.813-5 3-1.875-.812-1.875-.812-4-2a98 98 0 0 0-7 0l-2 4c-6.75.125-6.75.125-9-1v-6c-2.83-1.81-4.106-1.994-7.562-1.812L210 337c-2.376-2.85-3.029-4.382-2.855-8.113l.667-3.2.645-3.238L209 320l-5-2 1-7 2.875-.812c3.378-.938 3.378-.938 5.125-4.188l-.25-3.437L213 299c3.12-2.704 4.833-4 9-4l1 2h8z" fill="#7ba4cd"/>
  <path d="M232 168h16v32l7-1c1.712-2.816 1.712-2.816 2.297-4.82 1.013-3.14 2.403-6.147 3.703-9.18h17c-1.116 7.475-3.367 13.313-6.855 20.02-1.325 3.448-1.416 4.549-.145 7.98 1.404 2.64 2.963 5.163 4.563 7.688C280 227.75 280 227.75 280 230h-19c-3.687-7.437-3.687-7.437-4.815-9.783l-.947-1.838-.936-1.889c-1.538-2.065-1.538-2.065-6.302-2.49v16h-16z" fill="#567271"/>
  <path d="m303 234 3 7c3.074.355 5.941.537 9 0 2.638-2.829 2.638-2.829 4-6 3.656.688 6.519 2.254 9.75 4.063l2.984 1.66L334 242a200 200 0 0 1-1.75 8.125c-.588 2.88-.588 2.88 1.188 4.625L335 256v2l2.688-1.062c3.439-.974 4.935-.76 8.312.062a556 556 0 0 1 2 5.625l1.125 3.164c.88 3.229 1.035 5.883.875 9.211l-7 3-1 9 7 4c-.688 3.656-2.254 6.519-4.062 9.75l-1.66 2.984L342 306c-5.742-.898-5.742-.898-8.062-1.812-2.166-.38-2.166-.38-4.75 1.187-2.407 2.347-2.407 2.347-2.282 4.898A68 68 0 0 0 328 317c-12.485 5.556-12.485 5.556-19 6-3-5.625-3-5.625-3-9-3.101.013-6 .18-9 1-2.62 2.883-2.62 2.883-4 6-3.85-.604-6.861-1.768-10.312-3.562-.884-.456-1.767-.91-2.676-1.38L278 315c.91-6.756.91-6.756 1.813-9.187.385-1.983.385-1.983-1.125-4.063-4.058-2.642-7.977-2.074-12.688-1.75q-1.104-3.307-2.195-6.617a145 145 0 0 0-2.055-5.633c-.823-3.018-.624-4.778.25-7.75l7-2 1-9-6-2c-.995-3.189-1.118-4.686.074-7.86l1.613-2.89 1.575-2.922C269 251 269 251 271.02 250.047 273 250 273 250 276 252c3.464-.346 5.05-1.033 8-3 .365-2.667.365-2.667.188-5.625l-.083-3.04L284 238q3.34-1.011 6.688-2l3.761-1.125c3.052-.752 5.44-1.065 8.551-.875m-14 8 .5 1.723c.556 2.601.806 4.626.5 7.277-2.172 3.115-4.708 5.135-8 7-3.634.56-6.506.075-10-1-1.628 1.81-1.628 1.81-3 4 .855 3.65.855 3.65 6 6l-1 15-7 2 2 9c2.699.617 4.795 1.025 7.563.688L279 294c2.125 2.813 2.125 2.813 4 6l1.813 1.563L286 303c-.25 2.438-.25 2.438-1 5l-.562 2.313L284 312c3.254 2.259 3.254 2.259 7 3l3-6 15 1 3 7 10-3-1.062-3.5c-.423-3.194-.152-4.21 1.789-6.848 5.935-5.627 5.935-5.627 10.648-5.714.866.35 1.733.7 2.625 1.062l3 1c2.259-3.254 2.259-3.254 3-7a125 125 0 0 0-6-4l1-14 7-3-.437-3.875-.247-2.18c-.229-2.019-.229-2.019-1.316-3.945l-1.758.5c-2.592.548-4.604.831-7.242.5-2.618-2.31-4.213-5.03-6-8l-2-2c.313-1.812.313-1.812 1-4 .34-1.665.676-3.332 1-5l-6-2c-2.343 2.672-2.343 2.672-3 6l-16-2-2-6c-4.084 0-7.123.807-11 2" fill="#3d3d3d"/>
  <path d="M170.598 380.684c7.526-.498 12.601 1.54 18.402 6.316 5.955 6.365 6.368 12.336 6.273 20.738-.533 6.358-2.985 10.335-7.648 14.575A115 115 0 0 1 184 425l-2.625 1.875c-6.331 2.11-12.97 2.423-19.266.023-5.527-3.094-8.896-6.476-12.109-11.898l-1.102-1.82c-2.173-5.273-1.691-12.118-.28-17.563 2.606-5.882 7.438-10.802 13.292-13.496 2.868-.842 5.728-1.077 8.688-1.437" fill="#fbfdfc"/>
  <path d="M285 171h17v43h24v16h-41z" fill="#577372"/>
  <path d="m360 187 1 6h7l2-5c5.625.45 8.615 1.684 13 5l-.625 3.75c-.436 3.37-.409 5.378 1.625 8.25l1.688-1.062c2.862-1.161 4.363-.637 7.312.062.533 1.58 1.051 3.164 1.563 4.75l.878 2.672c.58 2.674.512 4.045-.441 6.578-1 1-1 1-3.562 1.063L389 219c.234 5.035.234 5.035 3.063 8.938L394 229c-.515 5.281-2.255 8.572-5 13l-2.25-.5c-2.94-.62-2.94-.62-6.75-.5-1.858 3.135-2.201 5.375-2 9-9.41 4.592-9.41 4.592-14 4l-2-6c-2.874-.417-2.874-.417-6 0-1.935 2.39-1.935 2.39-3 5-5.155-.483-8.816-3.186-13-6l.879-5.957c.26-2.246.26-2.246-.879-5.043l-3.875.625c-2.18.352-2.18.352-4.125.375-3.42-3.42-3.953-7.72-4.125-12.437L328 222l5-2c.334-2.874.334-2.874 0-6-1.88-1.913-1.88-1.913-4-3 .483-5.155 3.186-8.816 6-13l2.313.938c1.875.74 3.774 1.424 5.687 2.062v-2l2-1v-8l1.898-.621 2.477-.816 2.46-.81c4.941-1.72 4.941-1.72 8.165-.753m-9 6 .438 3.125c-.46 4.077-.692 4.705-3.5 7.375-3.079 2.375-3.759 2.506-7.875 2.375L337 205l-2 4 5 2a217 217 0 0 1-.187 5.813l-.106 3.269C339 223 339 223 336.449 224.887L334 226l1 5 3.188-.375C342 231 342 231 344.938 233.5c2.753 3.761 2.452 6.977 2.062 11.5l4 1 1-4 13 1 2 5 5-1-.375-3.25L372 240c2.875-2.312 2.875-2.312 6-4l2-2c3.625.375 3.625.375 7 1l1-4-4-2v-13l6-1-1-6-8 1-.812-1.812c-1.022-2.249-1.022-2.249-2.875-3.438-1.697-2.262-1.349-3.186-1-5.937L377 195l-4-1-1.113 2.016C370 198 370 198 367.082 198.172l-3.27-.422-3.292-.39c-.832-.12-1.663-.238-2.52-.36l-2-5c-2.21-.105-2.21-.105-5 1" fill="#3c3c3c"/>
  <path d="M228 185v15l-7.324.293c-4.005 1.058-5.308 2.271-7.676 5.707-.749 4.102-.79 8.15-.812 12.313l-.077 3.4A647 647 0 0 0 212 230h-16v-44h12l1 4c.534-.36 1.067-.722 1.617-1.094 6.114-3.808 10.217-4.41 17.383-3.906" fill="#567271"/>
  <path d="M312.215 261.95c4.737 2.795 8.292 6.064 10.785 11.05.842 5.638.46 10.035-2.562 14.938-2.99 3.953-5.54 5.817-10.438 7.062-4.902.506-9.714.665-14-2-4.614-4.681-7.158-7.941-7.437-14.625.046-5.549 1.05-8.683 4.738-12.816 5.34-4.899 12.142-6.512 18.914-3.61" fill="#fbfbfb"/>
  <path d="m356 192 2 5c1.934.276 3.873.52 5.813.75l3.269.422c3.038.154 3.038.154 4.805-2.156L373 194l4 1-.812 3.688c-.363 2.184-.363 2.184-.188 4.312 2.313 2.897 2.313 2.897 5 5v2l8-1 1 6-6 1v13l4 2-1 4-3.125-.812c-4.206-.215-4.206-.215-7.187 2.187L374 239l-2 1v7l-5 1-2-5-13-1-1 4-4-1 .313-3.625c-.012-3.258-.44-5.231-2.375-7.875-2.784-2.85-2.784-2.85-6.75-2.875L335 231l-1-5 2.45-1.113c2.828-1.67 2.828-1.67 3.257-4.805l.106-3.27.144-3.292L340 211l-5-2 2-4 3.063.875c4.116.13 4.796 0 7.875-2.375 2.808-2.67 3.04-3.298 3.5-7.375L351 193c3-1 3-1 5-1m-8.812 18c-2.437 3.246-2.437 3.246-3.188 7l-.375 3.75c.094 6.302 3.586 10.505 7.938 14.75 5.64 2.461 11.663 2.594 17.593.875 4.883-2.398 7.91-6.417 9.844-11.375 1.033-5.292.581-9.65-2.062-14.375-2.724-3.748-5.451-6.283-9.938-7.625-8.686-1.214-13.92.424-19.812 7" fill="#f3f3f3"/>
  <path d="M314.793 256.992c6.487 3.474 10.641 8.09 13.207 15.008 1.353 6.921.034 12.653-3.363 18.766-3.051 4.165-7.054 6.943-11.637 9.234-8.137.795-15.507 1.213-22.195-4.074-3.049-3.253-4.993-6.881-6.805-10.926l-1-2c-.773-6.816-.147-12.421 4-18 7.677-8.126 16.706-11.946 27.793-8.008m-24.293 11.57c-2.242 5.14-2.258 9.918-1.5 15.438 1.564 3.517 1.564 3.517 4 6l2 2.313c3.65 3.08 8.003 3.04 12.625 2.957 4.892-.556 8.594-2.394 11.984-5.965 3.225-4.475 4.115-8.497 3.813-13.977-1.039-5.733-4.833-9.116-9.422-12.328-9.003-5.153-16.829-1.275-23.5 5.563" fill="#3d3d3d"/>
  <path d="M234 306c4.541 2.143 8.176 4.143 10 9 .728 4.656.428 8.144-1.687 12.375-3.574 4.056-5.778 5.427-11.188 6.125-4.637-.176-7.926-2.215-11.125-5.5-2.767-4.4-2.654-8.962-2-14 3.325-6.011 9.174-9.092 16-8" fill="#fbfcfd"/>
  <path d="M365 208c4.107 1.774 6.699 4.165 9 8 .722 3.956.365 7.089-1.125 10.813-2.796 3.261-5.588 4.772-9.832 5.542-3.98.282-6.35-.192-9.48-2.73-3.9-3.995-3.954-6.655-3.922-12.074.579-4.11 2.358-5.764 5.359-8.551 3.196-1.598 6.523-1.368 10-1" fill="#f9f9f9"/>
  <path d="M169 198c2.91 1.265 4.46 2.255 6.313 4.813 1.279 4.07 1.217 7.076-.625 10.937-1.932 2.575-3.54 4.046-6.774 4.621-4.141.12-6.368-.037-9.976-2.246-2.73-4.401-2.947-8.078-1.938-13.125 3.386-5.291 7.12-6.095 13-5" fill="#f5f6f6"/>
  <path d="M429 197c2.937 1.532 4.516 2.67 5.668 5.836.74 3.824.425 5.93-1.043 9.601-3.17 3.095-5.1 3.588-9.434 3.81-3.324-.374-4.98-1.828-7.191-4.247-1.55-3.1-1.29-5.579-1-9 3.69-5.66 6.304-6.567 13-6" fill="#f4f4f5"/>
  <path d="M284 171h1v59h41c-5 5-5 5-7.187 7.125-1.99 1.945-1.99 1.945-3.813 4.875-2.164.293-2.164.293-4.625.188l-2.477-.083L306 242l-3-7-11 1v-2l6-1v-2h-14z" fill="#d1d7d7"/>
  <path d="M434 226c.476 6.192.476 6.192-1.437 9.438-3.681 2.244-7.35 2.423-11.563 1.562l-1.297-1.484c-2.71-2.412-5.925-2.09-9.39-2.203l-2.127-.104A435 435 0 0 0 403 233l-1 2v-3l15-1v-1l3.563-.312c4.628-.56 9.005-3.688 13.437-3.688" fill="#e8ebeb"/>
  <path d="m298 231 25 1-2 3-3-1c-8.864-.467-17.336-.017-26 2v-2l6-1z" fill="#e8e7e7"/>
  <path d="m127 227 1 4c-3.248 1.923-5.744 2.297-9.5 2.313l-2.844.05C113 233 113 233 109 230h18z" fill="#dadede"/>
  <path d="m280 229 1 2h-5v2c-1.937.081-3.875.14-5.812.188l-3.27.105C264 233 264 233 261 230zm-210 0 18 1c-4.535 3.401-4.535 3.401-9 3.313l-2.562-.012c-2.553-.315-4.228-1.017-6.438-2.301z" fill="#d9dddd"/>
  <path d="m138 193 4 3-2 15h-1l-.586-6.152L138 203l-2-1z" fill="#dde1e1"/>
  <path d="M232 230h16c-3 3-3 3-5.48 3.293l-2.708-.106-2.73-.082L235 233v-2z" fill="#d8dcdd"/>
  <path d="M326 273h1v13l-2 1-1-2-2 1q.428-2.126.875-4.25l.492-2.39c.625-2.328 1.481-4.25 2.633-6.36" fill="#313131"/>
  <path d="M196 230h16c-4.554 3.415-4.554 3.415-8 3.375l-2 .023c-2-.398-2-.398-6-3.398" fill="#d8dcdc"/>
  <path d="m408 188 3 1-6 6-2-1z" fill="#5e7877"/>
  <path d="m98 198 2 1c.625 2.563.625 2.563 1 5l-5 1z" fill="#c8d0d0"/>
</svg>
